<?xml version="1.0" encoding="utf-8"?>
<!-- Generator: Adobe Illustrator 22.1.0, SVG Export Plug-In . SVG Version: 6.00 Build 0)  -->
<svg version="1.1" id="Слой_1" xmlns="http://www.w3.org/2000/svg" xmlns:xlink="http://www.w3.org/1999/xlink" x="0px" y="0px"
	 viewBox="0 0 588 784" enable-background="new 0 0 588 784" xml:space="preserve">
<g>
	<rect fill="#EBBF7A" width="588" height="784"/>
	<g>
		<path opacity="8.000000e-02" fill="#8C5045" d="M135.1,754.4c-1.7-2.1-3.3-2.8-4.6-2.1c-1.3,0.7-3.1,4.1-5.3,10.2
			c-2.2,6.1-2.6,10.1-1,12c1.6,1.9,2.9,2,4.1,0.5c1.2-1.5,2.1-3.4,2.6-5.5c0.5-2.2,1.5-2.7,2.9-1.5c1.4,1.2,2.7,3.6,3.9,7.1
			c1.2,3.5,2.4,5.8,3.7,6.7c1.3,0.9,2.5,1.2,3.7,0.9c1.2-0.3,2-1,2.5-2c0.5-1,0.3-2.1-0.3-3.5c-0.7-1.3-2.5-5-5.3-10.9
			C139.1,760.4,136.8,756.4,135.1,754.4z"/>
		<path opacity="8.000000e-02" fill="#8C5045" d="M513.6,750.8c-2.6-1.3-4.3-2.1-5.3-2.2c-0.9-0.1-1.5-1.1-1.7-2.9
			c-0.2-1.8-1-3.3-2.6-4.4s-3.2-1.6-5-1.3c-1.8,0.3-3.5,1.6-5,3.9c-1.6,2.3-1.5,4,0.1,5.3c1.6,1.3,2.9,1.4,3.8,0.3
			c0.9-1.1,1.9-1.7,2.9-1.8c1-0.1,1.3,0.7,1,2.2c-0.4,1.5-0.6,2.9-0.7,4.1c-0.1,1.2,0.4,1.8,1.5,1.9c1.1,0.1,2.6,0,4.5-0.3
			c1.9-0.3,3,0.1,3.4,1.2c0.4,1-0.3,1.8-2.2,2.2c-1.9,0.4-3.5,1.1-5,2c-1.4,0.9-1.9,2-1.5,3.4c0.5,1.3,1.8,1.8,4.2,1.5
			c2.3-0.3,4.6-1.1,6.8-2.3c2.2-1.2,3.7-2.5,4.6-4c0.9-1.4,1.1-2.9,0.7-4.5C517.7,753.6,516.1,752.2,513.6,750.8z"/>
		<path opacity="8.000000e-02" fill="#8C5045" d="M85.2,750.2c-3.6-1.9-6.1-2.9-7.5-3.1c-1.3-0.2-2.1-1.5-2.3-4
			c-0.2-2.5-1.4-4.6-3.6-6.3s-4.5-2.2-7.1-1.8c-2.5,0.5-4.9,2.3-7.1,5.5c-2.2,3.2-2.2,5.7,0.1,7.5c2.3,1.8,4.1,2,5.4,0.4
			c1.3-1.6,2.6-2.4,4.1-2.5c1.4-0.1,1.9,0.9,1.4,3.1s-0.8,4-0.9,5.7c-0.1,1.7,0.6,2.6,2.1,2.7c1.5,0.1,3.7,0,6.3-0.4
			c2.7-0.4,4.3,0.2,4.8,1.6c0.5,1.5-0.5,2.5-3.1,3.1c-2.6,0.6-5,1.6-7,2.9c-2.1,1.3-2.8,2.9-2.1,4.8c0.6,1.9,2.6,2.6,5.9,2.1
			c3.3-0.5,6.5-1.6,9.6-3.3c3.1-1.7,5.3-3.6,6.5-5.6c1.3-2,1.6-4.2,0.9-6.4C91,754.2,88.9,752.1,85.2,750.2z"/>
		<path opacity="8.000000e-02" fill="#8C5045" d="M306.6,421.1c-3.6-1.9-6.1-2.9-7.5-3.1c-1.3-0.2-2.1-1.5-2.3-4
			c-0.2-2.5-1.4-4.6-3.6-6.3s-4.5-2.2-7.1-1.8c-2.5,0.5-4.9,2.3-7.1,5.5c-2.2,3.2-2.2,5.7,0.1,7.5c2.3,1.8,4.1,2,5.4,0.4
			c1.3-1.6,2.6-2.4,4.1-2.5c1.4-0.1,1.9,0.9,1.4,3.1c-0.5,2.1-0.8,4-0.9,5.7c-0.1,1.7,0.6,2.6,2.1,2.7c1.5,0.1,3.7,0,6.3-0.4
			c2.7-0.4,4.3,0.2,4.8,1.6c0.5,1.5-0.5,2.5-3.1,3.1c-2.6,0.6-5,1.6-7,2.9c-2.1,1.3-2.8,2.9-2.1,4.8c0.6,1.9,2.6,2.6,5.9,2.1
			c3.3-0.5,6.5-1.6,9.6-3.3c3.1-1.7,5.3-3.6,6.5-5.6c1.3-2,1.6-4.2,0.9-6.4C312.4,425.1,310.3,423,306.6,421.1z"/>
		<path opacity="8.000000e-02" fill="#8C5045" d="M149.4,251.7c-4.5-2.3-7.5-3.6-9.2-3.8c-1.6-0.2-2.6-1.9-2.9-5
			c-0.3-3.1-1.8-5.7-4.5-7.7c-2.7-2-5.6-2.8-8.7-2.2c-3.1,0.6-6,2.8-8.8,6.8c-2.7,3.9-2.7,7,0.2,9.3c2.9,2.2,5.1,2.4,6.6,0.5
			c1.6-1.9,3.2-3,5-3.1c1.8-0.1,2.3,1.2,1.7,3.8c-0.6,2.6-1,5-1.2,7.1c-0.1,2.1,0.7,3.2,2.6,3.4c1.9,0.2,4.5,0,7.8-0.5
			c3.3-0.5,5.3,0.2,5.9,2c0.7,1.8-0.6,3.1-3.8,3.9c-3.2,0.8-6.1,1.9-8.6,3.5c-2.5,1.6-3.4,3.6-2.6,5.9c0.8,2.3,3.2,3.2,7.2,2.6
			c4-0.6,7.9-1.9,11.7-4c3.8-2.1,6.5-4.4,8-6.9c1.5-2.5,1.9-5.1,1.2-7.8C156.6,256.5,153.9,254,149.4,251.7z"/>
		<path opacity="8.000000e-02" fill="#8C5045" d="M184.6,621.5c-3.4-5.2-6.9-9.7-10.5-13.4c-3.6-3.7-6.2-5.5-7.9-5.4
			c-1.7,0.1-2.7,0.7-3,1.8c-0.4,1.1,0.9,3.8,3.7,8c2.8,4.2,3.7,6.8,2.6,7.6c-1.1,0.8-2.3,1.2-3.5,0.9s-3.2-2.5-5.9-6.9
			c-2.7-4.3-4.7-6.6-6.2-6.7c-1.5-0.1-2.6,0.2-3.4,0.8c-0.8,0.6-1.4,1.4-1.6,2.5c-0.3,1,1,3.2,3.6,6.6c2.7,3.3,5,6.7,7.1,10
			c2,3.3,4.3,4.6,6.7,3.9c2.4-0.8,4.7-1.8,6.9-3c2.2-1.3,3.7-1.9,4.6-2.1c0.9-0.1,2.1,0.8,3.7,2.7c1.6,1.9,2.9,2.9,3.9,3
			c1,0.1,2-0.3,2.9-1.2C189.3,629.8,188,626.8,184.6,621.5z"/>
		<path opacity="8.000000e-02" fill="#8C5045" d="M439.3,470.3c4.1-4.7,7.4-9.4,9.9-13.8c2.5-4.5,3.5-7.5,2.9-9.1
			c-0.6-1.6-1.4-2.4-2.6-2.4c-1.1,0-3.4,1.9-6.6,5.8c-3.3,3.9-5.5,5.4-6.6,4.6c-1.1-0.8-1.7-1.9-1.9-3.1c-0.1-1.3,1.5-3.8,5-7.6
			c3.4-3.8,5-6.4,4.7-7.8c-0.3-1.4-0.9-2.4-1.7-3.1c-0.8-0.6-1.8-0.9-2.8-0.9c-1.1,0.1-2.8,1.8-5.3,5.3c-2.5,3.5-5,6.7-7.7,9.6
			c-2.6,2.9-3.3,5.4-1.8,7.5c1.4,2.1,3,4,4.9,5.8c1.8,1.8,2.9,3,3.3,3.8c0.4,0.8-0.1,2.2-1.5,4.3c-1.4,2.1-2,3.6-1.8,4.6
			c0.2,1,0.8,1.8,1.9,2.5C432.6,477.1,435.2,475.1,439.3,470.3z"/>
		<path opacity="8.000000e-02" fill="#8C5045" d="M80.6,718.5c-3.4-5.2-6.9-9.7-10.5-13.4c-3.6-3.7-6.2-5.5-7.9-5.4
			c-1.7,0.1-2.7,0.7-3,1.8c-0.4,1.1,0.9,3.8,3.7,8c2.8,4.2,3.7,6.8,2.6,7.6c-1.1,0.8-2.3,1.2-3.5,0.9s-3.2-2.5-5.9-6.9
			c-2.7-4.3-4.7-6.6-6.2-6.7c-1.5-0.1-2.6,0.2-3.4,0.8c-0.8,0.6-1.4,1.4-1.6,2.5c-0.3,1,1,3.2,3.6,6.6c2.7,3.3,5,6.7,7.1,10
			c2,3.3,4.3,4.6,6.7,3.9c2.4-0.8,4.7-1.8,6.9-3c2.2-1.3,3.7-1.9,4.6-2.1c0.9-0.1,2.1,0.8,3.7,2.7c1.6,1.9,2.9,2.9,3.9,3
			c1,0.1,2-0.3,2.9-1.2C85.2,726.8,84,723.7,80.6,718.5z"/>
		<path opacity="8.000000e-02" fill="#8C5045" d="M41.1,709.2c2.1-3.7,3.7-7.2,4.8-10.5c1.1-3.3,1.4-5.4,0.8-6.4
			c-0.6-1-1.3-1.4-2-1.3c-0.8,0.1-2,1.7-3.7,4.7c-1.7,3-2.9,4.3-3.8,3.9c-0.9-0.4-1.4-1-1.6-1.8c-0.2-0.8,0.5-2.7,2.3-5.7
			c1.8-3,2.5-4.9,2.1-5.8c-0.4-0.9-0.9-1.5-1.5-1.8c-0.6-0.3-1.3-0.4-2-0.2c-0.7,0.2-1.7,1.6-2.8,4.2c-1.2,2.7-2.5,5.1-3.8,7.4
			c-1.4,2.3-1.5,4-0.2,5.2c1.2,1.2,2.6,2.3,4,3.2c1.4,0.9,2.3,1.6,2.7,2.1c0.4,0.5,0.2,1.5-0.5,3.1c-0.7,1.6-0.9,2.7-0.6,3.3
			c0.3,0.6,0.8,1.1,1.6,1.4S39,712.9,41.1,709.2z"/>
		<path opacity="8.000000e-02" fill="#8C5045" d="M201.1,776.7c2.1-3.7,3.7-7.2,4.8-10.5c1.1-3.3,1.4-5.4,0.8-6.4
			c-0.6-1-1.3-1.4-2-1.3c-0.8,0.1-2,1.7-3.7,4.7c-1.7,3-2.9,4.3-3.8,3.9c-0.9-0.4-1.4-1-1.6-1.8c-0.2-0.8,0.5-2.7,2.3-5.7
			c1.8-3,2.5-4.9,2.1-5.8c-0.4-0.9-0.9-1.5-1.5-1.8c-0.6-0.3-1.3-0.4-2-0.2c-0.7,0.2-1.7,1.6-2.8,4.2s-2.5,5.1-3.8,7.4
			c-1.4,2.3-1.5,4-0.2,5.2c1.2,1.2,2.6,2.3,4,3.2s2.3,1.6,2.7,2.1c0.4,0.5,0.2,1.5-0.5,3.1c-0.7,1.6-0.9,2.7-0.6,3.3
			c0.3,0.6,0.8,1.1,1.6,1.4C197.5,782.1,199,780.4,201.1,776.7z"/>
		<path opacity="8.000000e-02" fill="#8C5045" d="M498.8,763.6c-0.1-1.1-1.9-3.2-5.3-6c-3.4-2.9-6-3.4-7.7-1.4
			c-1.8,2-3.1,3.6-4.1,4.9c-1,1.3-1.5,2.5-1.5,3.5c0,1,1.1,2.2,3.4,3.5s2.9,2.6,2.1,3.9s-1.7,1.7-2.4,1.3c-0.8-0.4-1.5-1.3-2.3-2.6
			c-0.8-1.4-1.4-2.2-1.9-2.6c-0.5-0.4-1.1-0.3-2,0.2c-0.8,0.5-1.3,1.2-1.6,2.1c-0.2,0.8,0.8,2.4,3.2,4.7c2.4,2.3,4.1,3.5,5.2,3.6
			c1.1,0.1,2.3-0.5,3.7-1.8c1.3-1.2,2.2-2.8,2.5-4.6c0.4-1.8,0.3-3.3-0.1-4.5c-0.4-1.2-1-2.2-1.9-3c-0.9-0.9-0.9-1.8-0.1-2.8
			c0.8-1,1.8-0.9,2.9,0.2c1.1,1.1,2,2.2,2.7,3.2c0.8,1,1.5,1.7,2.2,2.2c0.7,0.5,1.4,0.2,2.1-0.7
			C498.6,765.8,498.9,764.7,498.8,763.6z"/>
		<path opacity="8.000000e-02" fill="#8C5045" d="M407.1,758.9c-1.1,0.1-3.3,1.7-6.4,4.9c-3.1,3.2-3.7,5.7-1.9,7.6
			c1.8,1.9,3.4,3.4,4.6,4.5c1.3,1.1,2.4,1.7,3.4,1.7c1,0.1,2.2-1,3.7-3.1c1.5-2.2,2.8-2.8,4-1.8c1.2,0.9,1.6,1.8,1.1,2.5
			c-0.4,0.7-1.4,1.4-2.8,2.1c-1.4,0.7-2.3,1.3-2.8,1.7c-0.4,0.5-0.4,1.1,0.1,2c0.5,0.8,1.1,1.4,2,1.7c0.8,0.3,2.4-0.7,4.9-2.9
			c2.5-2.2,3.8-3.9,3.9-5c0.1-1.1-0.4-2.4-1.5-3.8c-1.1-1.4-2.6-2.3-4.4-2.8c-1.8-0.5-3.3-0.6-4.5-0.2c-1.2,0.3-2.2,0.9-3.2,1.7
			c-0.9,0.8-1.9,0.8-2.8-0.1c-0.9-0.9-0.8-1.8,0.4-2.8c1.2-1,2.3-1.8,3.3-2.5c1-0.7,1.8-1.4,2.3-2.1c0.5-0.7,0.3-1.4-0.6-2.2
			C409.3,759.2,408.3,758.8,407.1,758.9z"/>
		<path opacity="8.000000e-02" fill="#8C5045" d="M553.8,722.5c-4.9-2.4-9.3-3.2-13.2-2.4c-3.9,0.8-6.4-0.5-7.4-3.7
			c-1-3.2-3.5-6.6-7.3-10.1c-3.8-3.5-8.8-3.6-15-0.2c-6.2,3.4-10.1,7.7-11.5,13c-1.5,5.3-0.1,10,4.1,14s8.2,6.4,11.9,6.9
			c3.7,0.5,5.6,2.5,5.7,6.1c0.1,3.5,2.6,7.7,7.4,12.5c4.8,4.8,10.9,5.3,18.2,1.6c7.3-3.8,12.1-8,14.4-12.8c2.2-4.7,2.8-9.5,1.8-14.2
			C561.7,728.5,558.8,724.9,553.8,722.5z M512.9,726.3c-3.8-3.2-4.1-6.5-0.7-9.8c3.3-3.3,6.8-2.9,10.3,1.1c3.5,4,3.7,7.3,0.7,9.8
			C520.1,729.9,516.7,729.5,512.9,726.3z M547,746.1c-3.9,2.7-7.3,2.9-10.2,0.8c-2.9-2.1-4-4.8-3.4-8.2c0.7-3.3,2.9-5.6,6.8-6.8
			c3.9-1.2,6.9,0.2,9.2,4.2C551.7,740.2,550.9,743.5,547,746.1z"/>
		<path opacity="8.000000e-02" fill="#8C5045" d="M52.3,742.1c1.1-5.3-0.4-10.5-4.4-15.7c-4-5.2-9.4-7.3-16.1-6.4
			c-6.8,0.9-11.2,4.2-13.2,9.8c-2,5.6-1.1,10.2,2.7,13.7c3.9,3.5,7.9,5.6,12.2,6.2c4.3,0.6,5.9,2.2,4.9,4.8c-1,2.6-1.7,4.3-2.2,5.2
			c-0.5,0.9-2.5,1.2-5.9,0.9c-3.5-0.3-6.1-1.5-8-3.4c-1.9-1.9-4.2-3.1-6.9-3.6c-2.7-0.4-4.5,0.3-5.3,2.4c-0.8,2-0.5,4.1,1,6.3
			s4.4,4.4,9,6.8c4.5,2.4,9.4,3.3,14.6,2.8c5.2-0.5,9.1-4.3,11.9-11.3C49.3,753.5,51.2,747.4,52.3,742.1z M33.5,740.6
			c-4-1.8-5.1-4.6-3.4-8.4c1.7-3.8,4.2-4.8,7.6-3c3.3,1.8,4.5,4.6,3.4,8.4C40,741.3,37.5,742.3,33.5,740.6z"/>
		<path opacity="8.000000e-02" fill="#8C5045" d="M489.7,741.9c2.5-2.8,3.4-6.4,2.8-10.9c-0.6-4.5-3.1-7.6-7.4-9.4
			c-4.3-1.8-8.1-1.4-11.3,1.3c-3.2,2.6-4.2,5.7-3.1,9.1c1.1,3.4,2.8,6.1,5.1,7.9c2.3,1.8,2.8,3.4,1.3,4.6c-1.5,1.2-2.5,2-3.1,2.4
			c-0.6,0.4-1.9-0.1-3.8-1.5c-1.9-1.4-3.1-3-3.6-4.8c-0.4-1.8-1.4-3.3-2.9-4.5c-1.5-1.2-2.8-1.4-4-0.4c-1.2,0.9-1.7,2.3-1.6,4.1
			c0.1,1.8,1.1,4.2,3,7.2c1.9,3,4.5,5.2,7.7,6.7c3.2,1.5,6.9,0.6,11-2.6C483.9,747.7,487.2,744.7,489.7,741.9z M479,734.5
			c-1.8-2.4-1.5-4.5,0.9-6.2c2.3-1.7,4.2-1.4,5.5,0.8c1.4,2.2,1.1,4.3-0.9,6.2C482.6,737.2,480.8,736.9,479,734.5z"/>
		<path opacity="8.000000e-02" fill="#8C5045" d="M288.5,780.4c3.7-0.5,6.8-2.6,9.3-6.3c2.5-3.8,2.7-7.7,0.6-11.9
			c-2.1-4.2-5.2-6.4-9.3-6.4c-4.1-0.1-6.9,1.5-8.4,4.8c-1.4,3.3-1.9,6.4-1.4,9.3c0.5,2.9-0.1,4.3-2,4.3c-1.9-0.1-3.2-0.1-3.9-0.3
			c-0.7-0.1-1.3-1.3-1.9-3.7c-0.5-2.3-0.4-4.3,0.5-6c0.8-1.6,1.1-3.4,0.8-5.3c-0.3-1.9-1.2-2.9-2.7-2.9c-1.5-0.1-2.8,0.6-3.9,2
			c-1.1,1.4-1.9,3.9-2.5,7.4c-0.5,3.5-0.1,6.9,1.4,10.1c1.5,3.3,4.8,5,10,5.2C280.3,781,284.8,780.9,288.5,780.4z M285.3,767.8
			c0.3-3,1.8-4.4,4.7-4.1c2.9,0.3,4.1,1.7,3.6,4.3c-0.4,2.6-2,3.9-4.7,4.1C286.3,772.2,285,770.8,285.3,767.8z"/>
		<path opacity="8.000000e-02" fill="#8C5045" d="M547.5,678.5c-3.4-0.7-6.8-0.1-10.2,1.8c-3.4,1.9-5.7,4.6-6.9,8.2
			c-1.2,3.5-0.7,7.2,1.7,11s5.3,6.6,8.8,8.4c3.5,1.8,6.8,2.8,9.8,2.8c3.1,0.1,5.8-0.4,8.2-1.5c2.4-1.1,4.6-3.3,6.6-6.5
			c2-3.3,1.8-7.1-0.5-11.4c-2.4-4.3-5-7.4-8-9.1C554.1,680.4,550.9,679.2,547.5,678.5z M558.7,692.9c1,2.4,0.6,4.8-1.2,7.1
			c-1.8,2.3-3.7,3.5-5.9,3.6c-2.1,0.1-4.2-0.4-6.4-1.5s-3.9-2.9-5.4-5.4c-1.5-2.5-1.9-4.7-1.1-6.6c0.8-1.9,1.7-3.2,2.8-3.9
			c1.1-0.6,2.9-0.9,5.3-0.7c2.4,0.2,4.8,0.8,7,2C556.1,688.6,557.7,690.4,558.7,692.9z"/>
		<path opacity="8.000000e-02" fill="#8C5045" d="M449.4,762.6c2.4-2.5,3.8-5.7,4-9.5c0.2-3.9-0.8-7.3-3.1-10.3
			c-2.3-3-5.7-4.5-10.2-4.6c-4.5-0.1-8.4,0.9-11.9,2.8c-3.4,2-6,4.2-7.7,6.7c-1.7,2.5-2.8,5.1-3.1,7.7c-0.4,2.6,0.3,5.7,1.9,9.1
			c1.7,3.5,4.9,5.4,9.9,5.7c4.9,0.4,8.9-0.2,12-1.7C444.3,767.1,447,765.1,449.4,762.6z M431.3,764.1c-2.6-0.5-4.4-2.1-5.3-4.9
			c-0.9-2.7-0.9-5,0.2-6.9c1.1-1.8,2.6-3.3,4.7-4.5c2.1-1.2,4.6-1.7,7.5-1.6c2.9,0.1,4.9,1,6.2,2.6c1.2,1.7,1.8,3.2,1.7,4.4
			c-0.1,1.3-0.8,2.9-2.3,4.9c-1.5,2-3.3,3.6-5.5,4.8C436.3,764.3,433.9,764.6,431.3,764.1z"/>
		<path opacity="8.000000e-02" fill="#8C5045" d="M109.7,721.4c-3.4-0.7-6.8-0.1-10.2,1.8c-3.4,1.9-5.7,4.6-6.9,8.2
			c-1.2,3.5-0.7,7.2,1.7,11c2.4,3.8,5.3,6.6,8.8,8.4c3.5,1.8,6.8,2.8,9.8,2.8c3.1,0.1,5.8-0.4,8.2-1.5c2.4-1.1,4.6-3.3,6.6-6.5
			c2-3.3,1.8-7.1-0.5-11.4c-2.4-4.3-5-7.4-8-9.1C116.3,723.4,113.1,722.1,109.7,721.4z M120.9,735.9c1,2.4,0.6,4.8-1.2,7.1
			c-1.8,2.3-3.7,3.5-5.9,3.6c-2.1,0.1-4.2-0.4-6.4-1.5c-2.1-1.1-3.9-2.9-5.4-5.4c-1.5-2.5-1.9-4.7-1.1-6.6s1.7-3.2,2.8-3.9
			c1.1-0.6,2.9-0.9,5.3-0.7c2.4,0.2,4.8,0.8,7,2C118.3,731.6,119.9,733.4,120.9,735.9z"/>
		<path opacity="8.000000e-02" fill="#8C5045" d="M342.1,624.5c-3.4-0.7-6.8-0.1-10.2,1.8s-5.7,4.6-6.9,8.2c-1.2,3.5-0.7,7.2,1.7,11
			c2.4,3.8,5.3,6.6,8.8,8.4c3.5,1.8,6.8,2.8,9.8,2.8c3.1,0.1,5.8-0.4,8.2-1.5c2.4-1.1,4.6-3.3,6.6-6.5c2-3.3,1.8-7.1-0.5-11.4
			c-2.4-4.3-5-7.4-8-9.1C348.7,626.4,345.5,625.2,342.1,624.5z M353.3,638.9c1,2.4,0.6,4.8-1.2,7.1c-1.8,2.3-3.7,3.5-5.9,3.6
			c-2.1,0.1-4.2-0.4-6.4-1.5c-2.1-1.1-3.9-2.9-5.4-5.4c-1.5-2.5-1.9-4.7-1.1-6.6c0.8-1.9,1.7-3.2,2.8-3.9c1.1-0.6,2.9-0.9,5.3-0.7
			c2.4,0.2,4.8,0.8,7,2C350.7,634.6,352.3,636.4,353.3,638.9z"/>
		<path opacity="8.000000e-02" fill="#8C5045" d="M578.6,460.5c1.1,0.3,1.6,0.9,1.5,1.9c-0.1,1-1.3,2.1-3.5,3.4
			c-2.2,1.3-2.3,2.3-0.4,2.9c1.9,0.7,2.6,1.8,2,3.4c-0.6,1.6-1.8,1.8-3.6,0.5c-1.8-1.3-2.5-0.9-2.1,1c0.4,1.9,0.4,3.3,0,4.1
			c-0.4,0.8-1.1,1.1-2.2,0.8c-1-0.3-1.7-0.9-1.8-1.7c-0.2-0.9-0.3-2.3-0.3-4.4c0-2.1-1.1-2.2-3.1-0.3c-2,1.9-3.6,2.5-4.7,1.9
			c-1.1-0.6-1.3-1.5-0.7-2.5c0.6-1,1.6-1.9,2.9-2.6c1.3-0.7,1-1.5-0.8-2.3c-1.8-0.8-2.5-1.7-2.1-2.7c0.4-1,1.2-1.5,2.1-1.4
			c1,0,2,0.3,3.1,0.8c1.1,0.5,1.4,0,1.1-1.5c-0.3-1.5-0.3-2.9,0.2-4.2c0.5-1.3,1.2-1.9,2.2-1.6c1,0.2,1.6,0.9,1.8,2
			c0.2,1.1,0.2,2.1,0.1,3c-0.1,0.9-0.1,1.8,0,2.8c0.1,1,0.7,1.2,1.7,0.6c1-0.6,2.1-1.5,3.3-2.6C576.3,460.6,577.5,460.2,578.6,460.5
			z"/>
		<g>
			<path opacity="8.000000e-02" fill="#8C5045" d="M547.8,665.3c-1.3-2.1-2.9-2.8-4.8-1.9c-1.9,0.8-2.6,2.1-2.3,3.9
				c0.3,1.8,1.1,3.1,2.5,4c1.4,0.9,2.8,0.6,4.3-0.7C549,669.1,549.1,667.4,547.8,665.3z"/>
			<path opacity="8.000000e-02" fill="#8C5045" d="M536.8,651.5c1.7-1.1,2.2-2.5,1.7-4.3c-0.6-1.7-1.6-2.9-3.1-3.5
				c-1.5-0.6-2.9-0.1-4.1,1.5c-1.2,1.6-1,3.3,0.6,5.2C533.5,652.3,535.1,652.6,536.8,651.5z"/>
			<path opacity="8.000000e-02" fill="#8C5045" d="M548.6,654c-0.6-1.4-1.5-2-2.8-1.9c-1.3,0.2-2.4,0.6-3.5,1.4
				c-1.1,0.8-3.5,2-7.1,3.7c-3.6,1.7-6,2.8-7.2,3.5c-1.2,0.6-1.5,1.5-0.9,2.7c0.6,1.2,1.4,1.8,2.6,2c1.1,0.2,2.6-0.2,4.3-1
				c1.7-0.8,4.8-2.4,9.1-4.7C547.3,657.3,549.2,655.4,548.6,654z"/>
		</g>
		<path opacity="8.000000e-02" fill="#8C5045" d="M577.1,646.6c-1.1,1-3.2,0.9-6.1-0.3c-2.9-1.2-4.6-1.2-5.1-0.1
			c-0.5,1.1-1.1,2.8-2,5c-0.8,2.2-2.1,3-3.9,2.2c-1.8-0.8-2.4-1.8-1.9-3.1c0.5-1.3,1-2.9,1.4-4.8c0.4-2-1.2-3.5-4.7-4.6
			c-3.5-1.1-4.7-2.6-3.5-4.5c1.2-1.9,3.3-2.3,6.4-1.3c3.1,1,5,0.7,5.5-0.8c0.6-1.6,1.3-3.2,2.2-4.8c0.9-1.7,2.1-2.3,3.6-1.9
			c1.5,0.4,2.1,1.5,1.9,3.2c-0.2,1.8-0.7,3.6-1.4,5.4c-0.7,1.8,0.2,3.1,2.6,3.6c2.4,0.6,4.2,1.6,5.2,3.2
			C578.3,644.3,578.3,645.6,577.1,646.6z"/>
		<path opacity="8.000000e-02" fill="#8C5045" d="M12.4,650.6c-1.3-0.4-2.4-1-3.4-1.8c-1-0.8-1.2-1.8-0.6-2.9
			c0.6-1.1,3.2-0.8,7.7,1.1c4.6,1.9,7.7,3.2,9.5,4c1.8,0.8,3,1.6,3.7,2.5c0.7,0.9,0.8,1.8,0.4,2.8c-0.4,1-1.3,1.2-2.5,0.7
			c-1.3-0.5-3.7-1.6-7.4-3.3C16.1,652,13.7,651,12.4,650.6z M22.3,662.7c1.3,0.4,2.4,0.9,3.4,1.7c1,0.8,1.1,1.7,0.5,2.8
			c-0.7,1.1-3.3,0.8-7.9-1c-4.6-1.8-7.8-3.1-9.6-3.8c-1.8-0.8-3-1.6-3.6-2.4c-0.6-0.9-0.7-1.8-0.2-2.7c0.5-1,1.4-1.2,2.6-0.7
			c1.3,0.5,3.7,1.6,7.4,3.2C18.5,661.3,21,662.3,22.3,662.7z"/>
		<path opacity="8.000000e-02" fill="#8C5045" d="M524.5,678.6c0.4-1.3,1.1-2.4,2.1-3.2c0.9-0.9,2.1-0.9,3.4-0.1
			c1.3,0.8,0.9,3.4-1.3,7.9c-2.2,4.5-3.7,7.6-4.7,9.3c-0.9,1.7-1.9,2.8-3,3.4c-1,0.5-2.1,0.5-3.3-0.1c-1.2-0.6-1.4-1.5-0.8-2.8
			c0.6-1.2,1.9-3.6,3.9-7.1C522.8,682.2,524,679.8,524.5,678.6z"/>
		<path opacity="8.000000e-02" fill="#8C5045" d="M420.2,165.3c0.1-2.7-0.6-4.2-2-4.6c-1.4-0.4-5,1-10.8,4c-5.8,3.1-8.7,5.8-8.8,8.2
			c-0.1,2.4,0.8,3.5,2.7,3.2c1.9-0.3,3.8-1.1,5.7-2.3c1.9-1.2,2.9-1,3.1,0.9c0.2,1.8-0.4,4.5-1.9,7.9c-1.5,3.4-2.1,5.9-1.7,7.4
			c0.4,1.6,1.1,2.6,2.2,3.1c1.1,0.5,2.1,0.6,3.1,0.2c1-0.4,1.7-1.3,2.1-2.8c0.4-1.5,1.5-5.4,3.4-11.7
			C419.2,172.5,420.2,168,420.2,165.3z"/>
		<path opacity="8.000000e-02" fill="#8C5045" d="M456.3,166.5c-0.1-1.1-1.9-3.2-5.3-6c-3.4-2.9-6-3.4-7.7-1.4
			c-1.8,2-3.1,3.6-4.1,4.9c-1,1.3-1.5,2.5-1.5,3.5c0,1,1.1,2.2,3.4,3.5c2.2,1.3,2.9,2.6,2.1,3.9s-1.7,1.7-2.4,1.3
			c-0.8-0.4-1.5-1.3-2.3-2.6c-0.8-1.4-1.4-2.2-1.9-2.6c-0.5-0.4-1.1-0.3-2,0.2c-0.8,0.5-1.3,1.2-1.6,2.1c-0.2,0.8,0.8,2.4,3.2,4.7
			c2.4,2.3,4.1,3.5,5.2,3.6c1.1,0.1,2.3-0.5,3.7-1.8c1.3-1.2,2.2-2.8,2.5-4.6c0.4-1.8,0.3-3.3-0.1-4.5c-0.4-1.2-1-2.2-1.9-3
			c-0.9-0.9-0.9-1.8-0.1-2.8c0.8-1,1.8-0.9,2.9,0.2c1.1,1.1,2,2.2,2.7,3.2c0.8,1,1.5,1.7,2.2,2.2c0.7,0.5,1.4,0.2,2.1-0.7
			C456.2,168.7,456.5,167.7,456.3,166.5z"/>
		<path opacity="8.000000e-02" fill="#8C5045" d="M497.6,31.5c0.7,0.9,1.6,1.3,2.8,1.3c1.2,0,3.3-0.7,6.3-2.2c3.1-1.5,5.1-2.9,6-4.2
			c0.9-1.3,0.8-2.6-0.2-3.9c-1-1.3-2.4-1.3-4.2,0c-1.8,1.3-3,2.2-3.7,2.7c-0.7,0.5-1.2,0.8-1.6,0.8c-0.4,0-0.6-0.3-0.6-0.7
			c0-0.4-0.5-1.8-1.5-4c-1-2.2-2.8-4.5-5.4-6.8c-2.6-2.3-4.5-2.9-5.7-1.9c-1.2,1-0.4,2.9,2.3,5.6c2.7,2.7,4.1,5.4,4.2,8.1
			C496.5,28.9,496.9,30.7,497.6,31.5z"/>
		<path opacity="8.000000e-02" fill="#8C5045" d="M565.9,64.5c0.8-2,1-3.7,0.6-5.2c-0.4-1.5,0-2.5,1.2-3c1.2-0.5,2.5-1.5,3.7-3.1
			c1.3-1.6,1.1-3.5-0.3-5.9c-1.5-2.3-3.3-3.7-5.4-4.2c-2.1-0.4-3.9,0.2-5.4,2c-1.5,1.8-2.3,3.4-2.4,4.8c-0.1,1.4-0.8,2.2-2.2,2.4
			c-1.4,0.1-2.9,1.2-4.7,3.2c-1.8,2-1.8,4.4-0.1,7.1c1.7,2.8,3.5,4.5,5.4,5.3c1.9,0.7,3.8,0.8,5.6,0.3
			C563.8,67.8,565.1,66.5,565.9,64.5z M563.3,48.6c1.2-1.6,2.4-1.8,3.8-0.5c1.4,1.2,1.3,2.6-0.1,4c-1.5,1.5-2.7,1.7-3.8,0.5
			C562.1,51.5,562.1,50.2,563.3,48.6z M556.5,62.5c-1.1-1.4-1.3-2.8-0.6-3.9c0.7-1.2,1.8-1.7,3.1-1.5c1.3,0.2,2.3,1,2.8,2.5
			c0.6,1.5,0.1,2.7-1.4,3.7C558.9,64.2,557.6,63.9,556.5,62.5z"/>
		<path opacity="8.000000e-02" fill="#8C5045" d="M253.6,175.8c0.8-2,1-3.7,0.6-5.2c-0.4-1.5,0-2.5,1.2-3c1.2-0.5,2.5-1.5,3.7-3.1
			c1.3-1.6,1.1-3.5-0.3-5.9c-1.5-2.3-3.3-3.7-5.4-4.2c-2.1-0.4-3.9,0.2-5.4,2c-1.5,1.8-2.3,3.4-2.4,4.8c-0.1,1.4-0.8,2.2-2.2,2.4
			c-1.4,0.1-2.9,1.2-4.7,3.2c-1.8,2-1.8,4.4-0.1,7.1c1.7,2.8,3.5,4.5,5.4,5.3s3.8,0.8,5.6,0.3C251.5,179,252.8,177.8,253.6,175.8z
			 M251,159.9c1.2-1.6,2.4-1.8,3.8-0.5c1.4,1.2,1.3,2.6-0.1,4c-1.5,1.5-2.7,1.7-3.8,0.5S249.8,161.5,251,159.9z M244.2,173.7
			c-1.1-1.4-1.3-2.8-0.6-3.9c0.7-1.2,1.8-1.7,3.1-1.5c1.3,0.2,2.3,1,2.8,2.5c0.6,1.5,0.1,2.7-1.4,3.7
			C246.6,175.4,245.3,175.2,244.2,173.7z"/>
		<path opacity="8.000000e-02" fill="#8C5045" d="M546,52.7c2.6,0.2,5-0.7,7.2-2.9c2.2-2.2,3-4.8,2.2-8c-0.8-3.1-2.6-5.1-5.3-5.7
			c-2.8-0.7-4.9,0-6.3,2c-1.5,2-2.2,4-2.3,6.1c-0.1,2-0.7,2.9-2,2.6c-1.3-0.3-2.1-0.6-2.6-0.7c-0.5-0.2-0.7-1.1-0.7-2.8
			c0-1.7,0.4-3,1.2-4c0.8-1,1.3-2.1,1.3-3.4c0.1-1.3-0.4-2.1-1.4-2.4c-1-0.3-2,0-2.9,0.8s-1.9,2.3-2.7,4.6c-0.9,2.3-1.1,4.6-0.6,7
			c0.5,2.4,2.5,4.1,6,5C540.5,51.8,543.5,52.4,546,52.7z M545.8,43.7c0.6-2,1.9-2.7,3.8-2.1c1.9,0.6,2.5,1.7,1.8,3.4
			c-0.7,1.7-1.9,2.4-3.8,2.1C545.7,46.8,545.1,45.7,545.8,43.7z"/>
		<path opacity="8.000000e-02" fill="#8C5045" d="M530.6,33.1c1.3-0.3,2.5-1,3.4-2.2c0.9-1.2,1.3-2.6,1.2-4
			c-0.1-1.5-0.9-2.7-2.3-3.7c-1.4-1-2.9-1.6-4.5-1.7c-1.5-0.1-2.9,0-4,0.5c-1.1,0.4-2,1.1-2.7,1.8c-0.7,0.8-1.2,1.9-1.4,3.4
			s0.4,2.8,2,4c1.5,1.2,3,1.9,4.3,2.1C527.9,33.5,529.2,33.4,530.6,33.1z M524.3,29.7c-0.7-0.7-1-1.7-0.7-2.8
			c0.3-1.1,0.8-1.8,1.6-2.2c0.8-0.4,1.6-0.5,2.5-0.4c0.9,0.1,1.9,0.5,2.8,1.1c0.9,0.7,1.4,1.4,1.4,2.2c0,0.8-0.1,1.4-0.4,1.8
			c-0.3,0.4-0.9,0.8-1.8,1.1s-1.9,0.4-2.9,0.4C525.9,30.8,525,30.4,524.3,29.7z"/>
		<g>
			<path opacity="8.000000e-02" fill="#8C5045" d="M563.5,33.1c-1.3-2.1-2.9-2.8-4.8-1.9c-1.9,0.8-2.6,2.1-2.3,3.9
				c0.3,1.8,1.1,3.1,2.5,4c1.4,0.9,2.8,0.6,4.3-0.7C564.7,37,564.8,35.2,563.5,33.1z"/>
			<path opacity="8.000000e-02" fill="#8C5045" d="M552.6,19.4c1.7-1.1,2.2-2.5,1.7-4.3c-0.6-1.7-1.6-2.9-3.1-3.5
				c-1.5-0.6-2.9-0.1-4.1,1.5c-1.2,1.6-1,3.3,0.6,5.2C549.2,20.1,550.9,20.5,552.6,19.4z"/>
			<path opacity="8.000000e-02" fill="#8C5045" d="M564.3,21.9c-0.6-1.4-1.5-2-2.8-1.9c-1.3,0.2-2.4,0.6-3.5,1.4
				c-1.1,0.8-3.5,2-7.1,3.7c-3.6,1.7-6,2.8-7.2,3.5c-1.2,0.6-1.5,1.5-0.9,2.7c0.6,1.2,1.4,1.8,2.6,2c1.1,0.2,2.6-0.2,4.3-1
				c1.7-0.8,4.8-2.4,9.1-4.7C563,25.1,564.9,23.3,564.3,21.9z"/>
		</g>
		<path opacity="8.000000e-02" fill="#8C5045" d="M570.8,98.1c-0.5,0.4-1.4,0.4-2.7-0.1c-1.3-0.5-2-0.5-2.2-0.1
			c-0.2,0.5-0.5,1.2-0.9,2.2c-0.4,1-0.9,1.3-1.7,1c-0.8-0.4-1.1-0.8-0.8-1.4c0.2-0.6,0.4-1.3,0.6-2.1c0.2-0.9-0.5-1.5-2.1-2
			c-1.6-0.5-2.1-1.2-1.6-2c0.5-0.8,1.5-1,2.8-0.6c1.4,0.4,2.2,0.3,2.4-0.4c0.3-0.7,0.6-1.4,0.9-2.1c0.4-0.7,0.9-1,1.6-0.8
			c0.7,0.2,0.9,0.7,0.8,1.4c-0.1,0.8-0.3,1.6-0.6,2.4c-0.3,0.8,0.1,1.3,1.1,1.6c1.1,0.3,1.8,0.7,2.3,1.4
			C571.3,97.1,571.3,97.7,570.8,98.1z"/>
		<path opacity="8.000000e-02" fill="#8C5045" d="M397,16.6c-0.6,0.5-1.6,0.4-3.1-0.2c-1.5-0.6-2.4-0.6-2.6-0.1
			c-0.2,0.6-0.6,1.4-1,2.6c-0.4,1.2-1.1,1.5-2,1.1c-0.9-0.4-1.2-0.9-1-1.6c0.3-0.7,0.5-1.5,0.7-2.5c0.2-1-0.6-1.8-2.4-2.4
			c-1.8-0.6-2.4-1.4-1.8-2.3c0.6-1,1.7-1.2,3.3-0.7c1.6,0.5,2.6,0.4,2.9-0.4c0.3-0.8,0.7-1.6,1.1-2.5c0.4-0.9,1.1-1.2,1.8-1
			c0.8,0.2,1.1,0.8,1,1.7c-0.1,0.9-0.4,1.8-0.7,2.8c-0.4,1,0.1,1.6,1.3,1.9c1.3,0.3,2.2,0.8,2.7,1.6C397.6,15.4,397.6,16.1,397,16.6
			z"/>
		<path opacity="8.000000e-02" fill="#8C5045" d="M514.9,31.2c-0.5-0.6-0.8-1.3-1.1-2c-0.2-0.7,0-1.3,0.7-1.6
			c0.7-0.4,1.8,0.7,3.4,3.1c1.6,2.4,2.7,4.2,3.3,5.1c0.6,1,0.9,1.8,0.9,2.5c0,0.7-0.2,1.1-0.8,1.5c-0.5,0.3-1,0.2-1.5-0.5
			c-0.4-0.7-1.3-2-2.5-4.1C516.3,33.2,515.4,31.9,514.9,31.2z M515.7,40.5c0.5,0.6,0.9,1.3,1.1,2c0.2,0.7,0,1.2-0.7,1.5
			c-0.7,0.3-1.9-0.7-3.5-3.2c-1.7-2.4-2.8-4.1-3.4-5.1c-0.6-1-0.9-1.8-1-2.4c0-0.6,0.2-1.1,0.8-1.4c0.6-0.3,1.1-0.1,1.5,0.6
			c0.5,0.7,1.3,2,2.5,4C514.3,38.5,515.2,39.8,515.7,40.5z"/>
		<path opacity="8.000000e-02" fill="#8C5045" d="M566,70.8c0.4-1.3,1.1-2.4,2.1-3.2c0.9-0.9,2.1-0.9,3.4-0.1
			c1.3,0.8,0.9,3.4-1.3,7.9c-2.2,4.5-3.7,7.6-4.7,9.3c-0.9,1.7-1.9,2.8-3,3.4c-1,0.5-2.1,0.5-3.3-0.1c-1.2-0.6-1.4-1.5-0.8-2.8
			c0.6-1.2,1.9-3.6,3.9-7.1C564.4,74.5,565.6,72.1,566,70.8z"/>
		<path opacity="8.000000e-02" fill="#8C5045" d="M28.3,316.7c-0.3-2.9-0.7-4.8-1.1-5.6c-0.4-0.8,0.1-1.8,1.5-3
			c1.4-1.1,2.1-2.7,2.2-4.6s-0.5-3.5-1.7-4.8c-1.3-1.3-3.3-2-6-2s-4.2,1-4.4,3.1c-0.2,2.1,0.5,3.2,1.9,3.3c1.4,0.1,2.4,0.6,3.1,1.4
			c0.6,0.8,0.2,1.5-1.3,2c-1.5,0.5-2.7,1.1-3.7,1.7c-1,0.6-1.3,1.4-0.8,2.3c0.5,1,1.4,2.1,2.7,3.6c1.3,1.4,1.6,2.6,0.9,3.5
			c-0.7,0.9-1.7,0.7-3.1-0.6c-1.4-1.3-2.9-2.3-4.5-3c-1.6-0.7-2.8-0.5-3.6,0.6c-0.8,1.1-0.5,2.6,1.1,4.3c1.6,1.7,3.5,3.2,5.7,4.3
			c2.2,1.1,4.2,1.7,5.9,1.6c1.7-0.1,3.1-0.7,4.1-2C28.3,321.6,28.6,319.6,28.3,316.7z"/>
		<path opacity="8.000000e-02" fill="#8C5045" d="M32.2,98.6c1.3-0.3,2.5-1,3.4-2.2s1.3-2.6,1.2-4c-0.1-1.5-0.9-2.7-2.3-3.7
			c-1.4-1-2.9-1.6-4.5-1.7c-1.5-0.1-2.9,0-4,0.5c-1.1,0.4-2,1.1-2.7,1.8c-0.7,0.8-1.2,1.9-1.4,3.4c-0.2,1.5,0.4,2.8,2,4
			c1.5,1.2,3,1.9,4.3,2.1C29.5,98.9,30.8,98.8,32.2,98.6z M25.9,95.1c-0.7-0.7-1-1.7-0.7-2.8c0.3-1.1,0.8-1.8,1.6-2.2
			c0.8-0.4,1.6-0.5,2.5-0.4c0.9,0.1,1.9,0.5,2.8,1.1c0.9,0.7,1.4,1.4,1.4,2.2c0,0.8-0.1,1.4-0.4,1.8c-0.3,0.4-0.9,0.8-1.8,1.1
			c-0.9,0.3-1.9,0.4-2.9,0.4C27.5,96.2,26.6,95.8,25.9,95.1z"/>
		<path opacity="8.000000e-02" fill="#8C5045" d="M56,50.5c0.8,0.2,1.2,0.7,1.1,1.4c-0.1,0.7-0.9,1.5-2.5,2.4
			c-1.6,0.9-1.7,1.6-0.3,2.1c1.4,0.5,1.9,1.3,1.4,2.5c-0.4,1.2-1.3,1.3-2.6,0.4c-1.3-0.9-1.8-0.7-1.5,0.7c0.3,1.4,0.3,2.3,0,3
			c-0.3,0.6-0.8,0.8-1.6,0.6c-0.8-0.2-1.2-0.6-1.3-1.2c-0.1-0.6-0.2-1.7-0.2-3.2c0-1.5-0.8-1.6-2.2-0.2c-1.5,1.4-2.6,1.8-3.3,1.4
			c-0.8-0.5-0.9-1.1-0.5-1.8c0.4-0.7,1.1-1.4,2.1-1.9c0.9-0.5,0.7-1-0.6-1.6c-1.3-0.6-1.8-1.2-1.5-1.9c0.3-0.7,0.8-1.1,1.5-1
			c0.7,0,1.4,0.2,2.2,0.6c0.8,0.3,1,0,0.8-1.1c-0.2-1.1-0.2-2.1,0.2-3c0.3-0.9,0.9-1.3,1.6-1.2c0.7,0.2,1.1,0.6,1.3,1.4
			c0.1,0.8,0.2,1.5,0.1,2.1c-0.1,0.6-0.1,1.3,0,2c0.1,0.7,0.5,0.8,1.2,0.4c0.7-0.5,1.5-1.1,2.4-1.8C54.3,50.5,55.2,50.3,56,50.5z"/>
		<g>
			<path opacity="8.000000e-02" fill="#8C5045" d="M69.3,50c-0.6-2.4-1.9-3.5-3.9-3.3c-2,0.2-3.2,1.2-3.4,3
				c-0.3,1.8,0.1,3.3,1.1,4.6c1,1.3,2.5,1.5,4.3,0.7C69.3,54,69.9,52.4,69.3,50z"/>
			<path opacity="8.000000e-02" fill="#8C5045" d="M63.2,33.5c2-0.5,2.9-1.7,2.9-3.5c0-1.8-0.7-3.2-1.9-4.3c-1.2-1.1-2.7-1-4.4,0.1
				c-1.7,1.1-2,2.8-1,5.1C59.7,33.2,61.2,34,63.2,33.5z"/>
			<path opacity="8.000000e-02" fill="#8C5045" d="M73.6,39.5c-0.1-1.5-0.8-2.4-2.1-2.6c-1.3-0.2-2.5-0.2-3.8,0.2
				c-1.3,0.4-3.9,0.8-7.9,1.3c-4,0.5-6.6,0.8-8,1c-1.3,0.2-1.9,1-1.7,2.2c0.2,1.3,0.8,2.2,1.8,2.7c1,0.5,2.5,0.6,4.4,0.4
				c1.9-0.2,5.3-0.8,10.1-1.7C71.3,42.2,73.7,41,73.6,39.5z"/>
		</g>
		<path opacity="8.000000e-02" fill="#8C5045" d="M14.7,115.7c0.6-0.5,1.3-0.8,2-1.1c0.7-0.2,1.3,0,1.6,0.7c0.4,0.7-0.7,1.8-3.1,3.4
			c-2.4,1.6-4.2,2.7-5.1,3.3c-1,0.6-1.8,0.9-2.5,0.9c-0.7,0-1.1-0.2-1.5-0.8c-0.3-0.5-0.2-1,0.5-1.5c0.7-0.4,2-1.3,4.1-2.5
			C12.7,117,14.1,116.2,14.7,115.7z M5.5,116.5c-0.6,0.5-1.3,0.9-2,1.1c-0.7,0.2-1.2,0-1.5-0.7c-0.3-0.7,0.7-1.9,3.2-3.5
			c2.4-1.7,4.1-2.8,5.1-3.4c1-0.6,1.8-0.9,2.4-1c0.6,0,1.1,0.2,1.4,0.8c0.3,0.6,0.1,1.1-0.6,1.5c-0.7,0.5-2,1.3-4,2.5
			C7.4,115.1,6.1,116,5.5,116.5z"/>
		<path opacity="8.000000e-02" fill="#8C5045" d="M30.1,171c0.4-1.3,1.1-2.4,2.1-3.2c0.9-0.9,2.1-0.9,3.4-0.1
			c1.3,0.8,0.9,3.4-1.3,7.9c-2.2,4.5-3.7,7.6-4.7,9.3c-0.9,1.7-1.9,2.8-3,3.4c-1,0.5-2.1,0.5-3.3-0.1c-1.2-0.6-1.4-1.5-0.8-2.8
			c0.6-1.2,1.9-3.6,3.9-7.1C28.5,174.7,29.7,172.3,30.1,171z"/>
		<path opacity="8.000000e-02" fill="#8C5045" d="M53.4,758.5c0.4-1.3,1.1-2.4,2.1-3.2c0.9-0.9,2.1-0.9,3.4-0.1
			c1.3,0.8,0.9,3.4-1.3,7.9c-2.2,4.5-3.7,7.6-4.7,9.3c-0.9,1.7-1.9,2.8-3,3.4c-1,0.5-2.1,0.5-3.3-0.1c-1.2-0.6-1.4-1.5-0.8-2.8
			c0.6-1.2,1.9-3.6,3.9-7.1C51.8,762.2,53,759.8,53.4,758.5z"/>
		<path opacity="8.000000e-02" fill="#8C5045" d="M235.9,511.8c-1.7-2.1-3.3-2.8-4.6-2.1c-1.3,0.7-3.1,4.1-5.3,10.2
			c-2.2,6.1-2.6,10.1-1,12c1.6,1.9,2.9,2,4.1,0.5c1.2-1.5,2.1-3.4,2.6-5.5c0.5-2.2,1.5-2.7,2.9-1.5c1.4,1.2,2.7,3.6,3.9,7.1
			c1.2,3.5,2.4,5.8,3.7,6.7c1.3,0.9,2.5,1.2,3.7,0.9c1.2-0.3,2-1,2.5-2c0.5-1,0.3-2.1-0.3-3.5s-2.5-5-5.3-10.9
			C239.9,517.9,237.6,513.9,235.9,511.8z"/>
		<path opacity="8.000000e-02" fill="#8C5045" d="M13.3,386.6c-1.7-2.1-3.3-2.8-4.6-2.1s-3.1,4.1-5.3,10.2c-2.2,6.1-2.6,10.1-1,12
			c1.6,1.9,2.9,2,4.1,0.5c1.2-1.5,2.1-3.4,2.6-5.5c0.5-2.2,1.5-2.7,2.9-1.5c1.4,1.2,2.7,3.6,3.9,7.1c1.2,3.5,2.4,5.8,3.7,6.7
			c1.3,0.9,2.5,1.2,3.7,0.9c1.2-0.3,2-1,2.5-2c0.5-1,0.3-2.1-0.3-3.5c-0.7-1.3-2.5-5-5.3-10.9C17.3,392.7,15,388.7,13.3,386.6z"/>
		<path opacity="8.000000e-02" fill="#8C5045" d="M38.7,553c2.1-3.7,3.7-7.2,4.8-10.5c1.1-3.3,1.4-5.4,0.8-6.4c-0.6-1-1.3-1.4-2-1.3
			c-0.8,0.1-2,1.7-3.7,4.7c-1.7,3-2.9,4.3-3.8,3.9c-0.9-0.4-1.4-1-1.6-1.8s0.5-2.7,2.3-5.7c1.8-3,2.5-4.9,2.1-5.8
			c-0.4-0.9-0.9-1.5-1.5-1.8c-0.6-0.3-1.3-0.4-2-0.2c-0.7,0.2-1.7,1.6-2.8,4.2c-1.2,2.7-2.5,5.1-3.8,7.4c-1.4,2.3-1.5,4-0.2,5.2
			c1.2,1.2,2.6,2.3,4,3.2c1.4,0.9,2.3,1.6,2.7,2.1c0.4,0.5,0.2,1.5-0.5,3.1c-0.7,1.6-0.9,2.7-0.6,3.3c0.3,0.6,0.8,1.1,1.6,1.4
			S36.6,556.7,38.7,553z"/>
		<path opacity="8.000000e-02" fill="#8C5045" d="M47,597.7c-0.1-1.1-1.9-3.2-5.3-6c-3.4-2.9-6-3.4-7.7-1.4c-1.8,2-3.1,3.6-4.1,4.9
			c-1,1.3-1.5,2.5-1.5,3.5c0,1,1.1,2.2,3.4,3.5c2.2,1.3,2.9,2.6,2.1,3.9s-1.7,1.7-2.4,1.3c-0.8-0.4-1.5-1.3-2.3-2.6
			c-0.8-1.4-1.4-2.2-1.9-2.6c-0.5-0.4-1.1-0.3-2,0.2c-0.8,0.5-1.3,1.2-1.6,2.1c-0.2,0.8,0.8,2.4,3.2,4.7s4.1,3.5,5.2,3.6
			c1.1,0.1,2.3-0.5,3.7-1.8c1.3-1.2,2.2-2.8,2.5-4.6c0.4-1.8,0.3-3.3-0.1-4.5c-0.4-1.2-1-2.2-1.9-3s-0.9-1.8-0.1-2.8
			s1.8-0.9,2.9,0.2c1.1,1.1,2,2.2,2.7,3.2c0.8,1,1.5,1.7,2.2,2.2c0.7,0.5,1.4,0.2,2.1-0.7C46.8,599.8,47.1,598.8,47,597.7z"/>
		<path opacity="8.000000e-02" fill="#8C5045" d="M255.6,121.5c1.1-5.3-0.4-10.5-4.4-15.7c-4-5.2-9.4-7.3-16.1-6.4
			c-6.8,0.9-11.2,4.2-13.2,9.8c-2,5.6-1.1,10.2,2.7,13.7c3.9,3.5,7.9,5.6,12.2,6.2c4.3,0.6,5.9,2.2,4.9,4.8c-1,2.6-1.7,4.3-2.2,5.2
			c-0.5,0.9-2.5,1.2-5.9,0.9c-3.5-0.3-6.1-1.5-8-3.4c-1.9-1.9-4.2-3.1-6.9-3.6c-2.7-0.4-4.5,0.3-5.3,2.4c-0.8,2-0.5,4.1,1,6.3
			c1.4,2.2,4.4,4.4,9,6.8c4.5,2.4,9.4,3.3,14.6,2.8c5.2-0.5,9.1-4.3,11.9-11.3C252.6,132.9,254.5,126.8,255.6,121.5z M236.8,120
			c-4-1.8-5.1-4.6-3.4-8.4c1.7-3.8,4.2-4.8,7.6-3c3.3,1.8,4.5,4.6,3.4,8.4C243.3,120.7,240.7,121.7,236.8,120z"/>
		<path opacity="8.000000e-02" fill="#8C5045" d="M56.5,628.7c-0.5-3.4-2.2-6.4-5.1-9c-2.9-2.6-6.2-3.9-10-3.9c-3.7,0-7,1.7-9.8,5.2
			c-2.8,3.5-4.5,7.2-5.1,11.1c-0.6,3.9-0.4,7.3,0.5,10.2c0.9,2.9,2.3,5.3,4.1,7.2c1.8,1.9,4.6,3.3,8.4,4.1c3.7,0.8,7.3-0.6,10.6-4.2
			c3.3-3.6,5.3-7.2,6-10.5C56.8,635.6,56.9,632.2,56.5,628.7z M46.5,644c-2,1.7-4.4,2.1-7.1,1.2c-2.7-0.9-4.5-2.4-5.3-4.4
			c-0.8-2-1-4.1-0.6-6.5c0.4-2.4,1.5-4.7,3.3-6.9c1.9-2.2,3.8-3.3,5.9-3.2c2.1,0.1,3.6,0.5,4.6,1.4c1,0.8,1.8,2.4,2.4,4.8
			c0.6,2.4,0.8,4.8,0.4,7.3C49.7,640.1,48.5,642.3,46.5,644z"/>
		<path opacity="8.000000e-02" fill="#8C5045" d="M49.8,465.3c-0.4,1.3-1.9,2.2-4.7,2.7c-2.7,0.5-4,1.3-3.8,2.3
			c0.2,1,0.5,2.6,0.9,4.7c0.5,2.1-0.2,3.2-1.9,3.5c-1.7,0.3-2.7-0.2-2.9-1.4c-0.2-1.2-0.6-2.6-1.3-4.2c-0.6-1.6-2.5-2-5.7-1.2
			c-3.1,0.9-4.7,0.3-4.8-1.6c0-1.9,1.3-3.3,4.1-4c2.8-0.7,4-1.8,3.7-3.2c-0.3-1.4-0.6-3-0.7-4.6c-0.2-1.6,0.4-2.7,1.7-3.1
			c1.3-0.4,2.3,0.1,3,1.5c0.7,1.4,1.2,3,1.5,4.7c0.4,1.7,1.6,2.2,3.7,1.4c2.1-0.8,3.9-0.8,5.4-0.1C49.6,463.1,50.1,464,49.8,465.3z"
			/>
		<path opacity="8.000000e-02" fill="#8C5045" d="M10.7,351.8c-1.3-0.4-2.4-1-3.4-1.8c-1-0.8-1.2-1.8-0.6-2.9
			c0.6-1.1,3.2-0.8,7.7,1.1c4.6,1.9,7.7,3.2,9.5,4c1.8,0.8,3,1.6,3.7,2.5c0.7,0.9,0.8,1.8,0.4,2.8c-0.4,1-1.3,1.2-2.5,0.7
			c-1.3-0.5-3.7-1.6-7.4-3.3C14.4,353.2,12,352.2,10.7,351.8z M20.6,363.9c1.3,0.4,2.4,0.9,3.4,1.7c1,0.8,1.1,1.7,0.5,2.8
			c-0.7,1.1-3.3,0.8-7.9-1c-4.6-1.8-7.8-3.1-9.6-3.8c-1.8-0.8-3-1.6-3.6-2.4c-0.6-0.9-0.7-1.8-0.2-2.7c0.5-1,1.4-1.2,2.6-0.7
			c1.3,0.5,3.7,1.6,7.4,3.2C16.8,362.5,19.3,363.5,20.6,363.9z"/>
		<path opacity="8.000000e-02" fill="#8C5045" d="M154.2,743.2c0.4-1.3,1.1-2.4,2.1-3.2c0.9-0.9,2.1-0.9,3.4-0.1
			c1.3,0.8,0.9,3.4-1.3,7.9c-2.2,4.5-3.7,7.6-4.7,9.3c-0.9,1.7-1.9,2.8-3,3.4c-1,0.5-2.1,0.5-3.3-0.1c-1.2-0.6-1.4-1.5-0.8-2.8
			c0.6-1.2,1.9-3.6,3.9-7.1C152.6,746.8,153.8,744.4,154.2,743.2z"/>
		<path opacity="8.000000e-02" fill="#8C5045" d="M350.8,761.5c0.4-1.3,1.1-2.4,2.1-3.2c0.9-0.9,2.1-0.9,3.4-0.1
			c1.3,0.8,0.9,3.4-1.3,7.9c-2.2,4.5-3.7,7.6-4.7,9.3c-0.9,1.7-1.9,2.8-3,3.4c-1,0.5-2.1,0.5-3.3-0.1c-1.2-0.6-1.4-1.5-0.8-2.8
			c0.6-1.2,1.9-3.6,3.9-7.1C349.2,765.1,350.4,762.7,350.8,761.5z"/>
		<path opacity="8.000000e-02" fill="#8C5045" d="M78.3,5.3c-0.8-2.6-2-3.8-3.4-3.7s-4.4,2.6-8.8,7.4c-4.4,4.8-6.2,8.4-5.5,10.7
			c0.7,2.3,1.9,3,3.6,2.1c1.7-0.9,3.2-2.3,4.5-4.1c1.3-1.8,2.4-1.9,3.2-0.2c0.8,1.6,1.1,4.3,0.9,8c-0.3,3.7,0.1,6.2,0.9,7.6
			c0.9,1.3,1.9,2.1,3.1,2.2c1.2,0.1,2.2-0.2,3-0.9c0.8-0.7,1.1-1.8,1-3.4s-0.4-5.5-0.8-12.1C79.8,12.5,79.2,7.9,78.3,5.3z"/>
		<path opacity="8.000000e-02" fill="#8C5045" d="M83,7c1.4-0.1,3,0,5,0.2c2,0.2,2.7,0.8,2,1.6c-0.7,0.9-1.4,2.1-2.2,3.8
			s-1.4,3.2-1.6,4.8c-0.2,1.5-0.1,3.2,0.5,5.1s1.7,2.9,3.6,3.2c1.8,0.3,3.4,0.1,4.8-0.5c1.3-0.6,2.2-1.7,2.6-3.3
			c0.4-1.6-0.1-2.7-1.3-3.3c-1.2-0.6-2.1-0.5-2.6,0.3c-0.5,0.8-1.1,1.2-1.8,1.3c-0.7,0.1-1.1-0.3-1.2-1.2c-0.1-0.9,0.5-2.7,1.8-5.5
			c1.3-2.7,2.7-4.4,4-5c1.3-0.6,1.9-1.8,1.8-3.6c-0.1-1.8-1.2-2.7-3-2.6c-1.9,0.1-4.5-0.1-7.9-0.5s-5.3,0.4-5.7,2.3
			C81.1,6.1,81.6,7,83,7z"/>
		<path opacity="8.000000e-02" fill="#8C5045" d="M174,399.4c0-1.1-1.5-3.4-4.5-6.6c-3-3.3-5.5-4-7.5-2.3c-2,1.7-3.5,3.2-4.7,4.4
			c-1.2,1.2-1.8,2.3-1.9,3.3c-0.1,1,0.9,2.3,2.9,3.8c2.1,1.6,2.6,2.9,1.6,4.1c-1,1.2-1.8,1.5-2.5,1c-0.7-0.5-1.4-1.4-2-2.9
			c-0.6-1.4-1.1-2.4-1.6-2.8c-0.4-0.5-1.1-0.5-2,0c-0.9,0.4-1.5,1.1-1.8,1.9c-0.3,0.8,0.5,2.5,2.6,5.1c2.1,2.6,3.6,4,4.8,4.2
			c1.1,0.2,2.4-0.2,3.8-1.3c1.5-1.1,2.5-2.5,3.1-4.2c0.6-1.8,0.7-3.2,0.5-4.4c-0.3-1.2-0.8-2.3-1.5-3.3s-0.7-1.9,0.3-2.8
			c0.9-0.9,1.9-0.7,2.8,0.5c0.9,1.2,1.7,2.4,2.3,3.5c0.6,1.1,1.3,1.9,1.9,2.4c0.6,0.6,1.4,0.4,2.2-0.4
			C173.6,401.5,174,400.5,174,399.4z"/>
		<path opacity="8.000000e-02" fill="#8C5045" d="M317.9,380.3c-2.6-1.3-4.9-1.7-7-1.3c-2.1,0.4-3.4-0.2-3.9-2
			c-0.6-1.7-1.8-3.5-3.8-5.3c-2-1.8-4.7-1.9-7.9-0.1c-3.3,1.8-5.3,4.1-6.1,6.9c-0.8,2.8-0.1,5.3,2.2,7.4s4.3,3.4,6.3,3.6
			c1.9,0.3,2.9,1.3,3,3.2c0.1,1.9,1.4,4.1,3.9,6.6c2.5,2.5,5.7,2.8,9.6,0.8c3.9-2,6.4-4.2,7.6-6.7c1.2-2.5,1.5-5,0.9-7.5
			C322,383.4,320.5,381.5,317.9,380.3z M296.2,382.3c-2-1.7-2.1-3.4-0.4-5.2c1.8-1.7,3.6-1.5,5.4,0.6c1.9,2.1,2,3.8,0.4,5.2
			C300,384.2,298.2,384,296.2,382.3z M314.2,392.8c-2,1.4-3.8,1.5-5.4,0.4c-1.5-1.1-2.1-2.6-1.8-4.3c0.4-1.8,1.6-3,3.6-3.6
			c2.1-0.6,3.7,0.1,4.8,2.2C316.7,389.6,316.3,391.3,314.2,392.8z"/>
		<path opacity="8.000000e-02" fill="#8C5045" d="M583.6,283.6c1.1,0.3,1.6,0.9,1.5,1.9c-0.1,1-1.3,2.1-3.5,3.4
			c-2.2,1.3-2.3,2.3-0.4,2.9c1.9,0.7,2.6,1.8,2,3.4c-0.6,1.6-1.8,1.8-3.6,0.5c-1.8-1.3-2.5-0.9-2.1,1c0.4,1.9,0.4,3.3,0,4.1
			c-0.4,0.8-1.1,1.1-2.2,0.8c-1-0.3-1.7-0.9-1.8-1.7c-0.2-0.9-0.3-2.3-0.3-4.4c0-2.1-1.1-2.2-3.1-0.3c-2,1.9-3.6,2.5-4.7,1.9
			c-1.1-0.6-1.3-1.5-0.7-2.5c0.6-1,1.6-1.9,2.9-2.6c1.3-0.7,1-1.5-0.8-2.3c-1.8-0.8-2.5-1.7-2.1-2.7c0.4-1,1.2-1.5,2.1-1.4
			c1,0,2,0.3,3.1,0.8c1.1,0.5,1.4,0,1.1-1.5c-0.3-1.5-0.3-2.9,0.2-4.2c0.5-1.3,1.2-1.9,2.2-1.6c1,0.2,1.6,0.9,1.8,2
			c0.2,1.1,0.2,2.1,0.1,3c-0.1,0.9-0.1,1.8,0,2.8c0.1,1,0.7,1.2,1.7,0.6c1-0.6,2.1-1.5,3.3-2.6C581.3,283.7,582.5,283.3,583.6,283.6
			z"/>
		<g>
			<path opacity="8.000000e-02" fill="#8C5045" d="M584.8,237.2c-1.3-2.1-2.9-2.8-4.8-1.9c-1.9,0.8-2.6,2.1-2.3,3.9
				c0.3,1.8,1.1,3.1,2.5,4c1.4,0.9,2.8,0.6,4.3-0.7C586,241,586.1,239.3,584.8,237.2z"/>
			<path opacity="8.000000e-02" fill="#8C5045" d="M573.9,223.4c1.7-1.1,2.2-2.5,1.7-4.3c-0.6-1.7-1.6-2.9-3.1-3.5
				c-1.5-0.6-2.9-0.1-4.1,1.5c-1.2,1.6-1,3.3,0.6,5.2C570.5,224.2,572.2,224.6,573.9,223.4z"/>
			<path opacity="8.000000e-02" fill="#8C5045" d="M585.6,225.9c-0.6-1.4-1.5-2-2.8-1.9c-1.3,0.2-2.4,0.6-3.5,1.4
				c-1.1,0.8-3.5,2-7.1,3.7c-3.6,1.7-6,2.8-7.2,3.5c-1.2,0.6-1.5,1.5-0.9,2.7c0.6,1.2,1.4,1.8,2.6,2c1.1,0.2,2.6-0.2,4.3-1
				c1.7-0.8,4.8-2.4,9.1-4.7C584.3,229.2,586.2,227.3,585.6,225.9z"/>
		</g>
		<path opacity="8.000000e-02" fill="#8C5045" d="M572.3,268.8c-0.4,1.3-1.9,2.2-4.7,2.7c-2.7,0.5-4,1.3-3.8,2.3
			c0.2,1,0.5,2.6,0.9,4.7c0.5,2.1-0.2,3.2-1.9,3.5c-1.7,0.3-2.7-0.2-2.9-1.4c-0.2-1.2-0.6-2.6-1.3-4.2c-0.6-1.6-2.5-2-5.7-1.2
			c-3.1,0.9-4.7,0.3-4.8-1.6c0-1.9,1.3-3.3,4.1-4c2.8-0.7,4-1.8,3.7-3.2c-0.3-1.4-0.6-3-0.7-4.6c-0.2-1.6,0.4-2.7,1.7-3.1
			c1.3-0.4,2.3,0.1,3,1.5c0.7,1.4,1.2,3,1.5,4.7c0.4,1.7,1.6,2.2,3.7,1.4c2.1-0.8,3.9-0.8,5.4-0.1
			C572.2,266.6,572.7,267.5,572.3,268.8z"/>
		<path opacity="8.000000e-02" fill="#8C5045" d="M574.7,417.6c-0.2,0.6-1,1.1-2.3,1.3c-1.4,0.3-2,0.6-1.9,1.2
			c0.1,0.5,0.2,1.3,0.5,2.3c0.2,1-0.1,1.6-0.9,1.7c-0.8,0.1-1.3-0.1-1.4-0.7c-0.1-0.6-0.3-1.3-0.6-2.1c-0.3-0.8-1.3-1-2.8-0.6
			c-1.6,0.4-2.4,0.2-2.4-0.8c0-1,0.7-1.6,2.1-2c1.4-0.4,2-0.9,1.8-1.6c-0.2-0.7-0.3-1.5-0.4-2.3c-0.1-0.8,0.2-1.3,0.9-1.6
			c0.7-0.2,1.1,0,1.5,0.7c0.3,0.7,0.6,1.5,0.8,2.3c0.2,0.9,0.8,1.1,1.8,0.7c1-0.4,1.9-0.4,2.7-0.1
			C574.6,416.5,574.9,417,574.7,417.6z"/>
		<path opacity="8.000000e-02" fill="#8C5045" d="M564.9,332.4c-1.3,0.4-2.5,0.6-3.8,0.5c-1.3-0.1-2-0.8-2.1-2
			c-0.2-1.3,2.2-2.4,7-3.5c4.8-1.1,8.2-1.8,10.1-2.2c1.9-0.4,3.4-0.4,4.4,0c1,0.4,1.7,1,1.9,2.1c0.2,1-0.4,1.7-1.7,2
			c-1.3,0.3-4,0.8-7.9,1.5C568.7,331.4,566.1,331.9,564.9,332.4z M579.9,336.6c1.3-0.4,2.5-0.6,3.8-0.5c1.2,0.1,1.9,0.8,2,2.1
			c0.1,1.3-2.3,2.5-7.1,3.7c-4.8,1.2-8.2,1.9-10.1,2.3c-1.9,0.4-3.4,0.4-4.4,0.1c-1-0.3-1.6-1-1.7-2.1c-0.1-1.1,0.5-1.7,1.8-2.1
			c1.3-0.3,4-0.8,7.9-1.6C576,337.7,578.6,337.1,579.9,336.6z"/>
		<path opacity="8.000000e-02" fill="#8C5045" d="M588,442.2c-1.8-0.9-3.1-1.4-3.9-1.5c-0.9-0.1-1.5-1.1-1.7-2.9
			c-0.2-1.8-1-3.3-2.6-4.4c-1.5-1.2-3.2-1.6-5-1.3c-1.8,0.3-3.5,1.6-5,3.9s-1.5,4,0.1,5.3c1.6,1.3,2.9,1.4,3.8,0.3
			c0.9-1.1,1.9-1.7,2.9-1.8c1-0.1,1.3,0.7,1,2.2c-0.4,1.5-0.6,2.9-0.7,4.1c-0.1,1.2,0.4,1.8,1.5,1.9c1.1,0.1,2.6,0,4.5-0.3
			c1.9-0.3,3,0.1,3.4,1.2c0.4,1-0.3,1.8-2.2,2.2c-1.9,0.4-3.5,1.1-5,2c-1.4,0.9-1.9,2-1.5,3.4c0.5,1.3,1.8,1.8,4.2,1.5
			c2.1-0.3,4.1-1,6.1-2V442.2z"/>
		<path opacity="8.000000e-02" fill="#8C5045" d="M588,418.5c-1.9,0.8-3.3,0.1-4-2.2c-0.8-2.3-0.3-3.7,1.3-4.2
			c1-0.3,1.9-0.2,2.7,0.4v-14.8c-1.3-2.4-3.6-3.5-7.1-3.2c-3.7,0.3-6.4,1.3-8.1,2.9c-1.7,1.6-2.8,3.5-3.1,5.6
			c-0.4,2.1,0.3,4.1,1.9,5.9c1.6,1.8,3.3,2.9,5.1,3.2c1.7,0.3,2.6,1.3,2.5,2.8c-0.1,1.5,0.3,3.3,1.3,5.4c1,2.1,3.1,3,6.2,2.6
			c0.4,0,0.8-0.1,1.2-0.2V418.5z M582.9,405.7c-0.8,1.3-2.2,1.8-4,1.7c-1.8-0.2-2.9-1.3-3.1-3.3c-0.3-2,0.6-3.3,2.7-3.7
			c2.1-0.5,3.5,0,4.4,1.4C583.7,403.1,583.7,404.4,582.9,405.7z"/>
		<path opacity="8.000000e-02" fill="#8C5045" d="M588,368.9c-2.8-4-5.7-7.6-8.6-10.6c-3.6-3.7-6.2-5.5-7.9-5.4
			c-1.7,0.1-2.7,0.7-3,1.8c-0.4,1.1,0.9,3.8,3.7,8c2.8,4.2,3.7,6.8,2.6,7.6c-1.1,0.8-2.3,1.2-3.5,0.9c-1.3-0.2-3.2-2.5-5.9-6.9
			c-2.7-4.3-4.7-6.6-6.2-6.7s-2.6,0.2-3.4,0.8c-0.8,0.6-1.4,1.4-1.6,2.5s1,3.2,3.6,6.6s5,6.7,7.1,10c2,3.3,4.3,4.6,6.7,3.9
			c2.4-0.8,4.7-1.8,6.9-3s3.7-1.9,4.6-2.1c0.9-0.1,2.1,0.8,3.7,2.7c0.4,0.5,0.8,1,1.2,1.4V368.9z"/>
		<path opacity="8.000000e-02" fill="#8C5045" d="M588,353.9c-0.8,0.6-1.7,0.5-2.6-0.3c-0.9-0.9-0.8-1.8,0.4-2.8
			c0.8-0.6,1.5-1.2,2.2-1.7V343c-0.1,0-0.1,0-0.2,0c-1.1,0.1-3.3,1.7-6.4,4.9c-3.1,3.2-3.7,5.7-1.9,7.6c1.8,1.9,3.4,3.4,4.6,4.5
			c1.3,1.1,2.4,1.7,3.4,1.7c0.1,0,0.3,0,0.4,0V353.9z"/>
		<path opacity="8.000000e-02" fill="#8C5045" d="M588,303.9c-0.4-0.1-0.8-0.2-1.3-0.2c-2.6,0.1-4.8,0.2-6.4,0.4
			c-1.7,0.2-2.8,0.6-3.6,1.3c-0.7,0.7-0.8,2.3-0.2,4.8c0.6,2.5,0.1,3.9-1.4,4.2s-2.4,0-2.6-0.9c-0.2-0.8-0.1-2,0.3-3.5
			c0.5-1.5,0.7-2.5,0.6-3.2c0-0.6-0.5-1.1-1.5-1.3c-1-0.2-1.8-0.1-2.6,0.3c-0.8,0.4-1.2,2.2-1.3,5.5c-0.1,3.3,0.3,5.4,1,6.2
			c0.7,0.9,2,1.3,3.8,1.5c1.8,0.1,3.5-0.3,5.1-1.3c1.6-1,2.6-2,3.2-3.1c0.6-1.1,0.9-2.3,0.9-3.5c0-1.2,0.7-1.9,2-2s1.9,0.7,1.8,2.2
			c-0.1,1.5-0.2,2.9-0.4,4.2c-0.2,1.2-0.2,2.3-0.1,3.1c0.1,0.8,0.8,1.2,2,1.1c0.2,0,0.4-0.1,0.6-0.1V303.9z"/>
		<path opacity="8.000000e-02" fill="#8C5045" d="M588,266.2c-1.9,1.3-3.7,1.4-5.1,0.3c-1.5-1.1-2.1-2.6-1.8-4.3
			c0.4-1.8,1.6-3,3.6-3.6c1.3-0.4,2.4-0.2,3.3,0.4v-6.7c-1.1-0.2-2.2-0.2-3.1,0c-2.1,0.4-3.4-0.2-3.9-2c-0.6-1.7-1.8-3.5-3.8-5.3
			c-2-1.8-4.7-1.9-7.9-0.1c-3.3,1.8-5.3,4.1-6.1,6.9c-0.8,2.8-0.1,5.3,2.2,7.4c2.3,2.2,4.3,3.4,6.3,3.6c1.9,0.3,2.9,1.3,3,3.2
			c0.1,1.9,1.4,4.1,3.9,6.6c2.5,2.5,5.7,2.8,9.6,0.9V266.2z M575.6,256.1c-1.6,1.3-3.4,1.1-5.4-0.6c-2-1.7-2.1-3.4-0.4-5.2
			c1.8-1.7,3.6-1.5,5.4,0.6C577.1,253.1,577.2,254.8,575.6,256.1z"/>
		<path opacity="8.000000e-02" fill="#8C5045" d="M588,185.2c-0.5,0-1.1,0-1.7,0.1c-1.3,0.2-4,0.4-8.1,0.4c-4,0-6.8,0.1-8.1,0.1
			c-1.4,0.1-2,0.8-2,2.1c0,1.3,0.6,2.3,1.5,2.9c1,0.6,2.5,0.9,4.4,0.9c2,0,5.4-0.2,10.4-0.5c1.4-0.1,2.5-0.2,3.5-0.4V185.2z"/>
		<path opacity="8.000000e-02" fill="#8C5045" d="M588,201.4c-1.1,0-2.2,0.1-3.6,0.2c-6.6,0.7-11.7-0.3-15.5-3.1
			c-3.7-2.8-6.5-4.2-8.4-4.2c-1.9,0-3.5,0.8-4.8,2.3c-1.3,1.5-2.6,5.2-3.9,10.9c-1.3,5.7-1.6,9.9-0.8,12.6c0.8,2.6,2.6,4,5.4,4
			c2.9,0,4.4-1.9,4.7-5.6c0.2-3.8,0.4-6.4,0.4-7.9c0-1.5,0.2-2.5,0.7-3c0.5-0.5,1-0.5,1.6-0.1c0.6,0.5,2.9,1.3,7,2.4
			c4.1,1.1,9.1,1.2,15,0.2c0.9-0.1,1.6-0.3,2.4-0.5V201.4z"/>
		<path opacity="8.000000e-02" fill="#8C5045" d="M588,168c-0.2-0.1-0.5-0.1-0.8-0.2c-2.5-0.6-3.3-1.8-2.6-3.6
			c0.7-1.8,1.2-3.6,1.4-5.4c0.2-1.8-0.4-2.8-1.9-3.2c-1.5-0.4-2.7,0.2-3.6,1.9c-0.9,1.7-1.6,3.3-2.2,4.8c-0.6,1.6-2.4,1.8-5.5,0.8
			c-3.1-1-5.3-0.6-6.4,1.3c-1.2,1.9,0,3.4,3.5,4.5c3.5,1.1,5.1,2.7,4.7,4.6c-0.4,2-0.9,3.6-1.4,4.8c-0.5,1.3,0.1,2.3,1.9,3.1
			c1.8,0.8,3.1,0.1,3.9-2.2c0.8-2.2,1.5-3.9,2-5c0.5-1.1,2.2-1.1,5.1,0.1c0.7,0.3,1.3,0.5,1.8,0.6V168z"/>
		<path opacity="8.000000e-02" fill="#8C5045" d="M588,130.2c-1.6-2.2-3.4-3.8-5.3-5c-3-1.8-6.1-3-9.5-3.7
			c-3.4-0.7-6.8-0.1-10.2,1.8c-3.4,1.9-5.7,4.6-6.9,8.2c-1.2,3.5-0.7,7.2,1.7,11c2.4,3.8,5.3,6.6,8.8,8.4c3.5,1.8,6.8,2.8,9.8,2.8
			c3.1,0.1,5.8-0.4,8.2-1.5c1.2-0.5,2.3-1.4,3.4-2.4V130.2z M583.1,143.1c-1.8,2.3-3.7,3.5-5.9,3.6c-2.1,0.1-4.2-0.4-6.4-1.5
			c-2.1-1.1-3.9-2.9-5.4-5.4c-1.5-2.5-1.9-4.7-1.1-6.6c0.8-1.9,1.7-3.2,2.8-3.9c1.1-0.6,2.9-0.9,5.3-0.7c2.4,0.2,4.8,0.8,7,2
			c2.2,1.2,3.8,3,4.8,5.4C585.3,138.5,584.9,140.8,583.1,143.1z"/>
		<path opacity="8.000000e-02" fill="#8C5045" d="M588,105.3c-2-1.5-4-1.8-6.1-0.8c-2.2,1.1-3.9,2.5-4.9,4.3c-1,1.8-2,2.2-3,1.4
			s-1.6-1.5-1.9-1.9c-0.3-0.4-0.1-1.3,0.7-2.8c0.8-1.5,1.7-2.5,2.9-2.9c1.2-0.5,2.1-1.3,2.8-2.4c0.7-1.1,0.6-2-0.1-2.7
			c-0.8-0.7-1.7-0.9-3-0.7c-1.2,0.2-2.7,1.2-4.6,2.8c-1.8,1.6-3.1,3.6-3.8,6s0.3,4.8,2.9,7.2c2.7,2.4,5.1,4.4,7.2,5.8
			c2.1,1.4,4.7,1.7,7.7,0.8c1.2-0.4,2.2-0.9,3.1-1.6V105.3z M585.5,114.2c-1.4,1.2-2.8,1.2-4.3,0.1c-1.5-1.1-1.5-2.4,0-3.9
			c1.5-1.5,2.9-1.5,4.3-0.1C586.9,111.8,586.9,113.1,585.5,114.2z"/>
		<path opacity="8.000000e-02" fill="#8C5045" d="M588,87c-0.3,0.4-0.4,0.8-0.3,1.4c0.2,0.9,0.2,1.7-0.2,2.2c-0.4,0.6-1,0.6-1.7,0.1
			c-0.8-0.5-1.7-2.1-2.9-5c-1.2-2.8-1.6-4.9-1.1-6.3s-0.1-2.6-1.5-3.7c-1.5-1.1-2.8-0.9-4,0.6c-1.2,1.5-3,3.4-5.5,5.7
			c-2.5,2.3-3.2,4.2-1.9,5.8c1.2,1.6,2.3,1.8,3.1,0.8c0.8-1.1,2-2.3,3.5-3.7c1.5-1.4,2.3-1.5,2.5-0.5c0.2,1.1,0.7,2.4,1.4,4.2
			c0.7,1.7,1.6,3.2,2.6,4.4c1,1.2,2.4,2.2,4.1,3c0.8,0.3,1.5,0.5,2.2,0.5V87z"/>
		<path opacity="8.000000e-02" fill="#8C5045" d="M588,65.1c-1.3,0.3-2.6,0.4-4,0.1c-2.2-0.4-3.6-1.8-4.4-4.1
			c-0.8-2.3-0.7-4.2,0.2-5.8c0.9-1.5,2.2-2.8,4-3.8c1.3-0.7,2.7-1.1,4.3-1.3v-6.6c-2.4,0.3-4.5,1-6.5,2.2c-2.9,1.6-5,3.5-6.5,5.6
			c-1.4,2.1-2.3,4.3-2.6,6.5c-0.3,2.2,0.2,4.7,1.6,7.6c1.4,2.9,4.1,4.5,8.3,4.8c2.1,0.2,4,0.1,5.7-0.1V65.1z"/>
		<path opacity="8.000000e-02" fill="#8C5045" d="M588,12.5c-3.7-1.9-6.3-2.9-7.8-3.1c-1.6-0.2-2.6-1.9-2.9-5
			c-0.2-1.6-0.6-3.1-1.4-4.4h-19.5c-0.3,0.4-0.6,0.8-1,1.3c-2.7,3.9-2.7,7,0.2,9.3c2.9,2.2,5.1,2.4,6.6,0.5c1.6-1.9,3.2-3,5-3.1
			c1.8-0.1,2.3,1.2,1.7,3.8c-0.6,2.6-1,5-1.2,7.1c-0.1,2.1,0.7,3.2,2.6,3.4c1.9,0.2,4.5,0,7.8-0.5c3.3-0.5,5.3,0.2,5.9,2
			c0.7,1.8-0.6,3.1-3.8,3.9c-3.2,0.8-6.1,1.9-8.6,3.5c-2.5,1.6-3.4,3.6-2.6,5.9c0.8,2.3,3.2,3.2,7.2,2.6c4-0.6,7.9-1.9,11.7-4V12.5z
			"/>
		<path opacity="8.000000e-02" fill="#8C5045" d="M588,629.4c-3.7-3.5-5.6-7-5.9-10.6c-0.3-3.8-0.9-6.2-1.9-7.4s-2.3-1.7-4-1.7
			c-1.6,0-4.5,1.2-8.7,3.4c-4.2,2.2-6.9,4.3-8.1,6.1c-1.2,1.9-1,3.7,0.5,5.4c1.5,1.7,3.5,1.7,5.9-0.1c2.4-1.8,4.1-3.1,5-3.9
			c0.9-0.8,1.6-1.2,2.2-1.1c0.5,0,0.8,0.3,0.9,0.9c0,0.6,0.8,2.4,2.2,5.5c1.5,3.1,4.1,6.1,7.8,9.2c1.6,1.3,2.9,2.2,4.1,2.7V629.4z"
			/>
		<path opacity="8.000000e-02" fill="#8C5045" d="M588,579.6c-0.5-0.4-1.2-0.8-1.9-1.2c-2.4-1.3-4.2-1.1-5.3,0.7s-1,3.1,0.2,3.8
			c1.2,0.8,1.9,1.6,2.1,2.7c0.2,1-0.5,1.4-2,1.2s-2.9-0.2-4.1-0.2c-1.2,0.1-1.8,0.6-1.7,1.7c0,1.1,0.3,2.6,0.8,4.4
			c0.5,1.8,0.2,3-0.8,3.5c-1,0.5-1.8-0.1-2.5-1.9c-0.6-1.8-1.5-3.4-2.6-4.7c-1.1-1.3-2.3-1.7-3.5-1.1c-1.3,0.6-1.6,2-1,4.3
			c0.6,2.3,1.6,4.4,3.1,6.4c1.5,2,3,3.4,4.5,4.1c1.5,0.7,3.1,0.8,4.5,0.1c1.5-0.6,2.7-2.3,3.8-5c1-2.7,1.6-4.5,1.6-5.5
			c0-0.9,0.9-1.6,2.6-2c0.8-0.2,1.5-0.5,2.2-0.9V579.6z"/>
		<path opacity="8.000000e-02" fill="#8C5045" d="M588,561.7c-2.3-3.1-4.6-5.9-7-8.3c-3.6-3.7-6.2-5.5-7.9-5.4
			c-1.7,0.1-2.7,0.7-3,1.8c-0.4,1.1,0.9,3.8,3.7,8c2.8,4.2,3.7,6.8,2.6,7.6c-1.1,0.8-2.3,1.2-3.5,0.9c-1.3-0.2-3.2-2.5-5.9-6.9
			c-2.7-4.3-4.7-6.6-6.2-6.7c-1.5-0.1-2.6,0.2-3.4,0.8c-0.8,0.6-1.4,1.4-1.6,2.5c-0.3,1,1,3.2,3.6,6.6c2.7,3.3,5,6.7,7.1,10
			c2,3.3,4.3,4.6,6.7,3.9c2.4-0.8,4.7-1.8,6.9-3s3.7-1.9,4.6-2.1c0.8-0.1,1.9,0.6,3.3,2.2V561.7z"/>
		<path opacity="8.000000e-02" fill="#8C5045" d="M588,541.9c-1.4-0.1-4-0.5-7.8-1.3c-4-0.8-6.6-1.3-8-1.6c-1.4-0.2-2.2,0.3-2.4,1.6
			c-0.2,1.3,0.1,2.3,0.9,3.2c0.8,0.8,2.2,1.4,4.1,1.8c1.9,0.4,5.3,0.9,10.3,1.7c1.1,0.2,2,0.3,2.9,0.3V541.9z"/>
		<path opacity="8.000000e-02" fill="#8C5045" d="M588,522.3c-1,0-2.3-0.8-3.8-2.2c-2.4-2.2-4.5-2.7-6.4-1.5
			c-1.8,1.2-1.4,3.1,1.3,5.6c2.7,2.5,3.5,4.6,2.3,6.2c-1.2,1.6-2.3,2.9-3.3,3.8c-1,0.9-0.9,2.1,0.4,3.6c1.3,1.5,2.8,1.4,4.5-0.3
			c1.7-1.7,3-2.9,3.9-3.7c0.3-0.3,0.7-0.3,1.1-0.3V522.3z"/>
		<path opacity="8.000000e-02" fill="#8C5045" d="M588,501.1c-1.8-1.3-3.1-2.1-3.9-2.3c-0.9-0.3-1.3-1.3-1.2-3.1
			c0.1-1.8-0.5-3.4-1.8-4.8s-2.9-2.1-4.7-2c-1.8,0-3.7,1.1-5.6,3c-1.9,2-2.2,3.7-0.7,5.3c1.4,1.5,2.7,1.8,3.7,0.9
			c1.1-1,2.1-1.4,3.1-1.3c1,0.1,1.2,0.9,0.6,2.3c-0.6,1.4-1,2.7-1.3,3.9c-0.3,1.2,0.1,1.9,1.2,2.2c1.1,0.3,2.5,0.4,4.5,0.4
			c1.9,0,3,0.6,3.2,1.7c0.2,1.1-0.6,1.7-2.5,1.8c-1.9,0.1-3.6,0.5-5.2,1.2c-1.6,0.7-2.2,1.7-2,3.1c0.2,1.4,1.5,2.1,3.9,2.1
			c2.3,0,4.7-0.4,7-1.2c0.6-0.2,1.2-0.5,1.8-0.7V501.1z"/>
		<path opacity="8.000000e-02" fill="#8C5045" d="M588,484.3c-1.6-0.4-2.5-1.3-2.6-2.5c-0.1-1.3,0.3-2.3,1.4-3
			c0.4-0.2,0.8-0.4,1.2-0.4V473c-0.2,0-0.4,0-0.6,0c-1.4-0.2-2.2-1.2-2.3-3.1c-0.1-1.9,0.8-2.7,2.5-2.6c0.1,0,0.3,0,0.4,0.1v-3.5
			c-1.6-0.2-3,0-4.3,0.6c-1.8,0.9-2.8,2.5-2.8,4.7c-0.1,2.2,0.3,3.9,1.1,5c0.8,1.1,0.7,2.2-0.2,3.1c-0.9,0.9-1.5,2.6-1.6,5.2
			c-0.1,2.5,1.2,4.3,4.1,5.4c1.4,0.5,2.6,0.8,3.8,1V484.3z"/>
		<path opacity="8.000000e-02" fill="#8C5045" d="M588,386.3c-0.3-0.2-0.7-0.3-1.2-0.4c-1.1-0.3-1.5-0.8-1.1-1.6
			c0.3-0.8,0.5-1.6,0.6-2.4c0.1-0.8-0.2-1.2-0.8-1.4c-0.7-0.2-1.2,0.1-1.6,0.8c-0.4,0.7-0.7,1.4-0.9,2.1c-0.3,0.7-1.1,0.8-2.4,0.4
			c-1.4-0.4-2.3-0.3-2.8,0.6c-0.5,0.8,0,1.5,1.6,2c1.6,0.5,2.2,1.2,2.1,2c-0.2,0.9-0.4,1.6-0.6,2.1c-0.2,0.6,0,1,0.8,1.4
			c0.8,0.4,1.4,0,1.7-1c0.4-1,0.7-1.7,0.9-2.2c0.2-0.5,1-0.5,2.2,0.1c0.6,0.3,1.2,0.4,1.6,0.4V386.3z"/>
		<path fill="#EBBF7A" d="M588,430.4c-1.2-0.9-2.9-2.1-5-3.8c-3.2-2.5-5.3-4.2-6.4-5c-1.1-0.8-2.1-0.7-2.9,0.3c-0.8,1-1,2.1-0.6,3.2
			c0.4,1.1,1.3,2.3,2.9,3.5c1.5,1.2,4.3,3.3,8.4,6.1c1.4,1,2.6,1.7,3.6,2.2V430.4z"/>
		<path opacity="8.000000e-02" fill="#8C5045" d="M339.5,761.6c-2.2-1.4-3.9-1.4-5.1,0.2s-1.2,2.8-0.2,3.6c1.1,0.8,1.7,1.7,1.7,2.7
			c0.1,1-0.6,1.3-2,1c-1.4-0.3-2.7-0.5-3.9-0.5c-1.1-0.1-1.7,0.4-1.8,1.5c-0.1,1,0.1,2.5,0.4,4.2c0.3,1.8,0,2.9-1,3.3
			c-1,0.4-1.7-0.3-2.2-2c-0.5-1.8-1.1-3.3-2-4.7c-0.9-1.4-2-1.8-3.2-1.3c-1.3,0.5-1.7,1.8-1.3,4c0.4,2.2,1.2,4.3,2.4,6.4
			c1.1,1.9,2.3,3.3,3.6,4.1h5.8c1-0.7,1.9-2,2.8-3.7c1.2-2.5,1.9-4.2,2-5.1c0.1-0.9,1-1.4,2.7-1.6c1.7-0.2,3.1-1,4.1-2.5
			c1.1-1.5,1.4-3.1,1.1-4.8C343,764.6,341.7,763,339.5,761.6z"/>
		<path opacity="8.000000e-02" fill="#8C5045" d="M316.2,761.5c-1.5-1.1-3-1.6-4.5-1.7c-1.5-0.1-2.7,0.5-3.8,1.8
			c-1,1.3-1.1,2.4-0.3,3.5c0.8,1.1,1.7,1.4,2.5,0.9c0.8-0.5,1.6-0.6,2.2-0.4c0.6,0.2,0.8,0.8,0.5,1.7c-0.3,0.9-1.6,2.2-4.1,4.1
			c-2.4,1.9-4.3,2.8-5.8,2.7c-1.4-0.1-2.5,0.7-3.2,2.4c-0.7,1.7-0.1,2.9,1.6,3.7c1.7,0.7,3.9,2,6.6,3.8h6.8c0.8-1.3,0.6-2.1-0.4-2.6
			c-1.3-0.5-2.7-1.3-4.4-2.4c-1.7-1.1-2.1-1.9-1.1-2.3c1-0.5,2.2-1.3,3.7-2.4c1.5-1.1,2.7-2.3,3.6-3.6c0.9-1.3,1.5-2.9,1.8-4.7
			S317.7,762.6,316.2,761.5z"/>
		<path opacity="8.000000e-02" fill="#8C5045" d="M382.8,755.9c-3.2,1-5.5,2.4-6.8,4.1c-1.3,1.7-2.8,2.1-4.7,1.2
			c-1.8-0.9-4.6-0.9-8.4,0.2c-3.8,1.1-5.7,4-5.9,8.8c-0.1,4.8,0.7,8.4,2.4,10.8c0.9,1.2,1.9,2.3,3,3.1h11.9c2.4-1.8,3.9-3.7,4.6-5.8
			c0.7-2.2,2-3.1,3.9-2.7c1.9,0.4,4.3,0.1,7.1-0.9c2.8-1,4.3-3.5,4.3-7.6c0-4.1-1.1-7.2-3.3-9.5C388.8,755.4,386,754.8,382.8,755.9z
			 M373.1,774.7c-0.5,2.3-2,3.4-4.7,3.5c-2.6,0-4.1-1.3-4.3-4c-0.3-2.7,0.5-4.5,2.4-5.4c1.9-0.9,3.6-0.7,5.1,0.6
			C373.1,770.7,373.6,772.5,373.1,774.7z M385.3,769.7c-3,0.7-4.7-0.1-5.1-2.4c-0.4-2.2,0.7-3.9,3.4-4.9c2.7-1,4.4-0.2,5.1,2.4
			C389.5,767.4,388.3,769,385.3,769.7z"/>
		<path opacity="8.000000e-02" fill="#8C5045" d="M402.5,777.8c-0.7-0.3-1.6-0.3-2.7,0.1c-1,0.4-1.7,0.1-1.8-0.7
			c-0.2-0.9-0.4-1.6-0.8-2.3c-0.3-0.7-0.8-1-1.5-0.7c-0.7,0.2-0.9,0.7-0.9,1.6c0.1,0.8,0.2,1.6,0.4,2.3c0.2,0.7-0.5,1.3-1.8,1.6
			c-1.4,0.4-2.1,1-2.1,2c0,1,0.8,1.2,2.4,0.8c1.6-0.4,2.5-0.2,2.8,0.6c0.1,0.4,0.3,0.7,0.4,1h2.6c-0.2-1-0.4-1.8-0.5-2.3
			c-0.1-0.5,0.5-0.9,1.9-1.2c1.4-0.3,2.1-0.7,2.3-1.3C403.6,778.6,403.3,778.1,402.5,777.8z"/>
		<path opacity="8.000000e-02" fill="#8C5045" d="M436.9,779.5c-1.1-0.3-1.5-0.8-1.1-1.6s0.5-1.6,0.6-2.4c0.1-0.8-0.2-1.2-0.8-1.4
			c-0.7-0.2-1.2,0.1-1.6,0.8c-0.4,0.7-0.7,1.4-0.9,2.1c-0.3,0.7-1.1,0.8-2.4,0.4c-1.4-0.4-2.3-0.3-2.8,0.6c-0.5,0.8,0,1.5,1.6,2
			c1.6,0.5,2.2,1.2,2.1,2c-0.2,0.8-0.3,1.4-0.5,1.9h2.7c0.3-0.7,0.5-1.2,0.6-1.6c0.2-0.5,1-0.5,2.2,0.1c1.3,0.5,2.2,0.6,2.7,0.1
			c0.5-0.4,0.5-1,0.1-1.7C438.8,780.3,438,779.8,436.9,779.5z"/>
		<path opacity="8.000000e-02" fill="#8C5045" d="M465.9,775.2c-1.3,0.5-1.8,1.3-1.5,2.2c0.2,0.9,0.2,1.7-0.2,2.2
			c-0.4,0.6-1,0.6-1.7,0.1c-0.8-0.5-1.7-2.1-2.9-5c-1.2-2.8-1.6-4.9-1.1-6.3c0.4-1.4-0.1-2.6-1.5-3.7c-1.5-1.1-2.8-0.9-4,0.6
			c-1.2,1.5-3,3.4-5.5,5.7c-2.5,2.3-3.2,4.2-1.9,5.8c1.2,1.6,2.3,1.8,3.1,0.8c0.8-1.1,2-2.3,3.5-3.7c1.5-1.4,2.3-1.5,2.5-0.5
			c0.2,1.1,0.7,2.4,1.4,4.2c0.7,1.7,1.6,3.2,2.6,4.4c0.6,0.8,1.4,1.4,2.4,2h6.8c1.2-1.1,2-2.3,2.4-3.6c0.4-1.4,0.2-2.8-0.8-4.1
			C468.3,775,467.2,774.6,465.9,775.2z"/>
		<g>
			<path opacity="8.000000e-02" fill="#8C5045" d="M536.6,778c-1.2-0.1-2.5,0.1-3.8,0.5s-3.9,1.1-7.8,1.8c-3.9,0.8-6.6,1.3-7.9,1.6
				c-1.3,0.3-1.9,1-1.8,2h15c0.4-0.1,0.7-0.2,1.1-0.3c4.8-1.2,7.2-2.4,7.1-3.7C538.5,778.8,537.9,778.1,536.6,778z"/>
			<path opacity="8.000000e-02" fill="#8C5045" d="M514.1,774.7c1.3,0.1,2.5-0.1,3.8-0.5c1.3-0.4,3.9-1,7.9-1.7
				c4-0.7,6.6-1.2,7.9-1.5c1.3-0.3,1.9-1,1.7-2c-0.2-1-0.8-1.7-1.9-2.1c-1-0.4-2.5-0.3-4.4,0c-1.9,0.4-5.3,1.1-10.1,2.2
				c-4.8,1.1-7.1,2.3-7,3.5C512.1,774,512.8,774.6,514.1,774.7z"/>
		</g>
		<path opacity="8.000000e-02" fill="#8C5045" d="M569.7,775.5c-2.9-5.9-5.2-9.9-6.9-12c-1.7-2.1-3.3-2.8-4.6-2.1
			c-1.3,0.7-3.1,4.1-5.3,10.2c-2.2,6.1-2.6,10.1-1,12c0.1,0.1,0.2,0.2,0.3,0.3h3.9c1.1-1.5,2-3.3,2.5-5.4c0.5-2.2,1.5-2.7,2.9-1.5
			c1.4,1.2,2.6,3.5,3.8,6.8h8.5C572.9,782.1,571.5,779.2,569.7,775.5z"/>
		<path opacity="8.000000e-02" fill="#8C5045" d="M588,757.7c-0.1-0.2-0.2-0.5-0.3-0.7c-0.7-1.4-1.6-1.9-3-1.5
			c-1.3,0.4-1.9,1.5-1.7,3.1c0.2,1.6,0.4,3.2,0.7,4.6c0.3,1.4-0.9,2.5-3.7,3.2c-2.8,0.7-4.2,2.1-4.1,4c0,1.9,1.6,2.5,4.8,1.6
			c3.1-0.9,5-0.5,5.7,1.2c0.6,1.6,1.1,3.1,1.3,4.2c0.1,0.3,0.2,0.6,0.3,0.8V757.7z"/>
		<path opacity="8.000000e-02" fill="#8C5045" d="M588,723c-1.6-1.2-3.7-2.6-6.4-4.1c-5.1-2.9-9-4.4-11.8-4.5c-2.7,0-4.5,1.3-5.4,4
			c-0.8,2.7,0.5,4.8,4,6.1c3.5,1.3,6,2.2,7.4,2.7c1.4,0.4,2.3,1,2.6,1.5c0.3,0.6,0.2,1.1-0.4,1.5c-0.6,0.4-2.1,2.4-4.3,6
			c-2.3,3.6-3.8,8.3-4.6,14.3c-0.8,5.9,0.1,9.3,2.8,10c2.6,0.7,4.6-2.2,5.8-8.7c1.2-6.5,3.7-11.1,7.5-13.9c1.1-0.8,2-1.5,2.8-2.2
			V723z"/>
		<path opacity="8.000000e-02" fill="#8C5045" d="M588,698.1c-1.6-0.6-1.6-1.5,0-2.6v-5.1c-0.3,0.2-0.6,0.4-1,0.7
			c-1.2,1.1-2.3,1.9-3.3,2.6c-1,0.6-1.6,0.4-1.7-0.6c-0.1-1-0.1-1.9,0-2.8c0.1-0.8,0.1-1.8-0.1-3c-0.2-1.1-0.8-1.8-1.8-2
			c-1-0.2-1.7,0.3-2.2,1.6c-0.5,1.3-0.6,2.7-0.2,4.2c0.3,1.5,0,2-1.1,1.5c-1.1-0.5-2.1-0.7-3.1-0.8c-1,0-1.7,0.4-2.1,1.4
			c-0.4,1,0.3,1.9,2.1,2.7c1.8,0.8,2.1,1.5,0.8,2.3c-1.3,0.7-2.2,1.6-2.9,2.6c-0.6,1-0.4,1.9,0.7,2.5c1.1,0.6,2.6,0,4.7-1.9
			c2-1.9,3.1-1.8,3.1,0.3c0,2.1,0.2,3.5,0.3,4.4c0.2,0.9,0.8,1.4,1.8,1.7c1,0.3,1.8,0,2.2-0.8c0.4-0.8,0.4-2.2,0-4.1
			c-0.4-1.9,0.3-2.2,2.1-1c0.5,0.4,1,0.6,1.5,0.7V698.1z"/>
		<path opacity="8.000000e-02" fill="#8C5045" d="M588,667.2c-2.3-3.1-4.6-5.9-7-8.3c-3.6-3.7-6.2-5.5-7.9-5.4
			c-1.7,0.1-2.7,0.7-3,1.8c-0.4,1.1,0.9,3.8,3.7,8c2.8,4.2,3.7,6.8,2.6,7.6c-1.1,0.8-2.3,1.2-3.5,0.9c-1.3-0.2-3.2-2.5-5.9-6.9
			c-2.7-4.3-4.7-6.6-6.2-6.7c-1.5-0.1-2.6,0.2-3.4,0.8c-0.8,0.6-1.4,1.4-1.6,2.5c-0.3,1,1,3.2,3.6,6.6c2.7,3.3,5,6.7,7.1,10
			c2,3.3,4.3,4.6,6.7,3.9c2.4-0.8,4.7-1.8,6.9-3s3.7-1.9,4.6-2.1c0.8-0.1,1.9,0.6,3.3,2.2V667.2z"/>
		<path opacity="8.000000e-02" fill="#8C5045" d="M498.4,774.1c-2.8-0.2-4.3,0.8-4.5,2.9c-0.2,2.1,0.4,3.2,1.8,3.4
			c1.4,0.2,2.4,0.7,3,1.5c0.6,0.8,0.1,1.5-1.3,2c-0.1,0-0.2,0.1-0.3,0.1h8c0.5-0.8,0.7-1.7,0.8-2.7c0.2-1.9-0.3-3.6-1.5-4.9
			C503.2,775,501.2,774.3,498.4,774.1z"/>
		<path opacity="8.000000e-02" fill="#8C5045" d="M117.1,761.1c-1.6-0.4-3.1,0.1-4.7,1.6c-1.6,1.5-3.1,2.6-4.5,3.5
			c-1.4,0.9-2.2,0.6-2.3-0.8c-0.1-1.4-0.1-2.6,0-3.8c0.1-1.2,0.1-2.5-0.2-4c-0.2-1.5-1-2.4-2.4-2.7c-1.4-0.3-2.4,0.4-3,2.2
			c-0.7,1.8-0.8,3.7-0.3,5.7c0.5,2,0,2.7-1.5,2.1c-1.5-0.7-2.9-1-4.2-1.1c-1.3,0-2.3,0.6-2.9,2c-0.6,1.4,0.4,2.6,2.9,3.7
			c2.5,1.1,2.9,2.1,1.1,3.1c-1.8,1-3.1,2.2-3.9,3.6c-0.9,1.4-0.5,2.6,0.9,3.4c1.5,0.9,3.6,0,6.4-2.6c2.8-2.6,4.2-2.5,4.3,0.4
			c0.1,2.8,0.2,4.8,0.5,6c0,0.2,0.1,0.4,0.2,0.6h5.5c0.3-1.2,0.3-2.8-0.2-4.9c-0.5-2.6,0.5-3,2.9-1.3c2.5,1.7,4.1,1.5,4.9-0.7
			c0.8-2.2-0.1-3.8-2.7-4.7c-2.6-0.9-2.5-2.3,0.5-4c3-1.8,4.6-3.3,4.8-4.6C119.3,762.4,118.7,761.5,117.1,761.1z"/>
		<path opacity="8.000000e-02" fill="#8C5045" d="M75,777.9c-1.5-0.7-3.3-0.6-5.4,0.1c-2.1,0.8-3.3,0.3-3.7-1.4
			c-0.4-1.7-0.9-3.3-1.5-4.7c-0.7-1.4-1.6-1.9-3-1.5c-1.3,0.4-1.9,1.5-1.7,3.1c0.2,1.6,0.4,3.2,0.7,4.6c0.3,1.4-0.9,2.5-3.7,3.2
			c-2,0.5-3.3,1.4-3.8,2.6h17c0.6-0.2,1.2-0.4,2-0.5c2.7-0.5,4.3-1.4,4.7-2.7C77,779.5,76.5,778.6,75,777.9z"/>
		<g>
			<path opacity="8.000000e-02" fill="#8C5045" d="M2.7,783.6c-0.2,0.1-0.4,0.3-0.5,0.4h3c-0.2-0.3-0.4-0.5-0.6-0.6
				C4.2,783,3.5,783,2.7,783.6z"/>
			<path opacity="8.000000e-02" fill="#8C5045" d="M19.1,773c-3.4-2.9-6-3.4-7.7-1.4c-1.8,2-3.1,3.6-4.1,4.9c-1,1.3-1.5,2.5-1.5,3.5
				c0,1,1.1,2.2,3.4,3.5c0.3,0.2,0.6,0.4,0.8,0.5h5.9c-0.1-0.3-0.1-0.6-0.2-0.9c-0.4-1.2-1-2.2-1.9-3s-0.9-1.8-0.1-2.8
				c0.8-1,1.8-0.9,2.9,0.2c1.1,1.1,2,2.2,2.7,3.2c0.8,1,1.5,1.7,2.2,2.2c0.7,0.5,1.4,0.2,2.1-0.7c0.7-0.9,1-2,0.8-3.1
				S22.5,775.9,19.1,773z"/>
		</g>
		<path opacity="8.000000e-02" fill="#8C5045" d="M13.5,736c-1.5-0.7-3.3-0.6-5.4,0.1c-2.1,0.8-3.3,0.3-3.7-1.4
			C4.2,733,3.6,731.4,3,730c-0.7-1.4-1.6-1.9-3-1.5c0,0,0,0,0,0v16.3c0.8,0.2,1.4,0.7,1.7,1.5c0.6,1.6,1.1,3.1,1.3,4.2
			c0.2,1.2,1.2,1.6,2.9,1.4c1.7-0.3,2.3-1.4,1.9-3.5c-0.5-2.1-0.8-3.6-0.9-4.7c-0.2-1,1.1-1.8,3.8-2.3c2.7-0.5,4.3-1.4,4.7-2.7
			C15.6,737.6,15,736.6,13.5,736z"/>
		<path opacity="8.000000e-02" fill="#8C5045" d="M18.5,694.9c-3-1.8-6.1-3-9.5-3.7c-3-0.6-6-0.2-9,1.2v10.8c0-0.2,0.1-0.3,0.1-0.5
			c0.8-1.9,1.7-3.2,2.8-3.9c1.1-0.6,2.9-0.9,5.3-0.7c2.4,0.2,4.8,0.8,7,2c2.2,1.2,3.8,3,4.8,5.4c1,2.4,0.6,4.8-1.2,7.1
			c-1.8,2.3-3.7,3.5-5.9,3.6c-2.1,0.1-4.2-0.4-6.4-1.5c-2.1-1.1-3.9-2.9-5.4-5.4c-0.6-1-1-2-1.3-2.9v12.7c0.8,0.5,1.5,1,2.3,1.4
			c3.5,1.8,6.8,2.8,9.8,2.8c3.1,0.1,5.8-0.4,8.2-1.5c2.4-1.1,4.6-3.3,6.6-6.5c2-3.3,1.8-7.1-0.5-11.4
			C24.1,699.7,21.5,696.7,18.5,694.9z"/>
		<path opacity="8.000000e-02" fill="#8C5045" d="M32.1,670.3c-2.5-1.5-4.1-1.3-4.6,0.6c-0.6,1.9-1.5,4.2-2.8,6.8
			c-1.3,2.7-2.4,3.3-3.2,2c-0.9-1.3-2.2-3-4.1-4.9c-1.9-2-3.8-3.5-5.8-4.6c-2-1.1-4.4-1.7-7.2-1.8c-1.8-0.1-3.2,0.3-4.4,1.2v14.2
			c1.9,1.2,3.6,1.1,5-0.3c1.4-1.4,1.7-2.7,0.9-3.8c-0.8-1.1-1.1-2.2-0.9-3.2c0.2-1,1-1.3,2.3-1.1c1.3,0.3,3.5,2,6.7,5.2
			c3.1,3.2,4.8,5.8,4.9,7.9c0.2,2.1,1.5,3.5,4.1,4.2c2.6,0.7,4.2-0.3,5.1-2.9c0.8-2.6,2.3-6.2,4.6-10.7S34.6,671.8,32.1,670.3z"/>
		<path opacity="8.000000e-02" fill="#8C5045" d="M20.3,613.5c-1.6-0.4-3.1,0.1-4.7,1.6c-1.6,1.5-3.1,2.6-4.5,3.5
			c-1.4,0.9-2.2,0.6-2.3-0.8c-0.1-1.4-0.1-2.6,0-3.8c0.1-1.2,0.1-2.5-0.2-4c-0.2-1.5-1-2.4-2.4-2.7c-1.4-0.3-2.4,0.4-3,2.2
			c-0.7,1.8-0.8,3.7-0.3,5.7c0.5,2,0,2.7-1.5,2.1c-0.5-0.2-0.9-0.4-1.4-0.5v14c0.5-0.4,1.1-0.8,1.6-1.4c2.8-2.6,4.2-2.5,4.3,0.4
			c0.1,2.8,0.2,4.8,0.5,6c0.2,1.2,1.1,2,2.5,2.4c1.4,0.4,2.4,0,3-1.1c0.6-1.2,0.6-3,0.1-5.6c-0.5-2.6,0.5-3,2.9-1.3
			c2.5,1.7,4.1,1.5,4.9-0.7c0.8-2.2-0.1-3.8-2.7-4.7c-2.6-0.9-2.5-2.3,0.5-4c3-1.8,4.6-3.3,4.8-4.6
			C22.5,614.8,21.8,613.9,20.3,613.5z"/>
		<g>
			<path fill="#EBBF7A" d="M2.6,535.8c-1.4-0.1-2.3-0.5-2.6-1.3v6.8c0.7,0,1.5,0.1,2.6,0.4c2.7,0.7,4.5,0.5,5.3-0.5
				c0.9-1,0.8-2.1-0.3-3.3C6.5,536.7,4.8,536,2.6,535.8z"/>
			<path fill="#EBBF7A" d="M0,526.4v6.1c0.3-1.5,0.5-3,0.5-4.4C0.5,527.4,0.3,526.8,0,526.4z"/>
		</g>
		<path opacity="8.000000e-02" fill="#8C5045" d="M10.4,548.8c-4.5,0.6-8,2.3-10.4,5v18.6c3.8,3.5,7.8,5.5,12.1,6.1
			c4.3,0.6,5.9,2.2,4.9,4.8c-1,2.6-1.7,4.3-2.2,5.2c-0.5,0.9-2.5,1.2-5.9,0.9c-3.5-0.3-6.1-1.5-8-3.4c-0.3-0.3-0.6-0.6-0.9-0.9v13.4
			c4.2,1.9,8.6,2.6,13.3,2.2c5.2-0.5,9.1-4.3,11.9-11.3c2.7-7.1,4.7-13.2,5.7-18.5c1.1-5.3-0.4-10.5-4.4-15.7
			C22.5,550,17.1,547.9,10.4,548.8z M19.6,566.3c-1.1,3.8-3.6,4.8-7.5,3c-4-1.8-5.1-4.6-3.4-8.4c1.7-3.8,4.2-4.8,7.6-3
			C19.5,559.7,20.7,562.5,19.6,566.3z"/>
		<path opacity="8.000000e-02" fill="#8C5045" d="M252.6,765.2c-3.6-1.9-6.1-2.9-7.5-3.1c-1.3-0.2-2.1-1.5-2.3-4
			c-0.2-2.5-1.4-4.6-3.6-6.3c-2.2-1.6-4.5-2.2-7.1-1.8c-2.5,0.5-4.9,2.3-7.1,5.5s-2.2,5.7,0.1,7.5c2.3,1.8,4.1,2,5.4,0.4
			c1.3-1.6,2.6-2.4,4.1-2.5c1.4-0.1,1.9,0.9,1.4,3.1c-0.5,2.1-0.8,4-0.9,5.7c-0.1,1.7,0.6,2.6,2.1,2.7c1.5,0.1,3.7,0,6.3-0.4
			c2.7-0.4,4.3,0.2,4.8,1.6c0.5,1.5-0.5,2.5-3.1,3.1c-2.6,0.6-5,1.6-7,2.9c-1.9,1.2-2.6,2.6-2.2,4.3h14.3c0.4-0.2,0.9-0.4,1.3-0.7
			c3.1-1.7,5.3-3.6,6.5-5.6c1.3-2,1.6-4.2,0.9-6.4C258.4,769.1,256.2,767.1,252.6,765.2z"/>
		<path opacity="8.000000e-02" fill="#8C5045" d="M227.6,770.5c-1.5-0.7-3.3-0.6-5.4,0.1c-2.1,0.8-3.3,0.3-3.7-1.4
			c-0.4-1.7-0.9-3.3-1.5-4.7c-0.7-1.4-1.6-1.9-3-1.5c-1.3,0.4-1.9,1.5-1.7,3.1c0.2,1.6,0.4,3.2,0.7,4.6c0.3,1.4-0.9,2.5-3.7,3.2
			c-2.8,0.7-4.2,2.1-4.1,4c0,1.9,1.6,2.5,4.8,1.6c3.1-0.9,5-0.5,5.7,1.2c0.4,1.1,0.8,2.2,1,3.1h5.1c0-0.3-0.1-0.6-0.1-0.9
			c-0.5-2.1-0.8-3.6-0.9-4.7c-0.2-1,1.1-1.8,3.8-2.3c2.7-0.5,4.3-1.4,4.7-2.7C229.7,772.1,229.1,771.2,227.6,770.5z"/>
		<path opacity="8.000000e-02" fill="#8C5045" d="M173.5,755.7c-4.5-0.1-8.4,0.9-11.9,2.8c-3.4,2-6,4.2-7.7,6.7
			c-1.7,2.5-2.8,5.1-3.1,7.7c-0.4,2.6,0.3,5.7,1.9,9.1c0.3,0.7,0.8,1.4,1.3,2H178c1.7-1.2,3.3-2.5,4.8-4c2.4-2.5,3.8-5.7,4-9.5
			s-0.8-7.3-3.1-10.3C181.4,757.3,178,755.7,173.5,755.7z M177.3,775.7c-1.5,2-3.3,3.6-5.5,4.8c-2.2,1.2-4.6,1.6-7.2,1.1
			c-2.6-0.5-4.4-2.1-5.3-4.9c-0.9-2.7-0.9-5,0.2-6.9c1.1-1.8,2.6-3.3,4.7-4.5c2.1-1.2,4.6-1.7,7.5-1.6c2.9,0.1,4.9,1,6.2,2.6
			c1.2,1.7,1.8,3.2,1.7,4.4C179.5,772.1,178.8,773.7,177.3,775.7z"/>
		<path opacity="8.000000e-02" fill="#8C5045" d="M16.5,289.4c-1.9-1.4-3.5-2-5-2.1c-1.5,0-2.3-0.7-2.5-2.1
			c-0.2-1.4-1.4-2.9-3.5-4.5c-1.7-1.3-3.5-1.5-5.6-0.6v5.6c1-0.6,2-0.6,2.9-0.1c1.2,0.7,1.8,1.7,1.7,3c-0.1,1.3-0.9,2.3-2.3,3
			c-0.8,0.4-1.6,0.4-2.3,0.1v4.8c1,0.1,2,0,2.8-0.3c1.5-0.5,2.5-0.1,3.1,1.1c0.6,1.2,1.7,2.4,3.3,3.5c1.7,1.2,3.6,0.9,5.8-0.7
			c2.2-1.6,3.5-3.5,3.8-5.6C19.2,292.5,18.4,290.7,16.5,289.4z M14.1,296.2c-1.1,1.4-2.5,1.5-4,0.1c-1.6-1.4-1.8-2.6-0.8-3.7
			c1-1.1,2.4-1.2,4-0.1C14.9,293.5,15.2,294.8,14.1,296.2z"/>
		<path opacity="8.000000e-02" fill="#8C5045" d="M10,303.9c-1.3-0.8-2.5-0.7-3.4,0.1c-0.9,0.9-1.6,2-2.1,3.2
			c-0.4,1.3-1.7,3.7-3.6,7.2C0.6,315,0.3,315.5,0,316v8.8c0.4-0.1,0.7-0.1,1.1-0.3c1-0.5,2-1.7,3-3.4c0.9-1.7,2.5-4.8,4.7-9.3
			C10.9,307.3,11.3,304.7,10,303.9z"/>
		<path opacity="8.000000e-02" fill="#8C5045" d="M11.6,326.6c-2.6,0.6-4.6,1.1-6.2,1.6c-1.6,0.5-2.7,1.2-3.2,2
			c-0.6,0.8-0.3,2.4,0.8,4.8s0.9,3.8-0.5,4.4c-1.1,0.4-1.9,0.4-2.4,0.1v5.1c0.4,0,0.8,0,1.2-0.1c1.8-0.2,3.4-1,4.7-2.3
			c1.3-1.3,2.2-2.5,2.5-3.7c0.3-1.2,0.4-2.4,0.2-3.6s0.3-2,1.6-2.3c1.3-0.3,2,0.3,2.2,1.8c0.2,1.5,0.4,2.9,0.4,4.2
			c0.1,1.2,0.2,2.3,0.5,3.1c0.3,0.8,1,1,2.1,0.7c1.1-0.4,1.9-1,2.5-2.1c0.5-1,0.3-3.7-0.8-8C16,327.9,14.2,326,11.6,326.6z"/>
		<path fill="#EBBF7A" d="M32.1,372.3c-2.5-1.5-4.1-1.3-4.6,0.6c-0.6,1.9-1.5,4.2-2.8,6.8c-1.3,2.7-2.4,3.3-3.2,2
			c-0.9-1.3-2.2-3-4.1-4.9c-1.9-2-3.8-3.5-5.8-4.6c-2-1.1-4.4-1.7-7.2-1.8c-1.8-0.1-3.2,0.3-4.4,1.2v14.2c1.9,1.2,3.6,1.1,5-0.3
			c1.4-1.4,1.7-2.7,0.9-3.8c-0.8-1.1-1.1-2.2-0.9-3.2c0.2-1,1-1.3,2.3-1.1c1.3,0.3,3.5,2,6.7,5.2c3.1,3.2,4.8,5.8,4.9,7.9
			c0.2,2.1,1.5,3.5,4.1,4.2c2.6,0.7,4.2-0.3,5.1-2.9c0.8-2.6,2.3-6.2,4.6-10.7S34.6,373.8,32.1,372.3z"/>
		<path opacity="8.000000e-02" fill="#8C5045" d="M10.1,412.3c-2.6,0.5-4.7,1-6.3,1.4c-1.6,0.5-2.7,1.1-3.3,1.9
			c-0.6,0.8-0.4,2.4,0.6,4.8c1,2.4,0.8,3.8-0.6,4.3c-0.2,0.1-0.4,0.1-0.5,0.2v4.7c1.5-0.3,2.8-0.9,4-2c1.4-1.2,2.3-2.4,2.6-3.6
			c0.4-1.2,0.5-2.4,0.3-3.6s0.4-2,1.6-2.3s2,0.3,2.2,1.9c0.2,1.5,0.3,2.9,0.3,4.2c0,1.2,0.2,2.3,0.4,3.1c0.3,0.8,1,1,2.1,0.7
			c1.1-0.3,2-1,2.5-2c0.6-1,0.4-3.7-0.6-8C14.5,413.7,12.7,411.8,10.1,412.3z"/>
		<path opacity="8.000000e-02" fill="#8C5045" d="M22.6,436.6c-2.9-2.5-6.3-3.8-10-3.8c-3.7,0-7,1.8-9.8,5.3c-1.1,1.4-2,2.8-2.8,4.3
			v20.6c0.8,1.4,1.6,2.6,2.7,3.6c1.8,1.9,4.7,3.2,8.4,4s7.3-0.7,10.6-4.3c3.3-3.7,5.2-7.2,5.9-10.6c0.7-3.4,0.7-6.8,0.2-10.2
			C27.3,442.1,25.5,439.2,22.6,436.6z M21.4,454.6c-0.3,2.5-1.5,4.6-3.5,6.4c-2,1.7-4.3,2.2-7.1,1.3c-2.8-0.9-4.5-2.4-5.3-4.3
			c-0.8-2-1-4.1-0.7-6.5s1.4-4.7,3.2-6.9c1.8-2.2,3.8-3.3,5.8-3.3c2.1,0.1,3.6,0.5,4.6,1.3c1,0.8,1.8,2.4,2.5,4.8
			C21.6,449.6,21.8,452.1,21.4,454.6z"/>
		<path opacity="8.000000e-02" fill="#8C5045" d="M24.2,477.4c-2.3-3.2-4.6-4.3-7-3.4c-2.4,0.9-4.6,2.1-6.7,3.5
			c-2.1,1.4-3.6,2.2-4.4,2.4c-0.9,0.2-2.2-0.6-3.9-2.4c-0.8-0.8-1.5-1.5-2.2-1.9v10c3.6,4.7,7.3,8.7,11,12c3.8,3.4,6.6,5,8.3,4.8
			c1.7-0.2,2.6-0.9,2.9-2c0.3-1.1-1.1-3.7-4.3-7.7c-3.1-4-4.2-6.5-3.1-7.4c1-0.9,2.2-1.3,3.5-1.2s3.4,2.3,6.4,6.4
			c3,4.1,5.2,6.2,6.6,6.2s2.6-0.3,3.4-1c0.8-0.7,1.3-1.5,1.4-2.6c0.2-1.1-1.2-3.2-4.1-6.3C29,483.8,26.4,480.6,24.2,477.4z"/>
		<path opacity="8.000000e-02" fill="#8C5045" d="M25.2,514c-3.6-1.9-6.1-2.9-7.5-3.1c-1.3-0.2-2.1-1.5-2.3-4
			c-0.2-2.5-1.4-4.6-3.6-6.3s-4.5-2.2-7.1-1.8c-1.6,0.3-3.2,1.2-4.7,2.6v11.7c1.3,0.4,2.3,0.1,3.1-0.9c1.3-1.6,2.6-2.4,4.1-2.5
			c1.4-0.1,1.9,0.9,1.4,3.1c-0.5,2.1-0.8,4-0.9,5.7c-0.1,1.7,0.6,2.6,2.1,2.7c1.5,0.1,3.7,0,6.3-0.4c2.7-0.4,4.3,0.2,4.8,1.6
			c0.5,1.5-0.5,2.5-3.1,3.1c-2.6,0.6-5,1.6-7,2.9c-2.1,1.3-2.8,2.9-2.1,4.8c0.6,1.9,2.6,2.6,5.9,2.1c3.3-0.5,6.5-1.6,9.6-3.3
			c3.1-1.7,5.3-3.6,6.5-5.6c1.3-2,1.6-4.2,0.9-6.4C31,518,28.8,515.9,25.2,514z"/>
		<path opacity="8.000000e-02" fill="#8C5045" d="M352.7,0.3c-0.6,2-0.2,3.2,1.1,3.7c1.4,0.4,2.3,1.1,2.7,2c0.4,0.9-0.1,1.5-1.7,1.7
			s-2.9,0.5-4,0.9c-1.1,0.4-1.6,1.1-1.3,2.1c0.3,1.1,0.9,2.4,1.9,4.1c0.9,1.7,1,2.9,0.2,3.6c-0.8,0.7-1.8,0.3-2.9-1.2
			c-1.1-1.6-2.3-2.9-3.7-3.9c-1.4-1-2.6-1.1-3.7-0.2c-1.1,0.9-1,2.4,0.1,4.4c1.2,2,2.7,3.9,4.6,5.4c1.9,1.6,3.7,2.5,5.4,2.8
			c1.7,0.3,3.1,0,4.4-1c1.3-1,2.1-2.9,2.4-5.8c0.3-2.9,0.4-4.8,0.1-5.7c-0.2-0.9,0.5-1.8,2.1-2.6c1.6-0.8,2.7-2.1,3.2-4
			c0.5-1.9,0.3-3.6-0.6-5.1c-0.3-0.6-0.8-1.1-1.4-1.5h-8.9C352.8,0.1,352.8,0.2,352.7,0.3z"/>
		<path opacity="8.000000e-02" fill="#8C5045" d="M315.4,4.4c-1.8,4.4-2.6,7.7-2.3,9.9c0.3,2.2,1.5,3.5,3.8,3.9
			c2.3,0.4,3.8-0.9,4.4-3.9c0.7-3,1.1-5,1.3-6.2c0.2-1.2,0.5-1.9,0.9-2.3c0.4-0.3,0.9-0.3,1.3,0.2c0.4,0.4,2.2,1.4,5.2,2.8
			c3.1,1.4,7.1,2.1,11.9,2.1c4.8,0,7.4-1.1,7.7-3.3c0.3-2.2-2.2-3.4-7.6-3.7c-5-0.2-8.8-1.6-11.3-4h-13.4
			C316.8,1.2,316.1,2.7,315.4,4.4z"/>
		<path opacity="8.000000e-02" fill="#8C5045" d="M302.9,0h-6.7c-0.2,0.4-0.4,0.8-0.5,1.2c-0.6,1.6-2.4,1.8-5.5,0.8
			c-3.1-1-5.3-0.6-6.4,1.3c-1.2,1.9,0,3.4,3.5,4.5c3.5,1.1,5.1,2.7,4.7,4.6c-0.4,2-0.9,3.6-1.4,4.8c-0.5,1.3,0.1,2.3,1.9,3.1
			c1.8,0.8,3.1,0.1,3.9-2.2c0.8-2.2,1.5-3.9,2-5c0.5-1.1,2.2-1.1,5.1,0.1c2.9,1.2,4.9,1.3,6.1,0.3c1.1-1,1.2-2.2,0.2-3.8
			c-1-1.5-2.8-2.6-5.2-3.2c-2.5-0.6-3.3-1.8-2.6-3.6C302.3,2.1,302.7,1,302.9,0z"/>
		<path opacity="8.000000e-02" fill="#8C5045" d="M224.3,6.6c2.8,4.2,3.7,6.8,2.6,7.6s-2.3,1.2-3.5,0.9c-1.3-0.2-3.2-2.5-5.9-6.9
			c-2.7-4.3-4.7-6.6-6.2-6.7c-1.5-0.1-2.6,0.2-3.4,0.8c-0.8,0.6-1.4,1.4-1.6,2.5c-0.3,1,1,3.2,3.6,6.6s5,6.7,7.1,10
			c2,3.3,4.3,4.6,6.7,3.9c2.4-0.8,4.7-1.8,6.9-3s3.7-1.9,4.6-2.1c0.9-0.1,2.1,0.8,3.7,2.7c1.6,1.9,2.9,2.9,3.9,3
			c1,0.1,2-0.3,2.9-1.2c0.9-0.9-0.3-3.9-3.7-9.2s-6.9-9.7-10.5-13.4c-0.8-0.8-1.5-1.5-2.2-2.1h-8.6C221.1,1.4,222.3,3.6,224.3,6.6z"
			/>
		<path opacity="8.000000e-02" fill="#8C5045" d="M272.3,2.8c0.6,2.8,0.3,5.1-0.9,6.8c-1.3,1.7-3,3-5.2,4c-2.2,0.9-4.7,1.2-7.6,0.8
			c-2.9-0.4-4.8-1.5-5.8-3.3c-1-1.8-1.4-3.3-1.2-4.6c0.2-1.3,1.1-2.8,2.8-4.6c0.6-0.7,1.3-1.3,2.1-1.9h-9.8
			c-1.1,1.7-1.9,3.7-2.2,5.9c-0.7,3.8,0,7.3,1.9,10.5c1.9,3.2,5.1,5.1,9.6,5.7s8.5,0.1,12.1-1.5c3.6-1.6,6.4-3.5,8.4-5.8
			c2-2.3,3.3-4.8,4-7.3c0.6-2.1,0.4-4.6-0.3-7.5h-8.9C271.7,0.8,272.1,1.7,272.3,2.8z"/>
		<path opacity="8.000000e-02" fill="#8C5045" d="M186.7,0.8c-4.1,2.5-6.6,4.7-7.7,6.6s-0.8,3.7,0.8,5.4c1.6,1.6,3.6,1.5,5.9-0.5
			c2.3-2,3.9-3.4,4.7-4.2c0.9-0.8,1.6-1.3,2.1-1.3c0.5,0,0.9,0.3,0.9,0.9c0.1,0.6,0.9,2.4,2.6,5.4c1.7,3,4.4,5.9,8.3,8.7
			c3.9,2.9,6.6,3.5,8.2,1.9c1.5-1.6,0.2-4.1-3.9-7.4c-4.2-3.4-6.5-6.9-7-10.6c-0.3-2.4-0.8-4.3-1.3-5.6H188
			C187.6,0.3,187.1,0.5,186.7,0.8z"/>
		<path opacity="8.000000e-02" fill="#8C5045" d="M153.6,6.5c1.1,3.4,2.8,6.1,5.1,7.9c2.3,1.8,2.8,3.4,1.3,4.6
			c-1.5,1.2-2.5,2-3.1,2.4c-0.6,0.4-1.9-0.1-3.8-1.5c-1.9-1.4-3.1-3-3.6-4.8c-0.4-1.8-1.4-3.3-2.9-4.5c-1.5-1.2-2.8-1.4-4-0.4
			c-1.2,0.9-1.7,2.3-1.6,4.1c0.1,1.8,1.1,4.2,3,7.2c1.9,3,4.5,5.2,7.7,6.7s6.9,0.6,11-2.6c4.1-3.3,7.4-6.3,9.9-9.1
			c2.5-2.8,3.4-6.4,2.8-10.9c-0.3-2.2-1-4-2.2-5.5h-18.8C153.2,2,152.9,4.2,153.6,6.5z M162.8,2.8c2.3-1.7,4.2-1.4,5.5,0.8
			c1.4,2.2,1.1,4.3-0.9,6.2c-1.9,1.9-3.8,1.6-5.5-0.8S160.5,4.5,162.8,2.8z"/>
		<path opacity="8.000000e-02" fill="#8C5045" d="M20.3,5.6c2.1-2,3.7-3.8,4.7-5.6H7.8C6.1,2,4.2,4.5,2.1,7.5
			C1.3,8.6,0.6,9.7,0,10.7v15.1c0.1,0.1,0.3,0.2,0.4,0.3c5,3.8,9.2,6.7,12.6,8.8c3.4,2.1,6.2,3.1,8.6,2.8c2.4-0.2,4.9-3.2,7.5-8.8
			c2.6-5.6,5.6-7.5,8.7-5.8c3.2,1.8,4.4,3.6,3.6,5.4c-0.8,1.9-2.7,3.9-5.7,6c-3,2.1-5,3.8-5.9,5.1c-0.9,1.3-0.6,2.8,0.9,4.6
			c1.5,1.8,3.2,2.9,5.2,3.3c2,0.4,5.5-2.5,10.5-8.6c5-6.1,7.5-10.5,7.4-13.2c-0.1-2.7-1.7-5.5-4.9-8.3c-3.2-2.9-7-4.6-11.4-5
			c-4.4-0.5-7.9-0.1-10.6,1.1c-2.7,1.2-5,2.9-6.8,5.2c-1.9,2.3-4.1,2.5-6.7,0.8s-2.6-4-0.2-6.8C15.8,10,18.1,7.6,20.3,5.6z"/>
		<path opacity="8.000000e-02" fill="#8C5045" d="M128.7,2.2c1.2,1.7,1.8,3.2,1.7,4.4c-0.1,1.3-0.8,2.9-2.3,4.9
			c-1.5,2-3.3,3.6-5.5,4.8c-2.2,1.2-4.6,1.6-7.2,1.1c-2.6-0.5-4.4-2.1-5.3-4.9c-0.9-2.7-0.9-5,0.2-6.9c1.1-1.8,2.6-3.3,4.7-4.5
			c0.9-0.5,1.8-0.9,2.9-1.1h-12.4c-0.3,0.3-0.5,0.7-0.8,1c-1.7,2.5-2.8,5.1-3.1,7.7c-0.4,2.6,0.3,5.7,1.9,9.1
			c1.7,3.5,4.9,5.4,9.9,5.7c4.9,0.4,8.9-0.2,12-1.7c3.1-1.5,5.8-3.5,8.3-6c2.4-2.5,3.8-5.7,4-9.5c0.1-2.3-0.2-4.4-0.9-6.3h-11.1
			C127,0.4,128,1.2,128.7,2.2z"/>
		<path opacity="8.000000e-02" fill="#8C5045" d="M57.2,0c-1.3,1.4-2.8,2.7-4.5,3.6c-2.2,1.2-4.6,1.6-7.2,1.1
			c-2.5-0.5-4.3-2.1-5.3-4.8h-8.5c0.3,1.6,0.9,3.4,1.8,5.2c1.7,3.5,4.9,5.4,9.9,5.7c4.9,0.4,8.9-0.2,12-1.7c3.1-1.5,5.8-3.5,8.3-6
			c0.9-1,1.7-2,2.3-3.2H57.2z"/>
		<path opacity="8.000000e-02" fill="#8C5045" d="M8.4,75.6c1.3-0.6,1.9-1.8,1.8-3.6c-0.1-1.8-1.2-2.7-3-2.6C5.3,69.5,3,69.4,0,69
			v5.3c0,0,0,0,0,0c2,0.2,2.7,0.8,2,1.6c-0.6,0.8-1.3,1.9-2,3.3v12.5c0.6,0.5,1.3,0.8,2.2,0.9C4,93,5.6,92.8,7,92.2
			c1.3-0.6,2.2-1.7,2.6-3.3c0.4-1.6-0.1-2.7-1.3-3.3C7,85.1,6.1,85.2,5.6,86c-0.5,0.8-1.1,1.2-1.8,1.3c-0.7,0.1-1.1-0.3-1.2-1.2
			c-0.1-0.9,0.5-2.7,1.8-5.5S7.1,76.2,8.4,75.6z"/>
		<path opacity="8.000000e-02" fill="#8C5045" d="M33,58.6c-4.5-2.3-7.5-3.6-9.2-3.8c-1.6-0.2-2.6-1.9-2.9-5
			c-0.3-3.1-1.8-5.7-4.5-7.7c-2.7-2-5.6-2.8-8.7-2.2c-2.7,0.5-5.3,2.3-7.8,5.5v11.1c2.5,1.7,4.4,1.7,5.9-0.1c1.6-1.9,3.2-3,5-3.1
			c1.8-0.1,2.3,1.2,1.7,3.8s-1,5-1.2,7.1c-0.1,2.1,0.7,3.2,2.6,3.4c1.9,0.2,4.5,0,7.8-0.5c3.3-0.5,5.3,0.2,5.9,2
			c0.7,1.8-0.6,3.1-3.8,3.9c-3.2,0.8-6.1,1.9-8.6,3.5c-2.5,1.6-3.4,3.6-2.6,5.9c0.8,2.3,3.2,3.2,7.2,2.6c4-0.6,7.9-1.9,11.7-4
			c3.8-2.1,6.5-4.4,8-6.9c1.5-2.5,1.9-5.1,1.2-7.8C40.1,63.5,37.4,61,33,58.6z"/>
		<path opacity="8.000000e-02" fill="#8C5045" d="M367.4,3c-1,1.3-1.5,2.5-1.5,3.5c0,1,1.1,2.2,3.4,3.5c2.2,1.3,2.9,2.6,2.1,3.9
			s-1.7,1.7-2.4,1.3c-0.8-0.4-1.5-1.3-2.3-2.6c-0.8-1.4-1.4-2.2-1.9-2.6c-0.5-0.4-1.1-0.3-2,0.2c-0.8,0.5-1.3,1.2-1.6,2.1
			c-0.2,0.8,0.8,2.4,3.2,4.7c2.4,2.3,4.1,3.5,5.2,3.6c1.1,0.1,2.3-0.5,3.7-1.8c1.3-1.2,2.2-2.8,2.5-4.6c0.4-1.8,0.3-3.3-0.1-4.5
			c-0.4-1.2-1-2.2-1.9-3s-0.9-1.8-0.1-2.8s1.8-0.9,2.9,0.2c1.1,1.1,2,2.2,2.7,3.2c0.8,1,1.5,1.7,2.2,2.2c0.7,0.5,1.4,0.2,2.1-0.7
			c0.7-0.9,1-2,0.8-3.1c-0.1-1.1-1.7-2.9-4.7-5.5h-10.1C368.8,1.1,368,2.1,367.4,3z"/>
		<path opacity="8.000000e-02" fill="#8C5045" d="M482.5,3.3c-6.1,2.3-10.3,4.3-12.5,5.8c-2.2,1.6-3,3-2.5,4.4
			c0.6,1.3,3.8,3.4,9.7,6.2c5.9,2.8,9.9,3.4,11.9,2c2-1.4,2.3-2.8,0.9-4.1c-1.4-1.3-3.2-2.4-5.3-3.1s-2.5-1.7-1.2-3
			c1.3-1.3,3.8-2.4,7.4-3.2c3.6-0.9,5.9-1.9,7-3.1c1-1.2,1.4-2.4,1.2-3.6c-0.1-0.6-0.3-1.1-0.6-1.5h-7.3
			C489.2,0.8,486.3,1.9,482.5,3.3z"/>
		<path opacity="8.000000e-02" fill="#8C5045" d="M401.6,0c-3.6,2.3-5.4,4.4-5.5,6.3c-0.1,2.4,0.8,3.5,2.7,3.2
			c1.9-0.3,3.8-1.1,5.7-2.3c1.9-1.2,2.9-1,3.1,0.9c0.2,1.8-0.4,4.5-1.9,7.9c-1.5,3.4-2.1,5.9-1.7,7.4c0.4,1.6,1.1,2.6,2.2,3.1
			c1.1,0.5,2.1,0.6,3.1,0.2c1-0.4,1.7-1.3,2.1-2.8s1.5-5.4,3.4-11.7c1.6-5.4,2.5-9.4,2.8-12.2H401.6z"/>
		<path opacity="8.000000e-02" fill="#8C5045" d="M424.6,0.5c-1,1.3-1.5,2.5-1.5,3.5c0,1,1.1,2.2,3.4,3.5c2.2,1.3,2.9,2.6,2.1,3.9
			s-1.7,1.7-2.4,1.3c-0.8-0.4-1.5-1.3-2.3-2.6c-0.8-1.4-1.4-2.2-1.9-2.6c-0.5-0.4-1.1-0.3-2,0.2c-0.8,0.5-1.3,1.2-1.6,2.1
			c-0.2,0.8,0.8,2.4,3.2,4.7c2.4,2.3,4.1,3.5,5.2,3.6c1.1,0.1,2.3-0.5,3.7-1.8c1.3-1.2,2.2-2.8,2.5-4.6c0.4-1.8,0.3-3.3-0.1-4.5
			c-0.4-1.2-1-2.2-1.9-3c-0.9-0.9-0.9-1.8-0.1-2.8c0.8-1,1.8-0.9,2.9,0.2c1.1,1.1,2,2.2,2.7,3.2c0.8,1,1.5,1.7,2.2,2.2
			c0.7,0.5,1.4,0.2,2.1-0.7c0.7-0.9,1-2,0.8-3.1c-0.1-0.7-0.8-1.7-2.1-3H425C424.9,0.2,424.8,0.4,424.6,0.5z"/>
		<path opacity="8.000000e-02" fill="#8C5045" d="M452.5,2.2c0.3,1.4-0.9,2.5-3.7,3.2c-2.8,0.7-4.2,2.1-4.1,4c0,1.9,1.6,2.5,4.8,1.6
			c3.1-0.9,5-0.5,5.7,1.2c0.6,1.6,1.1,3.1,1.3,4.2c0.2,1.2,1.2,1.6,2.9,1.4c1.7-0.3,2.3-1.4,1.9-3.5c-0.5-2.1-0.8-3.6-0.9-4.7
			c-0.2-1,1.1-1.8,3.8-2.3c2.7-0.5,4.3-1.4,4.7-2.7c0.4-1.3-0.2-2.2-1.7-2.9c-1.5-0.7-3.3-0.6-5.4,0.1c-2.1,0.8-3.3,0.3-3.7-1.4
			c0-0.2-0.1-0.4-0.2-0.7h-5.7C452.2,0.8,452.3,1.5,452.5,2.2z"/>
		<path opacity="8.000000e-02" fill="#8C5045" d="M511.6,0h-4.5c0,0.7,0,1.4,0.2,2.1c0.3,1.5,0,2-1.1,1.5c-1.1-0.5-2.1-0.7-3.1-0.8
			c-1,0-1.7,0.4-2.1,1.4c-0.4,1,0.3,1.9,2.1,2.7c1.8,0.8,2.1,1.5,0.8,2.3c-1.3,0.7-2.2,1.6-2.9,2.6c-0.6,1-0.4,1.9,0.7,2.5
			c1.1,0.6,2.6,0,4.7-1.9c2-1.9,3.1-1.8,3.1,0.3c0,2.1,0.2,3.5,0.3,4.4c0.2,0.9,0.8,1.4,1.8,1.7c1,0.3,1.8,0,2.2-0.8
			c0.4-0.8,0.4-2.2,0-4.1c-0.4-1.9,0.3-2.2,2.1-1c1.8,1.3,3,1.1,3.6-0.5c0.6-1.6-0.1-2.8-2-3.4c-1.9-0.7-1.8-1.7,0.4-2.9
			c2.2-1.3,3.3-2.4,3.5-3.4c0.1-1-0.4-1.6-1.5-1.9c-1.1-0.3-2.3,0.1-3.4,1.2c-1.2,1.1-2.3,1.9-3.3,2.6c-1,0.6-1.6,0.4-1.7-0.6
			c-0.1-1-0.1-1.9,0-2.8C511.6,0.8,511.6,0.4,511.6,0z"/>
		<path opacity="8.000000e-02" fill="#8C5045" d="M542,2.4c0.2,1-0.5,1.4-2,1.2s-2.9-0.2-4.1-0.2c-1.2,0.1-1.8,0.6-1.7,1.7
			c0,1.1,0.3,2.6,0.8,4.4c0.5,1.8,0.2,3-0.8,3.5c-1,0.5-1.8-0.1-2.5-1.9c-0.6-1.8-1.5-3.4-2.6-4.7c-1.1-1.3-2.3-1.7-3.5-1.1
			c-1.3,0.6-1.6,2-1,4.3c0.6,2.3,1.6,4.4,3.1,6.4c1.5,2,3,3.4,4.5,4.1c1.5,0.7,3.1,0.8,4.5,0.1c1.5-0.6,2.7-2.3,3.8-5
			c1-2.7,1.6-4.5,1.6-5.5c0-0.9,0.9-1.6,2.7-2c1.8-0.4,3.1-1.4,4.1-3.1c0.9-1.6,1.2-3.2,0.7-4.8h-9.3C541.3,0.7,541.9,1.5,542,2.4z"
			/>
		<path opacity="8.000000e-02" fill="#8C5045" d="M21.2,220.1c-1.5-0.7-2.8-0.2-3.9,1.7c-1.1,1.9-1.9,3.2-2.2,4
			c-0.4,0.8-0.8,1.2-1.1,1.3c-0.4,0.1-0.6,0-0.8-0.4c-0.2-0.4-1.2-1.4-3-3.1c-1.8-1.6-4.4-3-7.7-4c-0.9-0.3-1.8-0.5-2.5-0.6v5
			c0.3,0.1,0.6,0.2,0.9,0.4c3.6,1.3,6,3.2,7.2,5.6c1.2,2.4,2.3,3.9,3.3,4.4c1,0.5,2,0.5,3.1,0.1c1.1-0.5,2.7-2,4.9-4.6
			c2.2-2.6,3.4-4.7,3.7-6.3C23.3,222,22.7,220.8,21.2,220.1z"/>
		<path opacity="8.000000e-02" fill="#8C5045" d="M25.5,251.7c-4.5-2.3-7.5-3.6-9.2-3.8c-1.6-0.2-2.6-1.9-2.9-5
			c-0.3-3.1-1.8-5.7-4.5-7.7c-2.7-2-5.6-2.8-8.7-2.2c-0.1,0-0.2,0.1-0.4,0.1v14.8c1.1-0.9,2.2-1.4,3.4-1.4c1.8-0.1,2.3,1.2,1.7,3.8
			s-1,5-1.2,7.1c-0.1,2.1,0.7,3.2,2.6,3.4c1.9,0.2,4.5,0,7.8-0.5c3.3-0.5,5.3,0.2,5.9,2c0.7,1.8-0.6,3.1-3.8,3.9
			c-3.2,0.8-6.1,1.9-8.6,3.5c-2.5,1.6-3.4,3.6-2.6,5.9c0.8,2.3,3.2,3.2,7.2,2.6c4-0.6,7.9-1.9,11.7-4c3.8-2.1,6.5-4.4,8-6.9
			c1.5-2.5,1.9-5.1,1.2-7.8C32.6,256.5,30,254,25.5,251.7z"/>
		<path opacity="8.000000e-02" fill="#8C5045" d="M16.1,191.6c-3.8-0.1-7.1,0.7-9.9,2.4c-2.7,1.5-4.8,3.3-6.2,5.3v16.4
			c1.6,1.7,3.9,2.6,7,2.9c4.1,0.3,7.5-0.2,10.1-1.5c2.6-1.3,4.9-3,6.9-5c2-2.1,3.1-4.7,3.3-8s-0.7-6.1-2.6-8.6
			C22.7,193,19.9,191.7,16.1,191.6z M19.3,208.4c-1.2,1.6-2.8,3-4.6,4c-1.8,1-3.9,1.4-6,0.9c-2.2-0.4-3.6-1.8-4.4-4.1
			c-0.8-2.3-0.7-4.2,0.2-5.8c0.9-1.5,2.2-2.8,4-3.8c1.7-1,3.8-1.4,6.3-1.4c2.4,0.1,4.1,0.8,5.2,2.2s1.5,2.7,1.4,3.7
			C21.2,205.4,20.6,206.8,19.3,208.4z"/>
		<path opacity="8.000000e-02" fill="#8C5045" d="M17.1,164.7c-2.4-1.3-4.2-1.1-5.3,0.7c-1.1,1.8-1,3.1,0.2,3.8
			c1.2,0.8,1.9,1.6,2.1,2.7c0.2,1-0.5,1.4-2,1.2c-1.5-0.2-2.9-0.2-4.1-0.2c-1.2,0.1-1.8,0.6-1.7,1.7c0,1.1,0.3,2.6,0.8,4.4
			c0.5,1.8,0.2,3-0.8,3.5c-1,0.5-1.8-0.1-2.5-1.9c-0.6-1.8-1.5-3.4-2.6-4.7c-0.4-0.5-0.8-0.8-1.2-1V186c1.4,1.8,2.8,3.1,4.2,3.8
			c1.5,0.7,3.1,0.8,4.5,0.1c1.5-0.6,2.7-2.3,3.8-5c1-2.7,1.6-4.5,1.6-5.5c0-0.9,0.9-1.6,2.7-2c1.8-0.4,3.1-1.4,4.1-3.1
			c1-1.7,1.2-3.4,0.7-5.1C21,167.6,19.6,166,17.1,164.7z"/>
		<path opacity="8.000000e-02" fill="#8C5045" d="M9.4,144.7c-2.1-0.4-3.9,0.2-5.4,2c-1.5,1.8-2.3,3.4-2.4,4.8
			c-0.1,1.2-0.6,2-1.6,2.3v5.6c0.7-0.7,1.5-1,2.6-0.9c1.3,0.2,2.3,1,2.8,2.5c0.6,1.5,0.1,2.7-1.4,3.7c-1.5,1-2.8,0.7-4-0.7
			c0,0-0.1-0.1-0.1-0.1v5.6c1.9,0.7,3.8,0.8,5.6,0.3c1.8-0.5,3.1-1.8,3.9-3.8c0.8-2,1-3.7,0.6-5.2c-0.4-1.5,0-2.5,1.2-3
			c1.2-0.5,2.5-1.5,3.7-3.1c1.3-1.6,1.1-3.5-0.3-5.9C13.3,146.5,11.5,145.1,9.4,144.7z M10.5,153.6c-1.5,1.5-2.7,1.7-3.8,0.5
			c-1.1-1.1-1-2.5,0.1-4c1.2-1.6,2.4-1.8,3.8-0.5C12.1,150.8,12,152.1,10.5,153.6z"/>
		<path opacity="8.000000e-02" fill="#8C5045" d="M17.4,91.8c-1.7-1.5-3.1-1.7-4.3-0.5c-1.2,1.2-1.4,2.2-0.6,3.1
			c0.8,0.9,1.2,1.7,1.1,2.5c-0.1,0.8-0.7,1-1.9,0.6s-2.3-0.8-3.2-1c-1-0.2-1.5,0.1-1.7,1c-0.2,0.9-0.3,2.1-0.3,3.7
			c0,1.6-0.4,2.4-1.3,2.6c-0.9,0.2-1.4-0.5-1.6-2c-0.2-1.6-0.5-3-1.1-4.2c-0.6-1.2-1.4-1.7-2.4-1.6v10.4c0.6,1.2,1.3,2.1,2.1,2.8
			c1.1,0.9,2.3,1.2,3.6,1c1.3-0.2,2.6-1.3,4-3.2c1.4-2,2.2-3.3,2.4-4c0.2-0.7,1-1.1,2.5-1c1.5,0.1,2.8-0.5,3.9-1.6
			c1.1-1.1,1.6-2.4,1.6-3.9C19.9,94.8,19,93.3,17.4,91.8z"/>
		<g>
			<path opacity="8.000000e-02" fill="#8C5045" d="M12.8,125.7c-2.8-0.7-4.9,0-6.3,2c-1.5,2-2.2,4-2.3,6.1c-0.1,2-0.7,2.9-2,2.6
				c-0.9-0.2-1.6-0.4-2.1-0.6v4.8c3.4,0.9,6.3,1.4,8.8,1.7c2.6,0.2,5-0.7,7.2-2.9c2.2-2.2,3-4.8,2.2-8
				C17.3,128.2,15.5,126.3,12.8,125.7z M14.1,134.6c-0.7,1.7-1.9,2.4-3.8,2.1c-1.8-0.3-2.5-1.4-1.8-3.4s1.9-2.7,3.8-2.1
				C14.2,131.8,14.8,132.9,14.1,134.6z"/>
			<path opacity="8.000000e-02" fill="#8C5045" d="M0,123.1v5.8c0,0,0,0,0,0c0.8-1,1.3-2.1,1.3-3.4C1.4,124.2,0.9,123.4,0,123.1z"/>
		</g>
	</g>
</g>
</svg>
