<?xml version="1.0" encoding="utf-8"?>
<!-- Generator: Adobe Illustrator 22.1.0, SVG Export Plug-In . SVG Version: 6.00 Build 0)  -->
<svg version="1.1" id="Слой_1" xmlns="http://www.w3.org/2000/svg" xmlns:xlink="http://www.w3.org/1999/xlink" x="0px" y="0px"
	 viewBox="0 0 270 129.5" enable-background="new 0 0 270 129.5" xml:space="preserve">
<g>
	<rect fill="#95D8A6" width="270" height="129.5"/>
	<g>
		<path fill="#FFE36E" d="M232.3,56c-0.8-3.6-2.2-5.4-4.2-5.4c-2,0-6.2,3-12.8,9c-6.5,6-9.4,10.6-8.7,13.8c0.7,3.2,2.3,4.3,4.7,3.2
			c2.4-1.1,4.6-2.8,6.6-5s3.5-2.3,4.4,0.1c0.9,2.3,1,6,0.2,11c-0.8,5-0.7,8.4,0.3,10.4c1,1.9,2.3,3,3.9,3.4c1.6,0.3,3,0.1,4.2-0.8
			c1.2-0.9,1.8-2.4,1.8-4.4c0-2.1,0.1-7.5,0.4-16.5C233.4,65.8,233.1,59.6,232.3,56z"/>
		<path fill="#EB6968" d="M118.2,35.6c-0.5-2.1-1.3-3.2-2.5-3.2s-3.7,1.8-7.5,5.3c-3.8,3.5-5.6,6.3-5.1,8.1c0.4,1.9,1.3,2.5,2.8,1.9
			c1.4-0.6,2.7-1.6,3.9-3c1.2-1.3,2.1-1.3,2.6,0c0.5,1.4,0.6,3.5,0.1,6.5c-0.5,2.9-0.4,5,0.2,6.1c0.6,1.1,1.4,1.8,2.3,2
			c1,0.2,1.8,0,2.5-0.5c0.7-0.5,1-1.4,1-2.6c0-1.2,0.1-4.4,0.2-9.7C118.9,41.4,118.7,37.7,118.2,35.6z"/>
		<path fill="#7CBDF2" d="M21.2,91.4c-0.3-1.5-0.9-2.3-1.8-2.3c-0.8,0-2.6,1.3-5.4,3.8c-2.7,2.5-4,4.5-3.7,5.8c0.3,1.4,1,1.8,2,1.3
			c1-0.5,1.9-1.2,2.8-2.1s1.5-1,1.9,0c0.4,1,0.4,2.5,0.1,4.6c-0.3,2.1-0.3,3.6,0.1,4.4c0.4,0.8,1,1.3,1.7,1.4c0.7,0.1,1.3,0,1.8-0.3
			c0.5-0.4,0.7-1,0.7-1.9c0-0.9,0.1-3.2,0.2-6.9C21.7,95.5,21.5,92.9,21.2,91.4z"/>
		<path fill="#4CBF80" d="M146.6,84.6c-2.3,0.2-5.2,0.2-8.6,0c-3.4-0.2-4.6-1.1-3.6-2.6c1-1.5,2.2-3.7,3.5-6.6s2.1-5.6,2.4-8.3
			c0.3-2.6-0.1-5.5-1.2-8.6c-1.1-3.1-3.2-4.8-6.3-5.1c-3.1-0.3-5.8,0.1-8.1,1.2c-2.2,1.1-3.6,3-4.1,5.8c-0.5,2.7,0.3,4.6,2.4,5.5
			c2.1,0.9,3.6,0.7,4.5-0.7c0.8-1.4,1.8-2.2,3-2.4c1.2-0.2,1.9,0.5,2.2,2c0.3,1.5-0.6,4.7-2.7,9.4c-2.1,4.8-4.2,7.7-6.4,8.8
			c-2.2,1.1-3.1,3.2-2.7,6.2c0.4,3,2.2,4.4,5.4,4.2c3.2-0.3,7.7-0.2,13.5,0.2c5.8,0.4,8.9-1.1,9.4-4.4
			C149.8,85.9,148.9,84.4,146.6,84.6z"/>
		<path fill="#EB6968" d="M226.4,22.2c-1.5,0.2-3.4,0.2-5.7,0c-2.3-0.1-3-0.7-2.3-1.7c0.7-1,1.5-2.4,2.3-4.3s1.4-3.7,1.6-5.4
			c0.2-1.7-0.1-3.6-0.8-5.7s-2.1-3.2-4.2-3.4c-2.1-0.2-3.8,0.1-5.3,0.8c-1.5,0.7-2.4,2-2.7,3.8c-0.3,1.8,0.2,3,1.6,3.6
			c1.4,0.6,2.4,0.5,2.9-0.5c0.6-0.9,1.2-1.4,2-1.5c0.8-0.1,1.2,0.3,1.4,1.3c0.2,1-0.4,3.1-1.8,6.2c-1.4,3.1-2.8,5.1-4.2,5.8
			c-1.4,0.7-2,2.1-1.8,4.1c0.3,2,1.4,2.9,3.6,2.7c2.1-0.2,5.1-0.1,8.9,0.1c3.8,0.3,5.9-0.7,6.2-2.9C228.6,23.1,228,22.1,226.4,22.2z
			"/>
		<path fill="#EB6968" d="M263,117.7c-2.3,0.2-5.2,0.2-8.7,0c-3.4-0.2-4.6-1.1-3.6-2.6c1.1-1.5,2.2-3.7,3.5-6.6s2.1-5.7,2.4-8.3
			c0.3-2.7-0.1-5.5-1.2-8.7c-1.1-3.1-3.2-4.8-6.4-5.1c-3.2-0.3-5.9,0.1-8.1,1.2c-2.3,1.1-3.6,3-4.1,5.8c-0.5,2.8,0.3,4.6,2.5,5.5
			c2.2,0.9,3.7,0.7,4.5-0.7c0.9-1.4,1.9-2.2,3-2.4c1.2-0.2,1.9,0.5,2.2,2c0.3,1.5-0.6,4.7-2.7,9.5c-2.1,4.8-4.2,7.8-6.4,8.9
			c-2.2,1.1-3.1,3.2-2.7,6.3c0.4,3.1,2.2,4.5,5.4,4.2c3.2-0.3,7.8-0.2,13.6,0.2c5.8,0.4,9-1.1,9.5-4.5
			C266.2,119.1,265.3,117.5,263,117.7z"/>
		<path fill="#FFE36E" d="M113.8,81.3c-0.4-5.3-1.1-10-2.3-14.2s-2.4-6.6-3.6-7.2c-1.3-0.6-2.3-0.6-3,0.1c-0.7,0.7-0.9,3.1-0.5,7.4
			c0.3,4.3-0.1,6.5-1.2,6.7c-1.2,0.2-2.2-0.1-3-0.8c-0.8-0.7-1.3-3.2-1.5-7.5c-0.2-4.3-0.8-6.8-1.8-7.5s-2-0.9-2.8-0.8
			c-0.9,0.1-1.6,0.5-2.2,1.2c-0.6,0.7-0.6,2.8,0,6.4c0.6,3.6,1,7,1.1,10.3c0.1,3.3,1.3,5.2,3.4,5.6c2.1,0.4,4.2,0.6,6.4,0.6
			c2.1,0,3.6,0.1,4.3,0.3c0.7,0.3,1.3,1.4,1.7,3.5c0.4,2.1,0.9,3.4,1.6,3.9c0.7,0.5,1.6,0.6,2.6,0.3S114.2,86.6,113.8,81.3z"/>
		<path fill="#4CBF80" d="M223.5,108.7c-0.3-3.9-0.8-7.3-1.7-10.4s-1.7-4.8-2.7-5.3c-0.9-0.4-1.7-0.4-2.2,0.1
			c-0.5,0.5-0.7,2.3-0.4,5.4c0.3,3.1,0,4.8-0.9,4.9c-0.8,0.1-1.6-0.1-2.2-0.6c-0.6-0.5-1-2.3-1.1-5.5c-0.1-3.2-0.6-5-1.3-5.5
			c-0.8-0.5-1.5-0.7-2.1-0.6c-0.6,0.1-1.2,0.4-1.6,0.9s-0.5,2,0,4.7c0.4,2.6,0.7,5.1,0.8,7.6c0.1,2.4,0.9,3.8,2.5,4.1
			c1.5,0.3,3.1,0.5,4.7,0.4s2.6,0.1,3.1,0.3c0.5,0.2,0.9,1,1.2,2.6c0.3,1.5,0.7,2.5,1.2,2.8c0.5,0.4,1.2,0.4,1.9,0.2
			S223.8,112.6,223.5,108.7z"/>
		<path fill="#4CBF80" d="M200.2,30.4c-0.3-3.9-0.8-7.3-1.7-10.4c-0.8-3.1-1.7-4.8-2.7-5.3c-0.9-0.4-1.7-0.4-2.2,0.1
			c-0.5,0.5-0.7,2.3-0.4,5.4c0.3,3.1,0,4.8-0.9,4.9c-0.8,0.1-1.6-0.1-2.2-0.6s-1-2.3-1.1-5.5c-0.1-3.2-0.6-5-1.3-5.5
			s-1.5-0.7-2.1-0.6c-0.6,0.1-1.2,0.4-1.6,0.9s-0.5,2,0,4.7s0.7,5.1,0.8,7.6c0.1,2.4,0.9,3.8,2.5,4.1c1.5,0.3,3.1,0.5,4.7,0.4
			c1.6,0,2.6,0.1,3.1,0.3c0.5,0.2,0.9,1,1.2,2.6c0.3,1.5,0.7,2.5,1.2,2.8c0.5,0.4,1.2,0.4,1.9,0.2C200.2,36.2,200.4,34.2,200.2,30.4
			z"/>
		<path fill="#7CBDF2" d="M86.3,49c-2-1.9-8.4-2.9-19.1-3c-10.7-0.1-16.2,3-16.4,9.3c-0.2,6.3-0.3,11.5-0.1,15.5
			c0.2,4,1,6.9,2.6,8.8c1.6,1.8,5.4,2.3,11.6,1.2c6.2-1,9.4,0.3,9.8,3.9s-0.5,5.7-2.4,6.1c-2,0.4-4.7,0-8.3-1.3c-3.5-1.3-6-2-7.6-2
			c-1.5,0-2.6,1.1-3.3,3.4c-0.7,2.3-0.6,4.3,0.3,6.2c0.8,1.9,5.2,3.2,13.1,3.8s13,0.2,15.1-1.4c2.2-1.6,3.5-4.6,4.1-8.9
			c0.5-4.3-0.2-8.4-2.3-12.4c-2.1-3.9-4.4-6.7-7-8.2c-2.5-1.5-5.3-2.4-8.3-2.7c-3-0.3-4.4-1.9-4.4-5.1c0-3.1,1.8-4.5,5.6-4.1
			c3.7,0.4,7,1,9.9,1.6c2.9,0.7,5.4,0.9,7.5,0.7c2-0.2,3-1.7,2.8-4.5C89.3,53.3,88.3,50.9,86.3,49z"/>
		<path fill="#4CBF80" d="M47.4,77.1c-1.5-2.8-3.3-4.7-5.4-5.7c-2.1-1-2.8-2.4-2.2-4.3c0.6-1.9,0.6-4.3,0-7.3c-0.6-3-2.9-4.7-7-5.2
			c-4.1-0.5-7.4,0.2-9.9,2.2c-2.5,2-3.5,4.7-2.9,8c0.6,3.4,1.7,5.8,3.3,7.3c1.6,1.5,1.8,3.1,0.6,4.8c-1.2,1.7-1.4,4.5-0.8,8.4
			c0.6,3.9,3.3,6.2,8.1,7c4.8,0.7,8.5,0.4,11.1-1.1c2.7-1.5,4.6-3.5,5.7-6.1C49.1,82.6,48.9,79.9,47.4,77.1z M26.8,64.8
			c-0.7-2.8,0.3-4.4,3-4.9c2.7-0.4,4.2,0.9,4.5,4c0.3,3.1-0.7,4.7-3,4.9C29,69,27.5,67.7,26.8,64.8z M36.1,85.9
			c-2.7-0.1-4.4-1.1-5.1-3.1c-0.6-2-0.2-3.7,1.2-5c1.5-1.3,3.3-1.6,5.5-0.9c2.2,0.8,3.2,2.5,2.9,5.1C40.3,84.7,38.8,86,36.1,85.9z"
			/>
		<path fill="#EB6968" d="M202.7,56.9c-1.4-8.4-6.4-15.2-15.2-20.5c-8.8-5.3-17.8-5.4-27.2-0.3c-9.4,5.2-14,12.4-13.8,21.8
			c0.2,9.4,4.1,15.6,11.7,18.6c7.6,3,14.7,3.8,21.3,2.3c6.6-1.5,9.9-0.1,9.9,4.2s0,7.3-0.2,8.9c-0.2,1.6-2.9,3.2-8.2,4.6
			c-5.3,1.4-9.8,1.3-13.6-0.5c-3.8-1.8-7.8-2.2-12.1-1.3c-4.3,0.9-6.4,3-6.4,6.4c0,3.4,1.6,6.3,5,8.7c3.3,2.4,8.9,4,16.9,4.9
			c8,0.9,15.6-0.5,22.9-4.1s11-11.4,11-23.3C204.7,75.4,204.1,65.3,202.7,56.9z M174.3,65.3c-6.8-0.4-10.1-3.8-9.7-10.4
			c0.3-6.5,3.5-9.4,9.4-8.7c5.9,0.8,9.1,4.2,9.7,10.4C184.2,62.7,181.1,65.6,174.3,65.3z"/>
		<path fill="#4CBF80" d="M105.6,96.3c-0.4-2.5-1.9-4.5-4.5-6.1c-2.6-1.6-5.3-1.6-8.1-0.1c-2.8,1.5-4.1,3.7-4.1,6.5
			c0.1,2.8,1.2,4.6,3.5,5.5c2.3,0.9,4.4,1.1,6.3,0.7c1.9-0.4,2.9,0,2.9,1.3c0,1.3,0,2.1-0.1,2.6c-0.1,0.5-0.9,0.9-2.4,1.4
			c-1.6,0.4-2.9,0.4-4-0.2c-1.1-0.5-2.3-0.7-3.6-0.4c-1.3,0.3-1.9,0.9-1.9,1.9c0,1,0.5,1.9,1.5,2.6s2.6,1.2,5,1.5
			c2.4,0.3,4.6-0.1,6.8-1.2c2.2-1.1,3.2-3.4,3.3-6.9C106.2,101.8,106,98.8,105.6,96.3z M97.2,98.8c-2-0.1-3-1.1-2.9-3.1
			c0.1-1.9,1-2.8,2.8-2.6c1.7,0.2,2.7,1.3,2.9,3.1C100.1,98.1,99.2,98.9,97.2,98.8z"/>
		<path fill="#7CBDF2" d="M247.6,64.8c1.4,0.6,1.2,1.3-0.5,2.1c-1.7,0.8-3.3,2-4.5,3.6c-1.3,1.5-1,2.2,0.7,2c1.8-0.2,3.4,0,5,0.7
			c1.6,0.7,2.3,2.1,2.2,4.2c-0.1,2.2-0.8,3.6-2,4.4c-1.3,0.8-2.6,1.1-4.1,1c-1.5-0.1-2.7-0.5-3.6-1.1c-0.9-0.7-1.6-1.7-2-3.2
			c-0.4-1.5-0.6-3.2-0.6-5.1c0.1-1.9,0.6-3.7,1.7-5.2c1.1-1.5,2.3-2.6,3.7-3.3C244.8,64.3,246.2,64.2,247.6,64.8z M242.6,77.9
			c0.2,0.8,1,1.3,2.2,1.4c1.2,0.1,2-0.5,2.3-1.7c0.3-1.2-0.1-2-1.2-2.4c-1.1-0.4-2-0.2-2.6,0.4C242.6,76.3,242.4,77,242.6,77.9z"/>
		<path fill="#7CBDF2" d="M144,9c3.1,1.3,2.7,2.9-1.2,4.7c-3.9,1.8-7.2,4.5-10.1,7.9c-2.8,3.4-2.3,4.9,1.6,4.4c3.9-0.5,7.5,0,11,1.5
			c3.4,1.5,5.1,4.6,4.8,9.4c-0.2,4.8-1.7,8.1-4.5,9.8c-2.8,1.7-5.8,2.5-9.1,2.3c-3.3-0.2-5.9-1-8-2.5c-2-1.5-3.5-3.8-4.5-7.1
			c-1-3.3-1.4-7.1-1.3-11.3c0.1-4.3,1.4-8.1,3.8-11.5c2.4-3.4,5.1-5.8,8.2-7.3C137.8,7.8,140.9,7.7,144,9z M133,38
			c0.5,1.9,2.2,2.9,4.8,3.2c2.7,0.2,4.4-1,5-3.8c0.7-2.7-0.2-4.5-2.7-5.3c-2.4-0.8-4.4-0.5-5.8,0.9C132.9,34.5,132.5,36.1,133,38z"
			/>
		<path fill="#FFE36E" d="M47.6,95.5c2.3,1,2,2.2-0.9,3.6c-2.9,1.4-5.4,3.4-7.6,5.9c-2.1,2.6-1.7,3.7,1.2,3.3c2.9-0.4,5.7,0,8.3,1.1
			c2.6,1.1,3.8,3.5,3.6,7.1c-0.2,3.6-1.3,6.1-3.4,7.4c-2.1,1.3-4.4,1.9-6.8,1.7c-2.5-0.1-4.5-0.8-6-1.9c-1.5-1.1-2.7-2.9-3.4-5.4
			c-0.7-2.5-1.1-5.3-1-8.6c0.1-3.2,1-6.1,2.8-8.7c1.8-2.6,3.9-4.4,6.2-5.5C42.9,94.6,45.3,94.5,47.6,95.5z M39.3,117.4
			c0.4,1.4,1.6,2.2,3.7,2.4c2,0.2,3.3-0.8,3.8-2.8c0.5-2.1-0.2-3.4-2-4c-1.8-0.6-3.3-0.3-4.4,0.7C39.2,114.7,38.9,116,39.3,117.4z"
			/>
		<path fill="#EB6968" d="M10.6,71.2c-0.9-0.6-1.1-1.8-0.5-3.8c0.6-2,0.4-3.9-0.7-5.9c-1.1-1.9-2.7-3.1-4.7-3.6
			c-1.4-0.3-3-0.1-4.7,0.6v8.6c1.1-0.5,2.2-0.5,3-0.2c1.1,0.4,1.1,1.3,0.1,2.8c-1.1,1.4-1.9,2.8-2.5,4c-0.6,1.2-0.4,2.2,0.7,2.7
			c1.1,0.6,2.7,1.2,4.9,1.7c2.1,0.6,3.2,1.5,3.1,2.8c-0.1,1.3-1.2,1.7-3.4,1.4C3.8,82,1.9,82,0,82.3v6.3c0.1,0,0.2,0.1,0.3,0.1
			c2.6,0.7,5.4,0.9,8.2,0.6c2.9-0.3,5.1-1,6.7-2.1c1.6-1.1,2.5-2.6,2.8-4.5c0.2-1.8-0.7-4.1-2.9-6.7C13.1,73.4,11.5,71.8,10.6,71.2z
			"/>
		<path fill="#FFE36E" d="M270,57.3c-1.6-0.6-3.7-1.2-6.3-1.8c-5-1.2-8.7-1.4-11-0.8c-2.3,0.7-3.5,2.2-3.5,4.8
			c0,2.5,1.6,3.9,4.9,4.1c3.3,0.2,5.6,0.3,6.9,0.4c1.3,0,2.2,0.2,2.6,0.6c0.4,0.4,0.4,0.9,0,1.4c-0.4,0.5-1.1,2.5-2.1,6.1
			c-1,3.6-1.1,7.9-0.3,13.1c0.8,5.2,2.5,7.8,4.9,7.7c2.4,0,3.3-3,2.7-8.7c-0.5-4.4-0.1-8,1.2-10.9V57.3z"/>
		<path fill="#7CBDF2" d="M218.3,44.1c-1.6-2-2.8-3.2-3.5-3.6c-0.7-0.4-0.8-1.4-0.3-2.9c0.5-1.5,0.3-3-0.5-4.5
			c-0.8-1.5-2-2.4-3.6-2.7c-1.6-0.4-3.4,0.1-5.4,1.4c-2.1,1.3-2.6,2.7-1.8,4.4c0.9,1.6,1.9,2.1,3,1.5c1.1-0.6,2.1-0.7,2.9-0.4
			c0.8,0.3,0.9,1,0,2.1c-0.8,1.1-1.5,2.1-1.9,3.1c-0.5,0.9-0.3,1.6,0.6,2.1c0.9,0.5,2.1,0.9,3.7,1.3c1.6,0.4,2.4,1.1,2.4,2.1
			c0,1-0.9,1.3-2.6,1c-1.7-0.3-3.2-0.3-4.7-0.1c-1.5,0.2-2.3,1-2.4,2.2c-0.1,1.2,0.9,2.1,2.9,2.6c2,0.5,4.1,0.7,6.3,0.5
			c2.2-0.2,3.9-0.8,5.1-1.6c1.2-0.9,1.9-2,2.1-3.4C220.7,47.8,219.9,46.1,218.3,44.1z"/>
		<path fill="#EB6968" d="M70.1,116.7c-1.6-2-2.8-3.2-3.5-3.6c-0.7-0.4-0.8-1.4-0.3-2.9c0.5-1.5,0.3-3-0.5-4.5s-2-2.4-3.6-2.7
			c-1.6-0.4-3.4,0.1-5.4,1.4c-2.1,1.3-2.6,2.7-1.8,4.4c0.9,1.6,1.9,2.1,3,1.5c1.1-0.6,2.1-0.7,2.9-0.4c0.8,0.3,0.9,1,0,2.1
			c-0.8,1.1-1.5,2.1-1.9,3.1c-0.5,0.9-0.3,1.6,0.6,2.1c0.9,0.5,2.1,0.9,3.7,1.3c1.6,0.4,2.4,1.1,2.4,2.1c0,1-0.9,1.3-2.6,1
			c-1.7-0.3-3.2-0.3-4.7-0.1c-1.5,0.2-2.3,1-2.4,2.2c-0.1,1.2,0.9,2.1,2.9,2.6c2,0.5,4.1,0.7,6.3,0.5c2.2-0.2,3.9-0.8,5.1-1.6
			c1.2-0.9,1.9-2,2.1-3.4C72.5,120.4,71.7,118.7,70.1,116.7z"/>
		<path fill="#7CBDF2" d="M19.9,42.6c0-0.9-0.4-1.6-1.1-2.2c-0.7-0.6-2.4-1.2-5-1.8c-2.6-0.6-4.6-0.8-5.8-0.4
			c-1.2,0.3-1.8,1.2-1.8,2.5c0,1.3,0.9,2,2.6,2.1c1.7,0.1,2.9,0.2,3.6,0.2c0.7,0,1.1,0.1,1.4,0.3c0.2,0.2,0.2,0.5,0,0.7
			c-0.2,0.3-0.6,1.3-1.1,3.2c-0.5,1.9-0.6,4.2-0.1,6.9c0.4,2.7,1.3,4.1,2.5,4c1.3,0,1.7-1.6,1.4-4.6s0.2-5.4,1.5-7.1
			C19.2,44.8,19.9,43.5,19.9,42.6z"/>
		<path fill="#FFE36E" d="M48.8,30.5C48,28,46.5,26,44.1,24.4s-5-2.2-7.8-1.8c-2.8,0.4-5,2-6.7,4.9s-2.5,5.8-2.5,8.7
			c0,2.9,0.5,5.4,1.5,7.4c1,2,2.3,3.7,3.8,4.9c1.5,1.2,3.7,1.9,6.6,2.1c2.8,0.2,5.3-1.2,7.3-4.2c2-3,3.1-5.8,3.3-8.4
			C49.8,35.5,49.5,33,48.8,30.5z M43.1,42.8c-1.3,1.5-3,2-5.1,1.6c-2.1-0.4-3.6-1.3-4.4-2.6c-0.8-1.4-1.2-2.9-1.2-4.7
			c0-1.8,0.6-3.6,1.7-5.4c1.1-1.8,2.4-2.8,4-3s2.7,0,3.5,0.5c0.8,0.5,1.6,1.6,2.3,3.3c0.7,1.7,1.1,3.4,1.1,5.3
			C45,39.6,44.4,41.3,43.1,42.8z"/>
		<path opacity="8.000000e-02" fill="#8C5045" d="M138.9,99.7c-3.3-2.1-6.8-2.9-10.5-2.4c-3.7,0.5-6.7,2.7-9,6.6
			c-2.3,3.9-3.4,7.8-3.4,11.8c0,4,0.7,7.3,2,10.1c0.7,1.4,1.4,2.6,2.3,3.7H142c0,0,0,0,0,0c2.8-4.1,4.3-7.9,4.4-11.3
			c0.2-3.4-0.2-6.8-1.1-10.2C144.3,104.6,142.2,101.9,138.9,99.7z M137.6,124.6c-1.7,2-4,2.7-6.9,2.2c-2.9-0.5-4.8-1.7-5.9-3.6
			c-1.1-1.8-1.6-4-1.6-6.4c0-2.4,0.8-4.8,2.3-7.3c1.5-2.5,3.3-3.8,5.4-4.1c2.1-0.2,3.6,0,4.7,0.7c1.1,0.7,2.1,2.2,3.1,4.4
			c1,2.3,1.5,4.7,1.5,7.2C140.2,120.3,139.3,122.6,137.6,124.6z"/>
		<path fill="#7CBDF2" d="M207.9,120.5c-0.7-0.4-0.8-1.4-0.3-2.9c0.5-1.5,0.3-3-0.5-4.5c-0.8-1.5-2-2.4-3.6-2.7
			c-1.6-0.4-3.4,0.1-5.4,1.4c-2.1,1.3-2.6,2.7-1.8,4.4c0.9,1.6,1.9,2.1,3,1.5c1.1-0.6,2.1-0.7,2.9-0.4c0.8,0.3,0.9,1,0,2.1
			c-0.8,1.1-1.5,2.1-1.9,3.1c-0.5,0.9-0.3,1.6,0.6,2.1c0.9,0.5,2.1,0.9,3.7,1.3c1.6,0.4,2.4,1.1,2.4,2.1c0,1-0.9,1.3-2.6,1
			c-1.7-0.3-3.2-0.3-4.7-0.1c-0.6,0.1-1.1,0.3-1.5,0.6h15.5c0-0.1,0-0.2,0.1-0.3c0.2-1.4-0.6-3.1-2.2-5.1
			C209.8,122.1,208.6,120.9,207.9,120.5z"/>
		<path fill="#EB6968" d="M66,5.6c0.5,6.5-0.1,9.9-1.8,10.1c-1.8,0.3-3.3-0.1-4.5-1.2c-1.3-1.1-2-4.8-2.3-11.4
			c0-1.2-0.1-2.2-0.2-3.2H46.7c0.1,0.6,0.2,1.3,0.3,2c0.9,5.4,1.5,10.6,1.7,15.6c0.2,5,1.9,7.8,5.1,8.5c3.2,0.6,6.4,0.9,9.6,0.9
			c3.2,0,5.4,0.1,6.5,0.5c1.1,0.4,1.9,2.2,2.5,5.3c0.6,3.2,1.4,5.1,2.5,5.8c1.1,0.7,2.4,0.9,4,0.5c1.6-0.4,2.1-4.6,1.6-12.6
			c-0.6-8-1.7-15.1-3.4-21.5c-0.5-2-1.1-3.7-1.6-5.1h-9.4C65.8,1.6,65.9,3.4,66,5.6z"/>
		<path fill="#4CBF80" d="M113,1.4c1.3,3,1.9,6.2,1.9,9.5c0,3.4-1.2,6.4-3.4,9c-2.3,2.7-5.3,3.6-9.1,2.9c-3.8-0.7-6.4-2.3-7.8-4.7
			c-1.4-2.4-2.1-5.3-2.1-8.4c0-3.2,1-6.4,3-9.6H84c-0.8,2.7-1.2,5.4-1.2,8.2c0,5.2,0.9,9.7,2.7,13.3c1.8,3.6,4.1,6.6,6.8,8.7
			c2.8,2.2,6.7,3.4,11.8,3.8c5.1,0.4,9.5-2.2,13.1-7.6c3.7-5.4,5.6-10.4,5.9-15c0.2-3.8-0.1-7.6-1-11.4h-9.8
			C112.5,0.4,112.7,0.9,113,1.4z"/>
		<path fill="#FFE36E" d="M259.6,8.1c0,2.9,0.5,5.4,1.5,7.4c1,2,2.3,3.7,3.8,4.9c1.3,1,3,1.6,5.1,2v-6.2c-1.9-0.4-3.2-1.3-3.9-2.5
			c-0.8-1.4-1.2-2.9-1.2-4.7c0-1.8,0.6-3.6,1.7-5.4c1-1.6,2.1-2.5,3.3-2.9V0h-8.2C260.3,2.7,259.6,5.4,259.6,8.1z"/>
		<path fill="#4CBF80" d="M226.5,10.6c0.9,4.9,2.5,8.5,4.7,10.6c2.3,2.2,2.6,4.5,0.9,7c-1.7,2.5-2.1,6.6-1.2,12.3
			c0.9,5.7,4.8,9.1,11.7,10.2c6.9,1.1,12.3,0.5,16.2-1.6c3.9-2.1,6.6-5.1,8.3-8.8c1.6-3.8,1.4-7.7-0.8-11.8
			c-2.2-4.1-4.8-6.8-7.8-8.3c-3-1.4-4.1-3.5-3.2-6.2c0.9-2.7,0.9-6.3,0-10.6C255,2.1,254.5,1,253.7,0h-24.3
			C226.7,2.7,225.7,6.3,226.5,10.6z M252.2,28.2c3.2,1.1,4.6,3.6,4.2,7.5c-0.5,3.8-2.7,5.7-6.7,5.6c-4-0.1-6.4-1.6-7.4-4.5
			c-0.9-2.9-0.4-5.3,1.8-7.3C246.3,27.5,249,27.1,252.2,28.2z M240.6,3.6c3.9-0.6,6.1,1.4,6.5,5.9c0.4,4.5-1.1,6.8-4.4,7
			c-3.3,0.2-5.5-1.8-6.5-5.9C235.2,6.5,236.7,4.2,240.6,3.6z"/>
	</g>
</g>
<g>
	<defs>
		<rect id="SVGID_13_" x="-290" y="153" width="270" height="129.5"/>
	</defs>
	<clipPath id="SVGID_2_">
		<use xlink:href="#SVGID_13_"  overflow="visible"/>
	</clipPath>
</g>
<g>
	<defs>
		<rect id="SVGID_17_" y="153" width="270" height="129.5"/>
	</defs>
	<clipPath id="SVGID_4_">
		<use xlink:href="#SVGID_17_"  overflow="visible"/>
	</clipPath>
	<g clip-path="url(#SVGID_4_)">
		<path fill="#315E51" d="M-12.5,195.5v16.2h40.6c92.4-8.1,245.8-8.7,245.8-8.7l0,5.5h27.2v-16.2c0.2,0,0.5-0.1,0.7-0.2
			c0.3-0.1,0.3-0.6,0-0.6c-0.2,0-0.3-0.1-0.5-0.1c0.4-0.1,0.8-0.3,1.2-0.5c0.3-0.1,0.2-0.6-0.1-0.6c-1.2-0.2-2.4-0.3-3.6-0.4
			c-0.6,0-1.2,0-1.8-0.1c-0.1,0-0.2,0-0.3,0c-0.1,0-0.3,0-0.4,0c-0.1,0-0.2,0-0.2,0c-0.2,0-0.4,0-0.6,0c0,0,0,0,0,0
			c0.1-0.1,0.2-0.2,0.2-0.3c0-0.1,0-0.2,0-0.2c0.5-0.1,1-0.1,1.4-0.2c0.3,0,0.4-0.5,0.1-0.6c0,0,0,0,0,0c0.6-0.1,1.2-0.4,1.7-0.8
			c0.2-0.2,0.2-0.7-0.2-0.6c-1.1,0.2-2.2,0.2-3.3,0.1c0-0.2-0.1-0.2-0.3-0.4c-0.4-0.5-0.9-0.9-1.5-1.2c0,0,0,0,0,0
			c-0.5-0.3-1-0.5-1.6-0.7c0.3,0,0.6,0.1,1,0.1c0.3,0,0.4-0.3,0.3-0.5c0.5,0.1,1,0.1,1.6,0.2c0.2,0,0.4-0.3,0.3-0.5
			c-0.1-0.1-0.1-0.1-0.2-0.2c0.5,0,1-0.1,1.6-0.1c0.3,0,0.4-0.3,0.3-0.5c0,0,0-0.1,0-0.1c0.4,0,0.9-0.1,1.3-0.2
			c0.3-0.1,0.3-0.6,0-0.6c-1.9-0.2-3.9-0.6-5.8-1.4c0,0-0.1,0-0.1-0.1c0.1-0.1,0.2-0.2,0.3-0.4c0,0,0-0.1,0-0.1c0-0.1,0-0.1,0,0
			c0.1,0,0.4,0.1,0.4,0.1c0.3,0,0.6,0.1,1,0.1c0.6,0,1.2-0.1,1.8-0.2c0.3-0.1,0.3-0.5,0-0.6c-1-0.4-1.9-1-2.7-1.7
			c-0.3-0.2-0.5-0.4-0.8-0.7c0.2,0,0.5,0.1,0.7,0.1c0.3,0,0.5-0.3,0.4-0.5c-0.1-0.1,0.3,0,0.4,0c0.1,0,0.3,0,0.4,0.1
			c0.4,0,0.7,0,1.1-0.1c0.3-0.1,0.3-0.4,0.1-0.6c-0.2-0.2-0.4-0.4-0.6-0.7l0.7-0.1c0.3,0,0.5-0.5,0.1-0.6c-1.5-0.6-2.9-1.4-4.2-2.5
			c-0.2-0.2-0.4-0.4-0.6-0.6c0-0.1,0-0.1,0-0.2c0.1,0.3,0.6,0.4,0.9,0.5c0.3,0.1,0.7,0.2,1,0.2c0.3,0,0.4-0.3,0.3-0.5
			c-0.1-0.3-0.3-0.6-0.4-0.9c0.5,0,0.9,0,1.4-0.2c0.3-0.1,0.3-0.4,0-0.6c-0.3-0.2-0.6-0.3-0.9-0.5c-0.3-0.1-0.6-0.3-0.9-0.6
			c-0.5-0.4-1-0.9-1.5-1.4c0,0-0.1-0.1-0.1-0.1c-0.1-0.2-0.2-0.5-0.4-0.7c-0.1-0.3-0.3-0.5-0.4-0.8c0.3,0,0.7,0,1,0
			c0.2,0,0.3-0.3,0.1-0.4c0,0-0.1-0.1-0.1-0.1c0.3,0,0.7,0,1-0.1c0.3,0,0.3-0.4,0-0.5c-0.7-0.1-1.3-0.3-1.9-0.6
			c-0.4-0.2-0.8-0.4-1.2-0.7c0.1,0,0.2,0,0.2,0c0.1,0,0.2-0.1,0.2-0.2c0.3,0.1,0.6,0.1,1,0.1c0.1,0,0.2-0.1,0.2-0.3
			c0.2,0,0.5-0.1,0.7-0.1c0.2-0.1,0.2-0.4,0-0.4c-1-0.4-1.9-1.1-2.4-2c0.3,0,0.7,0,1-0.1c0.2,0,0.2-0.4,0-0.4
			c-0.2-0.1-0.4-0.2-0.6-0.3c0.1-0.1,0.1-0.3,0-0.4c-0.2-0.1-0.4-0.3-0.5-0.4c0.1,0,0.1,0,0.2,0c0.2,0,0.3-0.3,0.1-0.4
			c-0.8-0.7-0.9-1.8-1.1-2.8c-0.2-0.8-0.5-0.6-0.6-0.3c-0.2,0.9-0.6,1.8-1.2,2.6c-0.1,0.2,0,0.4,0.2,0.4c0,0,0.1,0,0.1,0
			c-0.2,0.6-0.6,1.2-1.1,1.5c-0.2,0.1-0.1,0.4,0.1,0.4c0.2,0,0.4,0,0.6-0.1c0,0.1,0.1,0.3,0.2,0.3c0.1,0,0.2,0,0.3,0
			c-0.4,0.9-1.2,1.6-2.1,1.9c-0.2,0.1-0.2,0.4,0,0.5c0.4,0.1,0.7,0.1,1.1,0c0,0,0,0.1,0.1,0.1c0.1,0.1,0.2,0.2,0.4,0.1
			c0,0.1,0.1,0.2,0.3,0.3c-1,0.6-2.3,0.7-3.5,0.8c-0.2,0-0.3,0.3-0.1,0.4c0.5,0.3,1,0.5,1.5,0.5l-0.1,0.1c-0.1,0.2,0,0.4,0.2,0.4
			c0.4,0,0.8-0.1,1.1-0.2c0,0.1,0,0.1,0,0.2c-0.1,0.1-0.1,0.2-0.2,0.3c-0.1,0.2-0.3,0.5-0.4,0.7c-0.5,0.7-1.1,1.4-1.7,2
			c-0.7,0.6-1.5,1-2.4,1.3c-0.3,0.1-0.3,0.4,0,0.6c0.8,0.6,1.9,0.8,2.8,0.6c0,0.1,0,0.1,0,0.2c0,0.1,0.1,0.2,0.3,0.2
			c-0.1,0.1-0.1,0.1-0.1,0.2c-1.4,1.4-2.9,2.7-4.5,3.8c-0.2,0.2-0.2,0.5,0.1,0.6c1,0.2,1.9,0.3,2.9,0.3c0,0.1,0,0.2,0,0.2
			c0,0,0,0,0,0c-0.1,0.1-0.2,0.2-0.3,0.2c-0.2,0.2-0.5,0.4-0.7,0.6c0,0-0.1,0.1-0.1,0.1c-0.6,0.5-1.3,0.9-2,1.3
			c-0.4,0.2-0.1,0.7,0.3,0.6c0.2,0,0.4-0.1,0.6-0.1c-0.2,0.2,0,0.5,0.3,0.5c0.6,0,1.1-0.1,1.7-0.2c0,0,0,0.1,0,0.1
			c-0.6,0.2-1.1,0.4-1.7,0.5c-0.1,0-0.1,0-0.1,0.1c0,0,0,0,0,0c0,0,0,0,0,0c0,0,0,0,0,0c-0.1,0.1-0.1,0.3,0,0.4
			c-1,0.3-2.1,0.4-3.1,0.4c-0.3,0-0.4,0.4-0.2,0.6c0.7,0.6,1.6,1.1,2.6,1.3c0.2,0.1,0.5,0.1,0.7,0.1c0.2,0,0.5,0,0.6,0
			c0.2,0.1,0.2,0.3,0.4,0.4c0.2,0.1,0.3,0,0.5,0c0.3,0.1,0.5,0.4,0.8,0.5c0.3,0.1,0.6,0,0.9-0.2c0,0,0.1,0.1,0.1,0.1
			c0,0,0.1,0.1,0.1,0.1c-0.2,0.2-0.5,0.3-0.8,0.4c-0.3,0.1-0.5,0.3-0.8,0.4c-1.5,0.7-3.1,1.3-4.8,1.7c-0.4,0-0.7,0-1.1,0
			c-0.1,0-0.2,0-0.4,0c-0.2,0-0.3,0-0.5,0c-0.1,0-0.2,0-0.3,0c-0.2,0-0.5,0-0.7,0c0,0,0,0,0,0c0.1-0.1,0.2-0.2,0.2-0.4
			c0-0.1,0-0.2,0-0.3c0.6-0.1,1.1-0.2,1.7-0.2c0.4-0.1,0.5-0.5,0.2-0.7c0,0,0,0,0,0c0.7-0.2,1.4-0.5,2-0.9c0.3-0.2,0.2-0.8-0.2-0.7
			c-1.3,0.2-2.6,0.2-3.9,0.1c0-0.2-0.2-0.2-0.3-0.4c-0.4-0.6-1-1.1-1.7-1.4c0,0,0,0,0,0c-0.5-0.3-1.2-0.6-1.9-0.9
			c0.4,0,0.7,0.1,1.1,0.1c0.3,0,0.4-0.3,0.3-0.6c0.6,0.1,1.2,0.2,1.8,0.2c0.3,0,0.5-0.4,0.3-0.6c-0.1-0.1-0.1-0.2-0.2-0.2
			c0.6,0,1.2-0.1,1.8-0.1c0.3,0,0.4-0.3,0.3-0.6c0,0,0-0.1-0.1-0.1c0.5-0.1,1-0.1,1.6-0.2c0.4-0.1,0.3-0.7,0-0.8
			c-2.2-0.2-4.6-0.7-6.7-1.6c0,0-0.1,0-0.1-0.1c0.1-0.1,0.3-0.2,0.3-0.4c0,0,0-0.1,0-0.1c0-0.1,0-0.1,0,0c0.1,0,0.4,0.1,0.5,0.1
			c0.4,0.1,0.7,0.1,1.1,0.1c0.7,0,1.4-0.1,2.1-0.2c0.3-0.1,0.4-0.6,0.1-0.7c-1.1-0.5-2.2-1.2-3.2-1.9c-0.3-0.2-0.6-0.5-0.9-0.8
			c0.3,0,0.5,0.1,0.8,0.1c0.3,0,0.6-0.3,0.4-0.6c-0.1-0.1,0.4-0.1,0.5,0c0.2,0,0.3,0.1,0.5,0.1c0.4,0,0.8,0,1.2-0.1
			c0.3-0.1,0.3-0.5,0.1-0.7c-0.2-0.2-0.4-0.5-0.6-0.8l0.8-0.1c0.3,0,0.6-0.6,0.2-0.7c-1.8-0.7-3.4-1.7-4.8-2.9
			c-0.2-0.2-0.5-0.4-0.7-0.6c0-0.1,0-0.2,0-0.2c0.1,0.3,0.8,0.5,1.1,0.6c0.4,0.1,0.8,0.2,1.2,0.2c0.3,0,0.4-0.3,0.3-0.6
			c-0.2-0.4-0.3-0.7-0.5-1.1c0.6,0,1.1,0,1.6-0.2c0.3-0.1,0.3-0.5,0.1-0.7c-0.3-0.2-0.7-0.4-1.1-0.5c-0.4-0.2-0.7-0.4-1.1-0.7
			c-0.6-0.5-1.2-1.1-1.7-1.6c0,0-0.1-0.1-0.1-0.1c-0.1-0.3-0.3-0.6-0.4-0.8c-0.2-0.3-0.3-0.6-0.5-0.9c0.4,0,0.8,0,1.2,0
			c0.3,0,0.3-0.3,0.2-0.5c0-0.1-0.1-0.1-0.1-0.2c0.4,0,0.8,0,1.2-0.1c0.3,0,0.3-0.5,0-0.5c-0.8-0.1-1.5-0.4-2.2-0.7
			c-0.5-0.2-1-0.5-1.4-0.9c0.1,0,0.2,0,0.3,0c0.1,0,0.2-0.1,0.2-0.2c0.4,0.1,0.7,0.1,1.1,0.1c0.2,0,0.3-0.2,0.3-0.3
			c0.3,0,0.6-0.1,0.9-0.1c0.2-0.1,0.3-0.4,0-0.5c-1.2-0.4-2.2-1.2-2.8-2.3c0.4,0,0.8-0.1,1.2-0.1c0.2,0,0.3-0.4,0-0.5
			c-0.3-0.1-0.5-0.2-0.7-0.4c0.1-0.1,0.2-0.3,0-0.4c-0.2-0.1-0.4-0.3-0.6-0.5c0.1,0,0.1,0,0.2,0c0.2,0,0.4-0.3,0.2-0.5
			c-0.9-0.8-1.1-2.1-1.3-3.2c-0.2-0.9-0.6-0.6-0.7-0.3c-0.3,1.1-0.7,2.1-1.4,3c-0.2,0.2,0,0.5,0.3,0.4c0,0,0.1,0,0.1,0
			c-0.2,0.7-0.7,1.3-1.3,1.7c-0.2,0.1-0.1,0.5,0.2,0.5c0.2,0,0.5,0,0.7-0.1c0,0.2,0.1,0.4,0.3,0.3c0.1,0,0.2,0,0.3,0
			c-0.4,1.1-1.3,1.9-2.5,2.2c-0.3,0.1-0.2,0.5,0,0.5c0.4,0.1,0.8,0.1,1.3,0c0,0,0,0.1,0.1,0.1c0.1,0.1,0.3,0.2,0.5,0.2
			c0.1,0.1,0.2,0.2,0.3,0.3c-1.2,0.7-2.7,0.9-4.1,1c-0.3,0-0.3,0.4-0.1,0.5c0.5,0.3,1.1,0.6,1.8,0.6l-0.1,0.1
			c-0.2,0.2,0,0.5,0.2,0.5c0.5,0,0.9-0.1,1.3-0.2c0,0.1,0,0.2,0,0.3c-0.1,0.1-0.1,0.2-0.2,0.3c-0.2,0.3-0.3,0.6-0.5,0.8
			c-0.6,0.8-1.2,1.7-2,2.4c-0.8,0.7-1.8,1.2-2.8,1.5c-0.3,0.1-0.3,0.5-0.1,0.7c1,0.7,2.2,0.9,3.3,0.6c0,0.1,0,0.1,0,0.2
			c0,0.1,0.2,0.2,0.3,0.3c-0.1,0.1-0.1,0.1-0.2,0.2c-1.6,1.7-3.3,3.2-5.3,4.4c-0.3,0.2-0.2,0.6,0.1,0.7c1.1,0.2,2.2,0.4,3.4,0.4
			c0,0.1,0,0.2,0,0.3c0,0,0,0,0,0c0,0,0,0,0,0c-2.3-0.3-4.7-0.9-6.9-1.8c-0.1,0-0.1-0.1-0.2-0.1c0.2-0.1,0.3-0.2,0.4-0.5
			c0-0.1,0-0.1,0-0.2c0-0.1,0-0.1,0-0.1c0.1-0.1,0.5,0.1,0.6,0.1c0.5,0.1,0.9,0.1,1.4,0.1c0.9,0,1.7-0.1,2.6-0.3
			c0.4-0.1,0.4-0.7,0.1-0.9c-1.4-0.6-2.7-1.4-3.9-2.4c-0.4-0.3-0.7-0.6-1.1-0.9c0.3,0.1,0.7,0.1,1,0.1c0.4,0,0.8-0.4,0.5-0.7
			c-0.1-0.1,0.5-0.1,0.6-0.1c0.2,0,0.4,0.1,0.6,0.1c0.5,0,1,0,1.5-0.1c0.4-0.1,0.4-0.6,0.2-0.8c-0.3-0.3-0.5-0.6-0.8-0.9l0.9-0.1
			c0.4-0.1,0.7-0.7,0.2-0.9c-2.2-0.9-4.2-2-5.9-3.6c-0.3-0.3-0.6-0.5-0.9-0.8c0-0.1,0-0.2,0-0.3c0.1,0.4,0.9,0.6,1.3,0.7
			c0.5,0.2,1,0.2,1.5,0.3c0.4,0,0.5-0.4,0.4-0.7c-0.2-0.4-0.4-0.9-0.6-1.3c0.7,0,1.4,0,2-0.2c0.4-0.1,0.4-0.6,0.1-0.9
			c-0.4-0.3-0.9-0.5-1.3-0.7c-0.5-0.2-0.9-0.5-1.3-0.8c-0.7-0.6-1.4-1.3-2.1-2c0,0-0.1-0.1-0.1-0.1c-0.2-0.3-0.4-0.7-0.5-1
			c-0.2-0.4-0.4-0.8-0.6-1.1c0.5,0,1,0.1,1.5,0c0.3,0,0.4-0.4,0.2-0.6c-0.1-0.1-0.1-0.1-0.2-0.2c0.5,0,1-0.1,1.4-0.1
			c0.4,0,0.4-0.6,0.1-0.7c-0.9-0.2-1.8-0.5-2.7-0.9c-0.6-0.3-1.2-0.6-1.7-1c0.1,0,0.2,0,0.3,0c0.1,0,0.3-0.1,0.3-0.2
			c0.5,0.1,0.9,0.1,1.4,0.1c0.2,0,0.3-0.2,0.3-0.4c0.4,0,0.7-0.1,1.1-0.2c0.3-0.1,0.3-0.5,0-0.6c-1.5-0.5-2.7-1.5-3.5-2.9
			c0.5,0,0.9-0.1,1.4-0.2c0.3-0.1,0.3-0.5,0-0.6c-0.3-0.1-0.6-0.3-0.9-0.5c0.2-0.1,0.2-0.4,0-0.5c-0.3-0.2-0.5-0.4-0.7-0.6
			c0.1,0,0.2,0,0.3,0c0.3,0,0.4-0.4,0.2-0.6c-1.1-1-1.3-2.6-1.6-4c-0.3-1.1-0.7-0.8-0.8-0.4c-0.3,1.3-0.9,2.6-1.7,3.7
			c-0.2,0.3,0,0.6,0.4,0.5c0,0,0.1,0,0.1,0c-0.2,0.9-0.8,1.7-1.6,2.1c-0.3,0.2-0.1,0.6,0.2,0.6c0.3,0,0.6,0,0.9-0.1
			c-0.1,0.2,0.1,0.4,0.3,0.4c0.1,0,0.3,0,0.4-0.1c-0.5,1.3-1.6,2.3-3,2.7c-0.3,0.1-0.3,0.6,0,0.6c0.5,0.1,1,0.2,1.5,0.1
			c0,0,0.1,0.1,0.1,0.1c0.2,0.2,0.4,0.2,0.6,0.2c0.1,0.2,0.2,0.3,0.4,0.4c-1.5,0.9-3.3,1.1-5,1.2c-0.4,0-0.4,0.5-0.1,0.6
			c0.7,0.4,1.4,0.7,2.2,0.8l-0.1,0.1c-0.2,0.2,0,0.6,0.3,0.6c0.6,0,1.1-0.1,1.6-0.3c0,0.1,0,0.2,0,0.3c0,0,0,0,0,0c0,0,0,0,0,0.1
			c-0.1,0.1-0.1,0.2-0.2,0.3c-0.1,0.2-0.2,0.3-0.3,0.4c-0.1,0.2-0.2,0.3-0.3,0.5c-0.7,1-1.5,2-2.5,2.9c-0.4,0.3-0.8,0.6-1.3,0.9
			c-0.3-0.2-0.6-0.4-0.9-0.7c-0.3-0.3-0.7-0.5-1-0.8c-0.3-0.3-0.6-0.6-1-0.9c0-0.1,0-0.2,0-0.3c0.2,0.4,1,0.6,1.4,0.8
			c0.5,0.2,1,0.3,1.6,0.3c0.4,0,0.6-0.5,0.4-0.8c-0.2-0.5-0.4-1-0.7-1.4c0.7,0,1.5,0,2.2-0.3c0.5-0.1,0.4-0.7,0.1-1
			c-0.4-0.3-0.9-0.5-1.4-0.7c-0.5-0.2-1-0.5-1.4-0.9c-0.8-0.7-1.6-1.4-2.3-2.2c0,0-0.1-0.1-0.1-0.1c-0.2-0.4-0.4-0.7-0.6-1.1
			c-0.2-0.4-0.4-0.8-0.6-1.2c0.5,0,1.1,0.1,1.6,0.1c0.3,0,0.4-0.4,0.2-0.6c-0.1-0.1-0.1-0.1-0.2-0.2c0.5,0,1-0.1,1.5-0.1
			c0.4,0,0.5-0.6,0.1-0.7c-1-0.2-2-0.5-2.9-1c-0.6-0.3-1.3-0.7-1.8-1.1c0.1,0,0.2,0,0.4,0c0.2,0,0.3-0.1,0.3-0.2
			c0.5,0.1,1,0.1,1.5,0.1c0.2,0,0.4-0.2,0.3-0.4c0.4,0,0.8-0.1,1.1-0.2c0.3-0.1,0.4-0.6,0.1-0.7c-1.6-0.6-2.9-1.6-3.7-3.1
			c0.5,0,1-0.1,1.5-0.2c0.3-0.1,0.3-0.6,0.1-0.7c-0.3-0.1-0.6-0.3-0.9-0.5c0.2-0.1,0.2-0.4,0-0.6c-0.3-0.2-0.6-0.4-0.8-0.6
			c0.1,0,0.2,0,0.3,0c0.3,0,0.5-0.4,0.2-0.6c-1.2-1.1-1.4-2.8-1.8-4.3c-0.3-1.2-0.8-0.9-0.9-0.4c-0.4,1.5-1,2.8-1.9,4
			c-0.2,0.3,0,0.7,0.4,0.6c0,0,0.1,0,0.1,0c-0.3,1-0.9,1.8-1.8,2.3c-0.3,0.2-0.1,0.7,0.2,0.7c0.3,0,0.6,0,0.9-0.1
			c-0.1,0.2,0.1,0.5,0.4,0.4c0.1,0,0.3,0,0.4-0.1c-0.6,1.4-1.8,2.5-3.3,2.9c-0.4,0.1-0.3,0.6,0,0.7c0.6,0.2,1.1,0.2,1.7,0.1
			c0,0,0.1,0.1,0.1,0.1c0.2,0.2,0.4,0.2,0.6,0.2c0.1,0.2,0.2,0.3,0.4,0.4c-1.6,1-3.5,1.1-5.4,1.3c-0.4,0-0.4,0.5-0.1,0.7
			c0.7,0.5,1.5,0.7,2.4,0.8l-0.1,0.1c-0.2,0.2,0,0.6,0.3,0.6c0.6,0,1.2-0.1,1.7-0.3c0,0.1,0,0.2,0,0.4c0,0,0,0,0,0c0,0,0,0.1,0,0.1
			c-0.1,0.1-0.2,0.2-0.2,0.4c-0.1,0.2-0.2,0.3-0.3,0.5c-0.1,0.2-0.2,0.4-0.4,0.6c-0.8,1.1-1.7,2.2-2.7,3.1c-1,0.9-2.3,1.6-3.7,2
			c-0.4,0.2-0.5,0.7-0.1,1c0.3,0.2,0.6,0.4,0.8,0.5c-0.3,0.8-0.7,1.6-1.2,2.3c-0.2,0.2,0,0.5,0.3,0.4c0,0,0.1,0,0.1,0
			c-0.2,0.7-0.7,1.3-1.3,1.7c-0.2,0.1-0.1,0.5,0.2,0.5c0.2,0,0.5,0,0.7-0.1c0,0.2,0.1,0.4,0.3,0.3c0.1,0,0.2,0,0.3,0
			c0,0.1-0.1,0.1-0.1,0.2c-0.8,0.6-1.7,1.2-2.5,1.8c-0.4,0.2-0.3,0.8,0.2,0.9c0.6,0.1,1.3,0.2,1.9,0.3c0.1,0.1,0.1,0.1,0.2,0.2
			c-1.2,0.7-2.7,0.9-4.1,1c-0.3,0-0.3,0.4-0.1,0.5c0.5,0.3,1.1,0.6,1.8,0.6l-0.1,0.1c-0.2,0.2,0,0.5,0.2,0.5c0.5,0,0.9-0.1,1.3-0.2
			c0,0.1,0,0.2,0,0.3c-0.1,0.1-0.1,0.2-0.2,0.3c0,0,0,0,0,0c-0.4,0.3-0.9,0.6-1.3,0.8c-0.4,0.3-0.2,0.7,0.1,0.9
			c-0.4,0.5-0.8,1-1.3,1.4c-0.8,0.7-1.8,1.2-2.8,1.5c-0.3,0.1-0.3,0.5-0.1,0.7c0.2,0.1,0.4,0.2,0.6,0.3c0.7,0.6,1.6,1.1,2.5,1.4
			c-1.5,1.5-3.1,2.9-4.9,4c-0.3,0.2-0.2,0.6,0.1,0.7c1.1,0.2,2.2,0.4,3.4,0.4c0,0.1,0,0.2,0,0.3c0,0,0,0,0,0
			c-0.1,0.1-0.2,0.2-0.3,0.3c0,0,0,0,0,0c-0.7,0.2-1.3,0.4-2,0.6c-0.2,0.1-0.3,0.3-0.3,0.5c-1.4,0.2-2.9,0.2-4.3,0
			c0-0.2-0.2-0.3-0.4-0.5c-0.6-0.8-1.4-1.4-2.3-1.9c0,0,0,0,0,0c-0.7-0.4-1.6-0.8-2.5-1.1c0.5,0.1,1,0.1,1.5,0.1
			c0.4,0,0.6-0.4,0.4-0.7c0.8,0.1,1.6,0.2,2.4,0.2c0.4,0,0.6-0.5,0.4-0.8c-0.1-0.1-0.2-0.2-0.2-0.3c0.8,0,1.6-0.1,2.4-0.1
			c0.4,0,0.6-0.5,0.4-0.8c0,0,0-0.1-0.1-0.1c0.7-0.1,1.4-0.2,2.1-0.3c0.5-0.1,0.5-0.9-0.1-1c-2.9-0.3-6.2-0.9-9-2.2
			c0.2-0.1,0.3-0.2,0.4-0.6c0-0.1,0-0.1,0-0.2c0-0.1,0-0.2,0-0.1c0.1-0.1,0.5,0.1,0.7,0.1c0.5,0.1,1,0.1,1.5,0.1
			c0.9,0,1.9-0.1,2.8-0.3c0.4-0.1,0.5-0.8,0.1-1c-1.5-0.7-2.9-1.5-4.2-2.6c-0.4-0.3-0.8-0.7-1.2-1c0.4,0.1,0.7,0.1,1.1,0.2
			c0.4,0,0.8-0.4,0.5-0.8c-0.1-0.1,0.5-0.1,0.6-0.1c0.2,0,0.5,0.1,0.7,0.1c0.6,0,1.1,0,1.6-0.1c0.4-0.1,0.4-0.6,0.2-0.9
			c-0.3-0.3-0.6-0.7-0.8-1l1-0.1c0.5-0.1,0.7-0.8,0.2-1c-1.9-0.8-3.8-1.8-5.4-3c-0.3-0.3-0.7-0.5-1-0.8c-0.3-0.3-0.6-0.6-1-0.9
			c0-0.1,0-0.2,0-0.3c0.2,0.4,1,0.6,1.4,0.8c0.5,0.2,1,0.3,1.6,0.3c0.4,0,0.6-0.5,0.4-0.8c-0.2-0.5-0.4-1-0.7-1.4
			c0.7,0,1.5,0,2.2-0.3c0.5-0.1,0.4-0.7,0.1-1c-0.4-0.3-0.9-0.5-1.4-0.7c-0.5-0.2-1-0.5-1.4-0.9c-0.8-0.7-1.6-1.4-2.3-2.2
			c0,0-0.1-0.1-0.1-0.1c-0.2-0.4-0.4-0.7-0.6-1.1c-0.2-0.4-0.4-0.8-0.6-1.2c0.5,0,1.1,0.1,1.6,0.1c0.3,0,0.4-0.4,0.2-0.6
			c-0.1-0.1-0.1-0.1-0.2-0.2c0.5,0,1-0.1,1.5-0.1c0.4,0,0.5-0.6,0.1-0.7c-1-0.2-2-0.5-2.9-1c-0.6-0.3-1.3-0.7-1.8-1.1
			c0.1,0,0.2,0,0.4,0c0.2,0,0.3-0.1,0.3-0.2c0.5,0.1,1,0.1,1.5,0.1c0.2,0,0.4-0.2,0.3-0.4c0.4,0,0.8-0.1,1.1-0.2
			c0.3-0.1,0.4-0.6,0.1-0.7c-1.6-0.6-2.9-1.6-3.7-3.1c0.5,0,1-0.1,1.5-0.2c0.3-0.1,0.3-0.6,0.1-0.7c-0.3-0.1-0.6-0.3-0.9-0.5
			c0.2-0.1,0.2-0.4,0-0.6c-0.3-0.2-0.6-0.4-0.8-0.6c0.1,0,0.2,0,0.3,0c0.3,0,0.5-0.4,0.2-0.6c-1.2-1.1-1.4-2.8-1.8-4.3
			c-0.3-1.2-0.8-0.9-0.9-0.4c-0.4,1.5-1,2.8-1.9,4c-0.2,0.3,0,0.7,0.4,0.6c0,0,0.1,0,0.1,0c-0.3,1-0.9,1.8-1.8,2.3
			c-0.3,0.2-0.1,0.7,0.2,0.7c0.3,0,0.6,0,0.9-0.1c-0.1,0.2,0.1,0.5,0.4,0.4c0.1,0,0.3,0,0.4-0.1c-0.6,1.4-1.8,2.5-3.3,2.9
			c-0.4,0.1-0.3,0.6,0,0.7c0.6,0.2,1.1,0.2,1.7,0.1c0,0,0.1,0.1,0.1,0.1c0.2,0.2,0.4,0.2,0.6,0.2c0.1,0.2,0.2,0.3,0.4,0.4
			c-1.6,1-3.5,1.1-5.4,1.3c-0.4,0-0.4,0.5-0.1,0.7c0.7,0.5,1.5,0.7,2.4,0.8l-0.1,0.1c-0.2,0.2,0,0.6,0.3,0.6c0.6,0,1.2-0.1,1.7-0.3
			c0,0.1,0,0.2,0,0.4c0,0,0,0,0,0c0,0,0,0.1,0,0.1c-0.1,0.1-0.2,0.3-0.2,0.4c-0.1,0.2-0.2,0.3-0.3,0.5c-0.1,0.2-0.2,0.4-0.4,0.6
			c-0.8,1.1-1.7,2.2-2.7,3.1c-1,0.9-2.3,1.6-3.7,2c-0.4,0.2-0.5,0.7-0.1,1c1.3,0.9,2.9,1.2,4.3,0.8c0,0.1,0,0.2,0.1,0.3
			c0.1,0.2,0.2,0.3,0.4,0.4c-0.1,0.1-0.2,0.2-0.3,0.3c-2.1,2.2-4.4,4.2-7,5.8c-0.4,0.2-0.3,0.8,0.2,0.9c1.5,0.3,3,0.5,4.5,0.5
			c0,0.1,0,0.2,0,0.4c0,0,0,0,0,0c-0.1,0.1-0.3,0.2-0.4,0.4c-0.4,0.3-0.8,0.6-1.1,0.9c-0.1,0-0.1,0.1-0.2,0.1c-1,0.8-2,1.4-3.1,2.1
			c-0.6,0.3-0.1,1,0.4,0.9c0.3-0.1,0.6-0.1,0.9-0.2c-0.2,0.3,0,0.8,0.4,0.8c0.9,0,1.7-0.1,2.6-0.3c0,0.1,0,0.2,0,0.2
			c-0.9,0.3-1.8,0.6-2.7,0.8c-0.1,0-0.1,0-0.2,0.1c0,0,0,0,0,0c0,0-0.1,0.1-0.1,0.1c0,0,0,0,0,0c0,0,0,0,0,0c-0.1,0.2-0.1,0.4,0,0.6
			c-0.9,0.2-1.7,0.4-2.6,0.5c-1.4-0.7-2.8-1.5-4-2.5c-0.3-0.2-0.5-0.4-0.8-0.7c0-0.1,0-0.2,0-0.2c0.1,0.3,0.8,0.5,1.1,0.6
			c0.4,0.1,0.8,0.2,1.3,0.3c0.3,0,0.4-0.4,0.3-0.6c-0.2-0.4-0.3-0.8-0.5-1.1c0.6,0,1.2,0,1.7-0.2c0.4-0.1,0.3-0.5,0.1-0.8
			c-0.3-0.3-0.7-0.4-1.1-0.6c-0.4-0.2-0.8-0.4-1.1-0.7c-0.6-0.5-1.2-1.1-1.8-1.7c0,0-0.1-0.1-0.1-0.1c-0.2-0.3-0.3-0.6-0.5-0.9
			c-0.2-0.3-0.3-0.7-0.5-1c0.4,0,0.8,0.1,1.3,0c0.3,0,0.3-0.3,0.2-0.5c-0.1-0.1-0.1-0.1-0.2-0.2c0.4,0,0.8,0,1.2-0.1
			c0.3,0,0.4-0.5,0-0.6c-0.8-0.2-1.6-0.4-2.3-0.8c-0.5-0.2-1-0.5-1.5-0.9c0.1,0,0.2,0,0.3,0c0.1,0,0.2-0.1,0.3-0.2
			c0.4,0.1,0.8,0.1,1.2,0.1c0.2,0,0.3-0.2,0.3-0.3c0.3,0,0.6-0.1,0.9-0.2c0.2-0.1,0.3-0.4,0-0.5c-1.3-0.4-2.3-1.3-3-2.4
			c0.4,0,0.8-0.1,1.2-0.1c0.2-0.1,0.3-0.4,0-0.5c-0.3-0.1-0.5-0.2-0.7-0.4c0.1-0.1,0.2-0.3,0-0.4c-0.2-0.2-0.4-0.3-0.6-0.5
			c0.1,0,0.1,0,0.2,0c0.2,0,0.4-0.3,0.2-0.5c-1-0.8-1.1-2.2-1.4-3.4c-0.2-1-0.6-0.7-0.7-0.3c-0.3,1.2-0.8,2.2-1.5,3.2
			c-0.2,0.2,0,0.5,0.3,0.5c0,0,0.1,0,0.1,0c-0.2,0.8-0.7,1.4-1.4,1.8c-0.3,0.1-0.1,0.5,0.2,0.5c0.3,0,0.5,0,0.7-0.1
			c0,0.2,0.1,0.4,0.3,0.4c0.1,0,0.2,0,0.3,0c-0.5,1.1-1.4,2-2.6,2.3c-0.3,0.1-0.2,0.5,0,0.6c0.4,0.1,0.9,0.1,1.3,0
			c0,0,0,0.1,0.1,0.1c0.1,0.1,0.3,0.2,0.5,0.2c0.1,0.1,0.2,0.2,0.3,0.3c-1.3,0.8-2.8,0.9-4.3,1c-0.3,0-0.3,0.4-0.1,0.5
			c0.6,0.4,1.2,0.6,1.9,0.7l-0.1,0.1c-0.2,0.2,0,0.5,0.2,0.5c0.5,0,0.9-0.1,1.4-0.2c0,0.1,0,0.2,0,0.3c-0.2,0.3-0.3,0.6-0.5,0.9
			c-0.1,0.1-0.1,0.2-0.2,0.3c-0.6,0.9-1.3,1.8-2.1,2.5c-0.8,0.7-1.9,1.3-2.9,1.6c-0.4,0.1-0.4,0.5-0.1,0.8c1,0.7,2.3,1,3.5,0.7
			c0,0.1,0,0.2,0.1,0.2c0,0.1,0.2,0.2,0.3,0.3c-0.1,0.1-0.1,0.1-0.2,0.2c-1.7,1.8-3.5,3.3-5.6,4.7c-0.3,0.2-0.2,0.7,0.1,0.7
			c1.2,0.3,2.4,0.4,3.5,0.4c0,0.1,0,0.2,0,0.3c0,0,0,0,0,0c-0.1,0.1-0.2,0.2-0.3,0.3c-0.3,0.3-0.6,0.5-0.9,0.7
			c-0.1,0-0.1,0.1-0.1,0.1c-0.8,0.6-1.6,1.1-2.5,1.6c-0.4,0.3-0.1,0.8,0.3,0.7c0.2,0,0.5-0.1,0.7-0.1c-0.2,0.3,0,0.7,0.4,0.7
			c0.7,0,1.4-0.1,2-0.3c0,0.1,0,0.1,0,0.2c-0.7,0.3-1.4,0.5-2.1,0.6c-0.1,0-0.1,0-0.2,0.1c0,0,0,0,0,0c0,0,0,0,0,0c0,0,0,0,0,0
			c-0.1,0.1-0.1,0.3,0,0.5c-1.3,0.3-2.5,0.5-3.8,0.5c-0.4,0-0.5,0.5-0.3,0.7c0,0,0.1,0.1,0.1,0.1c-0.7-0.4-1.4-0.8-2-1.3
			c-0.3-0.2-0.5-0.4-0.8-0.7c0.2,0,0.5,0.1,0.7,0.1c0.3,0,0.5-0.3,0.4-0.5c-0.1-0.1,0.3,0,0.4,0c0.1,0,0.3,0,0.4,0.1
			c0.4,0,0.7,0,1.1-0.1c0.3-0.1,0.3-0.4,0.1-0.6c-0.2-0.2-0.4-0.4-0.6-0.7l0.7-0.1c0.3,0,0.5-0.5,0.1-0.6c-1.5-0.6-2.9-1.4-4.2-2.5
			c-0.2-0.2-0.4-0.4-0.6-0.6c0-0.1,0-0.1,0-0.2c0.1,0.3,0.6,0.4,0.9,0.5c0.3,0.1,0.7,0.2,1,0.2c0.3,0,0.4-0.3,0.3-0.5
			c-0.1-0.3-0.3-0.6-0.4-0.9c0.5,0,0.9,0,1.4-0.2c0.3-0.1,0.3-0.4,0-0.6c-0.3-0.2-0.6-0.3-0.9-0.5c-0.3-0.1-0.6-0.3-0.9-0.6
			c-0.5-0.4-1-0.9-1.5-1.4c0,0-0.1-0.1-0.1-0.1c-0.1-0.2-0.2-0.5-0.4-0.7c-0.1-0.3-0.3-0.5-0.4-0.8c0.3,0,0.7,0,1,0
			c0.2,0,0.3-0.3,0.1-0.4c0,0-0.1-0.1-0.1-0.1c0.3,0,0.7,0,1-0.1c0.3,0,0.3-0.4,0-0.5c-0.7-0.1-1.3-0.3-1.9-0.6
			c-0.4-0.2-0.8-0.4-1.2-0.7c0.1,0,0.2,0,0.2,0c0.1,0,0.2-0.1,0.2-0.2c0.3,0.1,0.6,0.1,1,0.1c0.1,0,0.2-0.1,0.2-0.3
			c0.2,0,0.5-0.1,0.7-0.1c0.2-0.1,0.2-0.4,0-0.4c-1-0.4-1.9-1.1-2.4-2c0.3,0,0.7,0,1-0.1c0.2,0,0.2-0.4,0-0.4
			c-0.2-0.1-0.4-0.2-0.6-0.3c0.1-0.1,0.1-0.3,0-0.4c-0.2-0.1-0.4-0.3-0.5-0.4c0.1,0,0.1,0,0.2,0c0.2,0,0.3-0.3,0.1-0.4
			c-0.8-0.7-0.9-1.8-1.1-2.8c-0.2-0.8-0.5-0.6-0.6-0.3c-0.2,0.9-0.6,1.8-1.2,2.6c-0.1,0.2,0,0.4,0.2,0.4c0,0,0.1,0,0.1,0
			c-0.2,0.6-0.6,1.2-1.1,1.5c-0.2,0.1-0.1,0.4,0.1,0.4c0.2,0,0.4,0,0.6-0.1c0,0.1,0.1,0.3,0.2,0.3c0.1,0,0.2,0,0.3,0
			c-0.4,0.9-1.2,1.6-2.1,1.9c-0.2,0.1-0.2,0.4,0,0.5c0.4,0.1,0.7,0.1,1.1,0c0,0,0,0.1,0.1,0.1c0.1,0.1,0.2,0.2,0.4,0.1
			c0,0.1,0.1,0.2,0.3,0.3c-1,0.6-2.3,0.7-3.5,0.8c-0.2,0-0.3,0.3-0.1,0.4c0.5,0.3,1,0.5,1.5,0.5l-0.1,0.1c-0.1,0.2,0,0.4,0.2,0.4
			c0.4,0,0.8-0.1,1.1-0.2c0,0.1,0,0.1,0,0.2c-0.1,0.1-0.1,0.2-0.2,0.3c-0.1,0.2-0.3,0.5-0.4,0.7c-0.5,0.7-1.1,1.4-1.7,2
			c-0.4,0.3-0.7,0.6-1.2,0.8c-0.5-0.1-0.9-0.3-1.3-0.5c-0.4-0.2-0.8-0.4-1.2-0.7c0.1,0,0.2,0,0.2,0c0.1,0,0.2-0.1,0.2-0.2
			c0.3,0.1,0.6,0.1,1,0.1c0.1,0,0.2-0.1,0.2-0.3c0.2,0,0.5-0.1,0.7-0.1c0.2-0.1,0.2-0.4,0-0.4c-1-0.4-1.9-1.1-2.4-2
			c0.3,0,0.7,0,1-0.1c0.2,0,0.2-0.4,0-0.4c-0.2-0.1-0.4-0.2-0.6-0.3c0.1-0.1,0.1-0.3,0-0.4c-0.2-0.1-0.4-0.3-0.5-0.4
			c0.1,0,0.1,0,0.2,0c0.2,0,0.3-0.3,0.1-0.4c-0.8-0.7-0.9-1.8-1.1-2.8c-0.2-0.8-0.5-0.6-0.6-0.3c-0.2,0.9-0.6,1.8-1.2,2.6
			c-0.1,0.2,0,0.4,0.2,0.4c0,0,0.1,0,0.1,0c-0.2,0.6-0.6,1.2-1.1,1.5c-0.2,0.1-0.1,0.4,0.1,0.4c0.2,0,0.4,0,0.6-0.1
			c0,0.1,0.1,0.3,0.2,0.3c0.1,0,0.2,0,0.3,0c-0.4,0.9-1.2,1.6-2.1,1.9c-0.2,0.1-0.2,0.4,0,0.5c0.4,0.1,0.7,0.1,1.1,0
			c0,0,0,0.1,0.1,0.1c0.1,0.1,0.2,0.2,0.4,0.1c0,0.1,0.1,0.2,0.3,0.3c-1,0.6-2.3,0.7-3.5,0.8c-0.2,0-0.3,0.3-0.1,0.4
			c0.5,0.3,1,0.5,1.5,0.5l-0.1,0.1c-0.1,0.2,0,0.4,0.2,0.4c0.4,0,0.8-0.1,1.1-0.2c0,0.1,0,0.1,0,0.2c-0.1,0.1-0.1,0.2-0.2,0.3
			c-0.1,0.2-0.3,0.5-0.4,0.7c-0.5,0.7-1.1,1.4-1.7,2c-0.7,0.6-1.5,1-2.4,1.3c-0.3,0.1-0.3,0.4,0,0.6c0.8,0.6,1.9,0.8,2.8,0.6
			c0,0.1,0,0.1,0,0.2c0,0.1,0.1,0.2,0.3,0.2c-0.1,0.1-0.1,0.1-0.1,0.2c-1.4,1.4-2.9,2.7-4.5,3.8c-0.2,0.2-0.2,0.5,0.1,0.6
			c1,0.2,1.9,0.3,2.9,0.3c0,0.1,0,0.2,0,0.2c0,0,0,0,0,0c-0.1,0.1-0.2,0.2-0.3,0.2c-0.2,0.2-0.5,0.4-0.7,0.6c0,0-0.1,0.1-0.1,0.1
			c-0.6,0.5-1.3,0.9-2,1.3c-0.4,0.2-0.1,0.7,0.3,0.6c0.2,0,0.4-0.1,0.6-0.1c-0.2,0.2,0,0.5,0.3,0.5c0.6,0,1.1-0.1,1.7-0.2
			c0,0,0,0.1,0,0.1c-0.6,0.2-1.1,0.4-1.7,0.5c-0.1,0-0.1,0-0.1,0.1c0,0,0,0,0,0c0,0,0,0,0,0c0,0,0,0,0,0c-0.1,0.1-0.1,0.3,0,0.4
			c-1,0.3-2.1,0.4-3.1,0.4c-0.3,0-0.4,0.4-0.2,0.6c0.7,0.6,1.6,1.1,2.6,1.3c0.2,0.1,0.5,0.1,0.7,0.1c0.2,0,0.5,0,0.6,0
			c0.2,0.1,0.2,0.3,0.4,0.4c0.2,0.1,0.3,0,0.5,0c0.3,0.1,0.5,0.4,0.8,0.5c0.3,0.1,0.6,0,0.9-0.2c0,0,0.1,0.1,0.1,0.1
			c0,0,0.1,0.1,0.1,0.1c-0.2,0.2-0.5,0.3-0.8,0.4c-0.3,0.1-0.5,0.3-0.8,0.4c-1.5,0.7-3.1,1.3-4.8,1.7c-0.4,0-0.7,0-1.1,0
			c-0.1,0-0.2,0-0.4,0c-0.2,0-0.3,0-0.5,0c-0.1,0-0.2,0-0.3,0c-0.2,0-0.5,0-0.7,0c0,0,0,0,0,0c0.1-0.1,0.2-0.2,0.2-0.4
			c0-0.1,0-0.2,0-0.3c0.6-0.1,1.1-0.2,1.7-0.2c0.4-0.1,0.5-0.5,0.2-0.7c0,0,0,0,0,0c0.7-0.2,1.4-0.5,2-0.9c0.3-0.2,0.2-0.8-0.2-0.7
			c-1.3,0.2-2.6,0.2-3.9,0.1c0-0.2-0.2-0.2-0.3-0.4c-0.4-0.6-1-1.1-1.7-1.4c0,0,0,0,0,0c-0.5-0.3-1.2-0.6-1.9-0.9
			c0.4,0,0.7,0.1,1.1,0.1c0.3,0,0.4-0.3,0.3-0.6c0.6,0.1,1.2,0.2,1.8,0.2c0.3,0,0.5-0.4,0.3-0.6c-0.1-0.1-0.1-0.2-0.2-0.2
			c0.6,0,1.2-0.1,1.8-0.1c0.3,0,0.4-0.3,0.3-0.6c0,0,0-0.1-0.1-0.1c0.5-0.1,1-0.1,1.6-0.2c0.4-0.1,0.3-0.7,0-0.8
			c-2.2-0.2-4.6-0.7-6.7-1.6c0,0-0.1,0-0.1-0.1c0.1-0.1,0.3-0.2,0.3-0.4c0,0,0-0.1,0-0.1c0-0.1,0-0.1,0,0c0.1,0,0.4,0.1,0.5,0.1
			c0.4,0.1,0.7,0.1,1.1,0.1c0.7,0,1.4-0.1,2.1-0.2c0.3-0.1,0.4-0.6,0.1-0.7c-1.1-0.5-2.2-1.2-3.2-1.9c-0.3-0.2-0.6-0.5-0.9-0.8
			c0.3,0,0.5,0.1,0.8,0.1c0.3,0,0.6-0.3,0.4-0.6c-0.1-0.1,0.4-0.1,0.5,0c0.2,0,0.3,0.1,0.5,0.1c0.4,0,0.8,0,1.2-0.1
			c0.3-0.1,0.3-0.5,0.1-0.7c-0.2-0.2-0.4-0.5-0.6-0.8l0.8-0.1c0.3,0,0.6-0.6,0.2-0.7c-1.8-0.7-3.4-1.7-4.8-2.9
			c-0.2-0.2-0.5-0.4-0.7-0.6c0-0.1,0-0.2,0-0.2c0.1,0.3,0.8,0.5,1.1,0.6c0.4,0.1,0.8,0.2,1.2,0.2c0.3,0,0.4-0.3,0.3-0.6
			c-0.2-0.4-0.3-0.7-0.5-1.1c0.6,0,1.1,0,1.6-0.2c0.3-0.1,0.3-0.5,0.1-0.7c-0.3-0.2-0.7-0.4-1.1-0.5c-0.4-0.2-0.7-0.4-1.1-0.7
			c-0.6-0.5-1.2-1.1-1.7-1.6c0,0-0.1-0.1-0.1-0.1c-0.1-0.3-0.3-0.6-0.4-0.8c-0.2-0.3-0.3-0.6-0.5-0.9c0.4,0,0.8,0,1.2,0
			c0.3,0,0.3-0.3,0.2-0.5c0-0.1-0.1-0.1-0.1-0.2c0.4,0,0.8,0,1.2-0.1c0.3,0,0.3-0.5,0-0.5c-0.8-0.1-1.5-0.4-2.2-0.7
			c-0.5-0.2-1-0.5-1.4-0.9c0.1,0,0.2,0,0.3,0c0.1,0,0.2-0.1,0.2-0.2c0.4,0.1,0.7,0.1,1.1,0.1c0.2,0,0.3-0.2,0.3-0.3
			c0.3,0,0.6-0.1,0.9-0.1c0.2-0.1,0.3-0.4,0-0.5c-1.2-0.4-2.2-1.2-2.8-2.3c0.4,0,0.8-0.1,1.2-0.1c0.2,0,0.3-0.4,0-0.5
			c-0.3-0.1-0.5-0.2-0.7-0.4c0.1-0.1,0.2-0.3,0-0.4c-0.2-0.1-0.4-0.3-0.6-0.5c0.1,0,0.1,0,0.2,0c0.2,0,0.4-0.3,0.2-0.5
			c-0.9-0.8-1.1-2.1-1.3-3.2c-0.2-0.9-0.6-0.6-0.7-0.3c-0.3,1.1-0.7,2.1-1.4,3c-0.2,0.2,0,0.5,0.3,0.4c0,0,0.1,0,0.1,0
			c-0.2,0.7-0.7,1.3-1.3,1.7c-0.2,0.1-0.1,0.5,0.2,0.5c0.2,0,0.5,0,0.7-0.1c0,0.2,0.1,0.4,0.3,0.3c0.1,0,0.2,0,0.3,0
			c-0.4,1.1-1.3,1.9-2.5,2.2c-0.3,0.1-0.2,0.5,0,0.5c0.4,0.1,0.8,0.1,1.3,0c0,0,0,0.1,0.1,0.1c0.1,0.1,0.3,0.2,0.5,0.2
			c0.1,0.1,0.2,0.2,0.3,0.3c-1.2,0.7-2.7,0.9-4.1,1c-0.3,0-0.3,0.4-0.1,0.5c0.5,0.3,1.1,0.6,1.8,0.6l-0.1,0.1
			c-0.2,0.2,0,0.5,0.2,0.5c0.5,0,0.9-0.1,1.3-0.2c0,0.1,0,0.2,0,0.3c-0.1,0.1-0.1,0.2-0.2,0.3c-0.2,0.3-0.3,0.6-0.5,0.8
			c-0.6,0.8-1.2,1.7-2,2.4c-0.8,0.7-1.8,1.2-2.8,1.5c-0.3,0.1-0.3,0.5-0.1,0.7c1,0.7,2.2,0.9,3.3,0.6c0,0.1,0,0.1,0,0.2
			c0,0.1,0.2,0.2,0.3,0.3c-0.1,0.1-0.1,0.1-0.2,0.2c-1.6,1.7-3.3,3.2-5.3,4.4c-0.3,0.2-0.2,0.6,0.1,0.7c1.1,0.2,2.2,0.4,3.4,0.4
			c0,0.1,0,0.2,0,0.3c0,0,0,0,0,0c0,0,0,0,0,0c-2.3-0.3-4.7-0.9-6.9-1.8c-0.1,0-0.1-0.1-0.2-0.1c0.2-0.1,0.3-0.2,0.4-0.5
			c0-0.1,0-0.1,0-0.2c0-0.1,0-0.1,0-0.1c0.1-0.1,0.5,0.1,0.6,0.1c0.5,0.1,0.9,0.1,1.4,0.1c0.9,0,1.7-0.1,2.6-0.3
			c0.4-0.1,0.4-0.7,0.1-0.9c-1.4-0.6-2.7-1.4-3.9-2.4c-0.4-0.3-0.7-0.6-1.1-0.9c0.3,0.1,0.7,0.1,1,0.1c0.4,0,0.8-0.4,0.5-0.7
			c-0.1-0.1,0.5-0.1,0.6-0.1c0.2,0,0.4,0.1,0.6,0.1c0.5,0,1,0,1.5-0.1c0.4-0.1,0.4-0.6,0.2-0.8c-0.3-0.3-0.5-0.6-0.8-0.9l0.9-0.1
			c0.4-0.1,0.7-0.7,0.2-0.9c-2.2-0.9-4.2-2-5.9-3.6c-0.3-0.3-0.6-0.5-0.9-0.8c0-0.1,0-0.2,0-0.3c0.1,0.4,0.9,0.6,1.3,0.7
			c0.5,0.2,1,0.2,1.5,0.3c0.4,0,0.5-0.4,0.4-0.7c-0.2-0.4-0.4-0.9-0.6-1.3c0.7,0,1.4,0,2-0.2c0.4-0.1,0.4-0.6,0.1-0.9
			c-0.4-0.3-0.9-0.5-1.3-0.7c-0.5-0.2-0.9-0.5-1.3-0.8c-0.7-0.6-1.4-1.3-2.1-2c0,0-0.1-0.1-0.1-0.1c-0.2-0.3-0.4-0.7-0.5-1
			c-0.2-0.4-0.4-0.8-0.6-1.1c0.5,0,1,0.1,1.5,0c0.3,0,0.4-0.4,0.2-0.6c-0.1-0.1-0.1-0.1-0.2-0.2c0.5,0,1-0.1,1.4-0.1
			c0.4,0,0.4-0.6,0.1-0.7c-0.9-0.2-1.8-0.5-2.7-0.9c-0.6-0.3-1.2-0.6-1.7-1c0.1,0,0.2,0,0.3,0c0.1,0,0.3-0.1,0.3-0.2
			c0.5,0.1,0.9,0.1,1.4,0.1c0.2,0,0.3-0.2,0.3-0.4c0.4,0,0.7-0.1,1.1-0.2c0.3-0.1,0.3-0.5,0-0.6c-1.5-0.5-2.7-1.5-3.5-2.9
			c0.5,0,0.9-0.1,1.4-0.2c0.3-0.1,0.3-0.5,0-0.6c-0.3-0.1-0.6-0.3-0.9-0.5c0.2-0.1,0.2-0.4,0-0.5c-0.3-0.2-0.5-0.4-0.7-0.6
			c0.1,0,0.2,0,0.3,0c0.3,0,0.4-0.4,0.2-0.6c-1.1-1-1.3-2.6-1.6-4c-0.3-1.1-0.7-0.8-0.8-0.4c-0.3,1.3-0.9,2.6-1.7,3.7
			c-0.2,0.3,0,0.6,0.4,0.5c0,0,0.1,0,0.1,0c-0.2,0.9-0.8,1.7-1.6,2.1c-0.3,0.2-0.1,0.6,0.2,0.6c0.3,0,0.6,0,0.9-0.1
			c-0.1,0.2,0.1,0.4,0.3,0.4c0.1,0,0.3,0,0.4-0.1c-0.5,1.3-1.6,2.3-3,2.7c-0.3,0.1-0.3,0.6,0,0.6c0.5,0.1,1,0.2,1.5,0.1
			c0,0,0.1,0.1,0.1,0.1c0.2,0.2,0.4,0.2,0.6,0.2c0.1,0.2,0.2,0.3,0.4,0.4c-1.5,0.9-3.3,1.1-5,1.2c-0.4,0-0.4,0.5-0.1,0.6
			c0.7,0.4,1.4,0.7,2.2,0.8l-0.1,0.1c-0.2,0.2,0,0.6,0.3,0.6c0.6,0,1.1-0.1,1.6-0.3c0,0.1,0,0.2,0,0.3c0,0,0,0,0,0c0,0,0,0,0,0.1
			c-0.1,0.1-0.1,0.2-0.2,0.3c-0.1,0.2-0.2,0.3-0.3,0.4c-0.1,0.2-0.2,0.3-0.3,0.5c-0.7,1-1.5,2-2.5,2.9c-0.4,0.3-0.8,0.6-1.3,0.9
			c-0.3-0.2-0.6-0.4-0.9-0.7c-0.3-0.3-0.7-0.5-1-0.8c-0.3-0.3-0.6-0.6-1-0.9c0-0.1,0-0.2,0-0.3c0.2,0.4,1,0.6,1.4,0.8
			c0.5,0.2,1,0.3,1.6,0.3c0.4,0,0.6-0.5,0.4-0.8c-0.2-0.5-0.4-1-0.7-1.4c0.7,0,1.5,0,2.2-0.3c0.5-0.1,0.4-0.7,0.1-1
			c-0.4-0.3-0.9-0.5-1.4-0.7c-0.5-0.2-1-0.5-1.4-0.9c-0.8-0.7-1.6-1.4-2.3-2.2c0,0-0.1-0.1-0.1-0.1c-0.2-0.4-0.4-0.7-0.6-1.1
			c-0.2-0.4-0.4-0.8-0.6-1.2c0.5,0,1.1,0.1,1.6,0.1c0.3,0,0.4-0.4,0.2-0.6c-0.1-0.1-0.1-0.1-0.2-0.2c0.5,0,1-0.1,1.5-0.1
			c0.4,0,0.5-0.6,0.1-0.7c-1-0.2-2-0.5-2.9-1c-0.6-0.3-1.3-0.7-1.8-1.1c0.1,0,0.2,0,0.4,0c0.2,0,0.3-0.1,0.3-0.2
			c0.5,0.1,1,0.1,1.5,0.1c0.2,0,0.4-0.2,0.3-0.4c0.4,0,0.8-0.1,1.1-0.2c0.3-0.1,0.4-0.6,0.1-0.7c-1.6-0.6-2.9-1.6-3.7-3.1
			c0.5,0,1-0.1,1.5-0.2c0.3-0.1,0.3-0.6,0.1-0.7c-0.3-0.1-0.6-0.3-0.9-0.5c0.2-0.1,0.2-0.4,0-0.6c-0.3-0.2-0.6-0.4-0.8-0.6
			c0.1,0,0.2,0,0.3,0c0.3,0,0.5-0.4,0.2-0.6c-1.2-1.1-1.4-2.8-1.8-4.3c-0.3-1.2-0.8-0.9-0.9-0.4c-0.4,1.5-1,2.8-1.9,4
			c-0.2,0.3,0,0.7,0.4,0.6c0,0,0.1,0,0.1,0c-0.3,1-0.9,1.8-1.8,2.3c-0.3,0.2-0.1,0.7,0.2,0.7c0.3,0,0.6,0,0.9-0.1
			c-0.1,0.2,0.1,0.5,0.4,0.4c0.1,0,0.3,0,0.4-0.1c-0.6,1.4-1.8,2.5-3.3,2.9c-0.4,0.1-0.3,0.6,0,0.7c0.6,0.2,1.1,0.2,1.7,0.1
			c0,0,0.1,0.1,0.1,0.1c0.2,0.2,0.4,0.2,0.6,0.2c0.1,0.2,0.2,0.3,0.4,0.4c-1.6,1-3.5,1.1-5.4,1.3c-0.4,0-0.4,0.5-0.1,0.7
			c0.7,0.5,1.5,0.7,2.4,0.8l-0.1,0.1c-0.2,0.2,0,0.6,0.3,0.6c0.6,0,1.2-0.1,1.7-0.3c0,0.1,0,0.2,0,0.4c0,0,0,0,0,0c0,0,0,0.1,0,0.1
			c-0.1,0.1-0.2,0.2-0.2,0.4c-0.1,0.2-0.2,0.3-0.3,0.5c-0.1,0.2-0.2,0.4-0.4,0.6c-0.8,1.1-1.7,2.2-2.7,3.1c-1,0.9-2.3,1.6-3.7,2
			c-0.4,0.2-0.5,0.7-0.1,1c0.3,0.2,0.6,0.4,0.8,0.5c-0.3,0.8-0.7,1.6-1.2,2.3c-0.2,0.2,0,0.5,0.3,0.4c0,0,0.1,0,0.1,0
			c-0.2,0.7-0.7,1.3-1.3,1.7c-0.2,0.1-0.1,0.5,0.2,0.5c0.2,0,0.5,0,0.7-0.1c0,0.2,0.1,0.4,0.3,0.3c0.1,0,0.2,0,0.3,0
			c0,0.1-0.1,0.1-0.1,0.2c-0.8,0.6-1.7,1.2-2.5,1.8c-0.4,0.2-0.3,0.8,0.2,0.9c0.6,0.1,1.3,0.2,1.9,0.3c0.1,0.1,0.1,0.1,0.2,0.2
			c-1.2,0.7-2.7,0.9-4.1,1c-0.3,0-0.3,0.4-0.1,0.5c0.5,0.3,1.1,0.6,1.8,0.6l-0.1,0.1c-0.2,0.2,0,0.5,0.2,0.5c0.5,0,0.9-0.1,1.3-0.2
			c0,0.1,0,0.2,0,0.3c-0.1,0.1-0.1,0.2-0.2,0.3c0,0,0,0,0,0c-0.4,0.3-0.9,0.6-1.3,0.8c-0.4,0.3-0.2,0.7,0.1,0.9
			c-0.4,0.5-0.8,1-1.3,1.4c-0.8,0.7-1.8,1.2-2.8,1.5c-0.3,0.1-0.3,0.5-0.1,0.7c0.2,0.1,0.4,0.2,0.6,0.3c0.7,0.6,1.6,1.1,2.5,1.4
			c-1.5,1.5-3.1,2.9-4.9,4c-0.3,0.2-0.2,0.6,0.1,0.7c1.1,0.2,2.2,0.4,3.4,0.4c0,0.1,0,0.2,0,0.3c0,0,0,0,0,0
			c-0.1,0.1-0.2,0.2-0.3,0.3c0,0,0,0,0,0c-0.7,0.2-1.3,0.4-2,0.6c-0.2,0.1-0.3,0.3-0.3,0.5c-1.4,0.2-2.9,0.2-4.3,0
			c0-0.2-0.2-0.3-0.4-0.5c-0.6-0.8-1.4-1.4-2.3-1.9c0,0,0,0,0,0c-0.7-0.4-1.6-0.8-2.5-1.1c0.5,0.1,1,0.1,1.5,0.1
			c0.4,0,0.6-0.4,0.4-0.7c0.8,0.1,1.6,0.2,2.4,0.2c0.4,0,0.6-0.5,0.4-0.8c-0.1-0.1-0.2-0.2-0.2-0.3c0.8,0,1.6-0.1,2.4-0.1
			c0.4,0,0.6-0.5,0.4-0.8c0,0,0-0.1-0.1-0.1c0.7-0.1,1.4-0.2,2.1-0.3c0.5-0.1,0.5-0.9-0.1-1c-2.9-0.3-6.2-0.9-9-2.2
			c0.2-0.1,0.3-0.2,0.4-0.6c0-0.1,0-0.1,0-0.2c0-0.1,0-0.2,0-0.1c0.1-0.1,0.5,0.1,0.7,0.1c0.5,0.1,1,0.1,1.5,0.1
			c0.9,0,1.9-0.1,2.8-0.3c0.4-0.1,0.5-0.8,0.1-1c-1.5-0.7-2.9-1.5-4.2-2.6c-0.4-0.3-0.8-0.7-1.2-1c0.4,0.1,0.7,0.1,1.1,0.2
			c0.4,0,0.8-0.4,0.5-0.8c-0.1-0.1,0.5-0.1,0.6-0.1c0.2,0,0.5,0.1,0.7,0.1c0.6,0,1.1,0,1.6-0.1c0.4-0.1,0.4-0.6,0.2-0.9
			c-0.3-0.3-0.6-0.7-0.8-1l1-0.1c0.5-0.1,0.7-0.8,0.2-1c-1.9-0.8-3.8-1.8-5.4-3c-0.3-0.3-0.7-0.5-1-0.8c-0.3-0.3-0.6-0.6-1-0.9
			c0-0.1,0-0.2,0-0.3c0.2,0.4,1,0.6,1.4,0.8c0.5,0.2,1,0.3,1.6,0.3c0.4,0,0.6-0.5,0.4-0.8c-0.2-0.5-0.4-1-0.7-1.4
			c0.7,0,1.5,0,2.2-0.3c0.5-0.1,0.4-0.7,0.1-1c-0.4-0.3-0.9-0.5-1.4-0.7c-0.5-0.2-1-0.5-1.4-0.9c-0.8-0.7-1.6-1.4-2.3-2.2
			c0,0-0.1-0.1-0.1-0.1c-0.2-0.4-0.4-0.7-0.6-1.1c-0.2-0.4-0.4-0.8-0.6-1.2c0.5,0,1.1,0.1,1.6,0.1c0.3,0,0.4-0.4,0.2-0.6
			c-0.1-0.1-0.1-0.1-0.2-0.2c0.5,0,1-0.1,1.5-0.1c0.4,0,0.5-0.6,0.1-0.7c-1-0.2-2-0.5-2.9-1c-0.6-0.3-1.3-0.7-1.8-1.1
			c0.1,0,0.2,0,0.4,0c0.2,0,0.3-0.1,0.3-0.2c0.5,0.1,1,0.1,1.5,0.1c0.2,0,0.4-0.2,0.3-0.4c0.4,0,0.8-0.1,1.1-0.2
			c0.3-0.1,0.4-0.6,0.1-0.7c-1.6-0.6-2.9-1.6-3.7-3.1c0.5,0,1-0.1,1.5-0.2c0.3-0.1,0.3-0.6,0.1-0.7c-0.3-0.1-0.6-0.3-0.9-0.5
			c0.2-0.1,0.2-0.4,0-0.6c-0.3-0.2-0.6-0.4-0.8-0.6c0.1,0,0.2,0,0.3,0c0.3,0,0.5-0.4,0.2-0.6c-1.2-1.1-1.4-2.8-1.8-4.3
			c-0.3-1.2-0.8-0.9-0.9-0.4c-0.4,1.5-1,2.8-1.9,4c-0.2,0.3,0,0.7,0.4,0.6c0,0,0.1,0,0.1,0c-0.3,1-0.9,1.8-1.8,2.3
			c-0.3,0.2-0.1,0.7,0.2,0.7c0.3,0,0.6,0,0.9-0.1c-0.1,0.2,0.1,0.5,0.4,0.4c0.1,0,0.3,0,0.4-0.1c-0.6,1.4-1.8,2.5-3.3,2.9
			c-0.4,0.1-0.3,0.6,0,0.7c0.6,0.2,1.1,0.2,1.7,0.1c0,0,0.1,0.1,0.1,0.1c0.2,0.2,0.4,0.2,0.6,0.2c0.1,0.2,0.2,0.3,0.4,0.4
			c-1.6,1-3.5,1.1-5.4,1.3c-0.4,0-0.4,0.5-0.1,0.7c0.7,0.5,1.5,0.7,2.4,0.8l-0.1,0.1c-0.2,0.2,0,0.6,0.3,0.6c0.6,0,1.2-0.1,1.7-0.3
			c0,0.1,0,0.2,0,0.4c0,0,0,0,0,0c0,0,0,0.1,0,0.1c-0.1,0.1-0.2,0.3-0.2,0.4c-0.1,0.2-0.2,0.3-0.3,0.5c-0.1,0.2-0.2,0.4-0.4,0.6
			c-0.8,1.1-1.7,2.2-2.7,3.1c-1,0.9-2.3,1.6-3.7,2c-0.4,0.2-0.5,0.7-0.1,1c1.3,0.9,2.9,1.2,4.3,0.8c0,0.1,0,0.2,0.1,0.3
			c0.1,0.2,0.2,0.3,0.4,0.4c-0.1,0.1-0.2,0.2-0.3,0.3c-2.1,2.2-4.4,4.2-7,5.8c-0.4,0.2-0.3,0.8,0.2,0.9c1.5,0.3,3,0.5,4.5,0.5
			c0,0.1,0,0.2,0,0.4c0,0,0,0,0,0c-0.1,0.1-0.3,0.2-0.4,0.4c-0.4,0.3-0.8,0.6-1.1,0.9c-0.1,0-0.1,0.1-0.2,0.1c-1,0.8-2,1.4-3.1,2.1
			c-0.6,0.3-0.1,1,0.4,0.9c0.3-0.1,0.6-0.1,0.9-0.2c-0.2,0.3,0,0.8,0.4,0.8c0.9,0,1.7-0.1,2.6-0.3c0,0.1,0,0.2,0,0.2
			c-0.9,0.3-1.8,0.6-2.7,0.8c-0.1,0-0.1,0-0.2,0.1c0,0,0,0,0,0c0,0-0.1,0.1-0.1,0.1c0,0,0,0,0,0c0,0,0,0,0,0c-0.1,0.2-0.1,0.4,0,0.6
			c-0.9,0.2-1.7,0.4-2.6,0.5c-1.4-0.7-2.8-1.5-4-2.5c-0.3-0.2-0.5-0.4-0.8-0.7c0-0.1,0-0.2,0-0.2c0.1,0.3,0.8,0.5,1.1,0.6
			c0.4,0.1,0.8,0.2,1.3,0.3c0.3,0,0.4-0.4,0.3-0.6c-0.2-0.4-0.3-0.8-0.5-1.1c0.6,0,1.2,0,1.7-0.2c0.4-0.1,0.3-0.5,0.1-0.8
			c-0.3-0.3-0.7-0.4-1.1-0.6c-0.4-0.2-0.8-0.4-1.1-0.7c-0.6-0.5-1.2-1.1-1.8-1.7c0,0-0.1-0.1-0.1-0.1c-0.2-0.3-0.3-0.6-0.5-0.9
			c-0.2-0.3-0.3-0.7-0.5-1c0.4,0,0.8,0.1,1.3,0c0.3,0,0.3-0.3,0.2-0.5c-0.1-0.1-0.1-0.1-0.2-0.2c0.4,0,0.8,0,1.2-0.1
			c0.3,0,0.4-0.5,0-0.6c-0.8-0.2-1.6-0.4-2.3-0.8c-0.5-0.2-1-0.5-1.5-0.9c0.1,0,0.2,0,0.3,0c0.1,0,0.2-0.1,0.3-0.2
			c0.4,0.1,0.8,0.1,1.2,0.1c0.2,0,0.3-0.2,0.3-0.3c0.3,0,0.6-0.1,0.9-0.2c0.2-0.1,0.3-0.4,0-0.5c-1.3-0.4-2.3-1.3-3-2.4
			c0.4,0,0.8-0.1,1.2-0.1c0.2-0.1,0.3-0.4,0-0.5c-0.3-0.1-0.5-0.2-0.7-0.4c0.1-0.1,0.2-0.3,0-0.4c-0.2-0.2-0.4-0.3-0.6-0.5
			c0.1,0,0.1,0,0.2,0c0.2,0,0.4-0.3,0.2-0.5c-1-0.8-1.1-2.2-1.4-3.4c-0.2-1-0.6-0.7-0.7-0.3c-0.3,1.2-0.8,2.2-1.5,3.2
			c-0.2,0.2,0,0.5,0.3,0.5c0,0,0.1,0,0.1,0c-0.2,0.8-0.7,1.4-1.4,1.8c-0.3,0.1-0.1,0.5,0.2,0.5c0.3,0,0.5,0,0.7-0.1
			c0,0.2,0.1,0.4,0.3,0.4c0.1,0,0.2,0,0.3,0c-0.5,1.1-1.4,2-2.6,2.3c-0.3,0.1-0.2,0.5,0,0.6c0.4,0.1,0.9,0.1,1.3,0
			c0,0,0,0.1,0.1,0.1c0.1,0.1,0.3,0.2,0.5,0.2c0.1,0.1,0.2,0.2,0.3,0.3c-1.3,0.8-2.8,0.9-4.3,1c-0.3,0-0.3,0.4-0.1,0.5
			c0.6,0.4,1.2,0.6,1.9,0.7l-0.1,0.1c-0.2,0.2,0,0.5,0.2,0.5c0.5,0,0.9-0.1,1.4-0.2c0,0.1,0,0.2,0,0.3c-0.2,0.3-0.3,0.6-0.5,0.9
			c-0.1,0.1-0.1,0.2-0.2,0.3c-0.6,0.9-1.3,1.8-2.1,2.5c-0.8,0.7-1.9,1.3-2.9,1.6c-0.4,0.1-0.4,0.5-0.1,0.8c1,0.7,2.3,1,3.5,0.7
			c0,0.1,0,0.2,0.1,0.2c0,0.1,0.2,0.2,0.3,0.3c-0.1,0.1-0.1,0.1-0.2,0.2c-1.7,1.8-3.5,3.3-5.6,4.7c-0.3,0.2-0.2,0.7,0.1,0.7
			c1.2,0.3,2.4,0.4,3.5,0.4c0,0.1,0,0.2,0,0.3c0,0,0,0,0,0c-0.1,0.1-0.2,0.2-0.3,0.3c-0.3,0.3-0.6,0.5-0.9,0.7
			c-0.1,0-0.1,0.1-0.1,0.1c-0.8,0.6-1.6,1.1-2.5,1.6c-0.4,0.3-0.1,0.8,0.3,0.7c0.2,0,0.5-0.1,0.7-0.1c-0.2,0.3,0,0.7,0.4,0.7
			c0.7,0,1.4-0.1,2-0.3c0,0.1,0,0.1,0,0.2c-0.7,0.3-1.4,0.5-2.1,0.6c-0.1,0-0.1,0-0.2,0.1c0,0,0,0,0,0c0,0,0,0,0,0c0,0,0,0,0,0
			c-0.1,0.1-0.1,0.3,0,0.5c-1.3,0.3-2.5,0.5-3.8,0.5c-0.4,0-0.5,0.5-0.3,0.7c0,0,0.1,0.1,0.1,0.1c-0.7-0.4-1.4-0.8-2-1.3
			c-0.3-0.2-0.5-0.4-0.8-0.7c0.2,0,0.5,0.1,0.7,0.1c0.3,0,0.5-0.3,0.4-0.5c-0.1-0.1,0.3,0,0.4,0c0.1,0,0.3,0,0.4,0.1
			c0.4,0,0.7,0,1.1-0.1c0.3-0.1,0.3-0.4,0.1-0.6c-0.2-0.2-0.4-0.4-0.6-0.7l0.7-0.1c0.3,0,0.5-0.5,0.1-0.6c-1.5-0.6-2.9-1.4-4.2-2.5
			c-0.2-0.2-0.4-0.4-0.6-0.6c0-0.1,0-0.1,0-0.2c0.1,0.3,0.6,0.4,0.9,0.5c0.3,0.1,0.7,0.2,1,0.2c0.3,0,0.4-0.3,0.3-0.5
			c-0.1-0.3-0.3-0.6-0.4-0.9c0.5,0,0.9,0,1.4-0.2c0.3-0.1,0.3-0.4,0-0.6c-0.3-0.2-0.6-0.3-0.9-0.5c-0.3-0.1-0.6-0.3-0.9-0.6
			c-0.5-0.4-1-0.9-1.5-1.4c0,0-0.1-0.1-0.1-0.1c-0.1-0.2-0.2-0.5-0.4-0.7c-0.1-0.3-0.3-0.5-0.4-0.8c0.3,0,0.7,0,1,0
			c0.2,0,0.3-0.3,0.1-0.4c0,0-0.1-0.1-0.1-0.1c0.3,0,0.7,0,1-0.1c0.3,0,0.3-0.4,0-0.5c-0.7-0.1-1.3-0.3-1.9-0.6
			c-0.4-0.2-0.8-0.4-1.2-0.7c0.1,0,0.2,0,0.2,0c0.1,0,0.2-0.1,0.2-0.2c0.3,0.1,0.6,0.1,1,0.1c0.1,0,0.2-0.1,0.2-0.3
			c0.2,0,0.5-0.1,0.7-0.1c0.2-0.1,0.2-0.4,0-0.4c-1-0.4-1.9-1.1-2.4-2c0.3,0,0.7,0,1-0.1c0.2,0,0.2-0.4,0-0.4
			c-0.2-0.1-0.4-0.2-0.6-0.3c0.1-0.1,0.1-0.3,0-0.4c-0.2-0.1-0.4-0.3-0.5-0.4c0.1,0,0.1,0,0.2,0c0.2,0,0.3-0.3,0.1-0.4
			c-0.8-0.7-0.9-1.8-1.1-2.8c-0.2-0.8-0.5-0.6-0.6-0.3c-0.2,0.9-0.6,1.8-1.2,2.6c-0.1,0.2,0,0.4,0.2,0.4c0,0,0.1,0,0.1,0
			c-0.2,0.6-0.6,1.2-1.1,1.5c-0.2,0.1-0.1,0.4,0.1,0.4c0.2,0,0.4,0,0.6-0.1c0,0.1,0.1,0.3,0.2,0.3c0.1,0,0.2,0,0.3,0
			C2.8,163.2,2,164,1,164.2c-0.2,0.1-0.2,0.4,0,0.5c0.4,0.1,0.7,0.1,1.1,0c0,0,0,0.1,0.1,0.1c0.1,0.1,0.2,0.2,0.4,0.1
			c0,0.1,0.1,0.2,0.3,0.3c-1,0.6-2.3,0.7-3.5,0.8c-0.2,0-0.3,0.3-0.1,0.4c0.5,0.3,1,0.5,1.5,0.5l-0.1,0.1c-0.1,0.2,0,0.4,0.2,0.4
			c0.4,0,0.8-0.1,1.1-0.2c0,0.1,0,0.1,0,0.2c-0.1,0.1-0.1,0.2-0.2,0.3c-0.1,0.2-0.3,0.5-0.4,0.7c-0.5,0.7-1.1,1.4-1.7,2
			c-0.7,0.6-1.5,1-2.4,1.3c-0.3,0.1-0.3,0.4,0,0.6c0.8,0.6,1.9,0.8,2.8,0.6c0,0.1,0,0.1,0,0.2c0,0.1,0.1,0.2,0.3,0.2
			c-0.1,0.1-0.1,0.1-0.1,0.2c-1.4,1.4-2.9,2.7-4.5,3.8c-0.2,0.2-0.2,0.5,0.1,0.6c1,0.2,1.9,0.3,2.9,0.3c0,0.1,0,0.2,0,0.2
			c0,0,0,0,0,0c-0.1,0.1-0.2,0.2-0.3,0.2c-0.2,0.2-0.5,0.4-0.7,0.6c0,0-0.1,0.1-0.1,0.1c-0.6,0.5-1.3,0.9-2,1.3
			c-0.4,0.2-0.1,0.7,0.3,0.6c0.2,0,0.4-0.1,0.6-0.1c-0.2,0.2,0,0.5,0.3,0.5c0.6,0,1.1-0.1,1.7-0.2c0,0,0,0.1,0,0.1
			c-0.6,0.2-1.1,0.4-1.7,0.5c-0.1,0-0.1,0-0.1,0.1c0,0,0,0,0,0c0,0,0,0,0,0c0,0,0,0,0,0c-0.1,0.1-0.1,0.3,0,0.4
			c-1,0.3-2.1,0.4-3.1,0.4c-0.3,0-0.4,0.4-0.2,0.6c0.7,0.6,1.6,1.1,2.6,1.3c0.2,0.1,0.5,0.1,0.7,0.1c0.2,0,0.5,0,0.6,0
			c0.2,0.1,0.2,0.3,0.4,0.4c0.2,0.1,0.3,0,0.5,0c0.3,0.1,0.5,0.4,0.8,0.5c0.3,0.1,0.6,0,0.9-0.2c0,0,0.1,0.1,0.1,0.1
			c0,0,0.1,0.1,0.1,0.1c-0.2,0.2-0.5,0.3-0.8,0.4c-0.3,0.1-0.5,0.3-0.8,0.4c-1.8,0.9-3.8,1.5-5.8,2c-0.3,0.1-0.3,0.6,0,0.6
			c0.4,0.1,0.7,0.1,1.1,0.2c-0.1,0-0.1,0.1-0.2,0.1c-0.3,0.1-0.3,0.6,0,0.6c0.5,0.1,1,0.2,1.5,0.2c-0.1,0.1-0.2,0.3-0.2,0.4
			c-0.6,0.1-1.1,0.2-1.7,0.3c0,0-0.1,0-0.1,0c0,0,0,0,0,0c0,0,0,0-0.1,0c0,0,0,0,0,0c0,0,0,0,0,0c0,0,0,0,0,0c0,0,0,0,0,0
			c0,0,0,0,0,0.1c0,0,0,0,0,0c0,0,0,0,0,0.1c0,0,0,0,0,0c0,0,0,0,0,0.1c0,0,0,0,0,0c0,0,0,0,0,0.1c0,0,0,0,0,0c0,0,0,0,0,0
			c0,0,0,0,0,0c0.2,0.2,0.4,0.3,0.6,0.4c-1.5,0.5-3,0.8-4.6,1.2c-0.3,0.1-0.3,0.5,0,0.6c0.8,0.3,1.6,0.5,2.3,0.7
			c-0.1,0.1-0.2,0.3-0.2,0.4c0,0,0,0.1,0,0.1H-12.5z M258.2,181c0,0,0.1,0,0.1,0c0.2,0,0.4-0.1,0.6-0.2c0.1,0,0.2-0.1,0.2-0.1
			c0,0,0,0,0.1,0.1c0,0,0.1,0.1,0.2,0.1c-0.3,0.2-0.6,0.3-0.9,0.5C258.5,181.2,258.4,181.1,258.2,181C258.2,181,258.2,181,258.2,181
			z M256,182.2c0.4,0,0.7-0.1,1.1-0.1c-0.3,0.2-0.7,0.3-1,0.4C256,182.4,256,182.3,256,182.2z M253.2,176.8
			c-0.7-0.4-1.5-0.7-2.3-1.1c0.5,0,0.9,0.1,1.4,0.1c0.4,0,0.5-0.4,0.4-0.7c0.7,0.1,1.5,0.2,2.2,0.2c0.1,0,0.2-0.1,0.3-0.1
			c0.1,0,0.1,0,0.2,0c-0.2,0.3,0,0.6,0.3,0.6c0.7,0,1.3-0.1,1.9-0.3c0,0.1,0,0.1,0,0.2c-0.7,0.2-1.3,0.5-2,0.6c-0.1,0-0.1,0-0.1,0.1
			c0,0,0,0,0,0c0,0,0,0,0,0c0,0,0,0,0,0c-0.1,0.1-0.1,0.3,0,0.5c-0.5,0.1-1,0.2-1.5,0.3C253.7,177.1,253.4,177,253.2,176.8
			C253.2,176.8,253.2,176.8,253.2,176.8z M236.6,164.8C236.6,164.7,236.6,164.7,236.6,164.8C236.6,164.8,236.6,164.8,236.6,164.8z
			 M220.4,151.2c0.8,0.2,1.6,0.2,2.4,0c0,0.1,0,0.2,0.1,0.3c0.1,0.2,0.2,0.3,0.4,0.4c-0.1,0.1-0.2,0.2-0.3,0.3c-0.5,0.5-1,1-1.5,1.5
			C220.8,153,220.6,152.1,220.4,151.2z M206.6,180.5c0.2-0.1,0.3-0.3,0.3-0.5c0-0.1,0-0.2,0-0.4c0.7-0.1,1.5-0.2,2.2-0.3
			c0.5-0.1,0.7-0.7,0.2-1c0,0,0,0,0,0c0.2,0,0.4-0.1,0.6-0.2c0.1,0.1,0.2,0.1,0.3,0.1c0.2,0,0.4-0.1,0.6-0.1c-0.2,0.3,0,0.6,0.3,0.6
			c0.7,0,1.3-0.1,1.9-0.3c0,0.1,0,0.1,0,0.2c-0.7,0.2-1.3,0.5-2,0.6c-0.1,0-0.1,0-0.1,0.1c0,0,0,0,0,0c0,0,0,0,0,0c0,0,0,0,0,0
			c-0.1,0.1-0.1,0.3,0,0.5c-1.2,0.3-2.4,0.5-3.7,0.5c-0.1,0-0.2,0.1-0.3,0.1C206.8,180.5,206.8,180.5,206.6,180.5
			C206.7,180.5,206.6,180.5,206.6,180.5z M185.4,173.8c-2.2,1.1-4.5,1.8-6.8,2.5c-0.5-0.2-1-0.4-1.5-0.6c0,0-0.1,0-0.1-0.1
			c0.2-0.1,0.3-0.2,0.3-0.4c0,0,0-0.1,0-0.1c0-0.1,0-0.1,0,0c0.1,0,0.4,0.1,0.6,0.1c0.4,0.1,0.8,0.1,1.2,0.1c0.7,0,1.5-0.1,2.2-0.2
			c0.4-0.1,0.4-0.6,0.1-0.8c-1.2-0.5-2.3-1.2-3.4-2c-0.3-0.3-0.6-0.5-1-0.8c0.3,0.1,0.6,0.1,0.9,0.1c0.3,0,0.7-0.3,0.4-0.6
			c-0.1-0.1,0.4-0.1,0.5,0c0.2,0,0.4,0.1,0.5,0.1c0.4,0,0.9,0,1.3-0.1c0,0,0,0,0.1,0c0.2,0.1,0.4,0.1,0.7,0.2
			c0.4,0.1,0.7,0.1,1.1,0.2c0.3,0,0.7-0.1,0.9,0.1c0.3,0.1,0.3,0.5,0.6,0.6c0.3,0.1,0.5,0,0.8,0c0.4,0.1,0.7,0.7,1.2,0.8
			c0.5,0.2,1-0.1,1.4-0.4c0,0,0.1,0.1,0.1,0.1c0.1,0.1,0.1,0.1,0.2,0.1c-0.4,0.2-0.8,0.5-1.1,0.7
			C186.2,173.4,185.8,173.6,185.4,173.8z M178.2,180.5c0.1-0.1,0.1-0.3,0.1-0.5c0.5,0.1,1,0.1,1.5,0.2
			C179.3,180.3,178.7,180.4,178.2,180.5z M176.8,180.5c0.3,0,0.6,0.1,0.8,0.1c-0.1,0-0.2,0-0.3,0.1c0,0-0.1,0-0.1,0
			C177,180.6,176.9,180.6,176.8,180.5z M157.7,184.8c0.2,0,0.4,0.1,0.6,0.1c-0.1,0-0.2,0.1-0.2,0.1c-0.1,0-0.1,0.1-0.1,0.1
			c0,0,0,0,0,0C157.9,184.9,157.8,184.8,157.7,184.8z M156.5,183.8c-0.5-0.3-1-0.5-1.6-0.7c0.3,0,0.6,0.1,1,0.1
			c0.3,0,0.4-0.3,0.3-0.5c0.5,0.1,1,0.1,1.6,0.2c0.2,0,0.4-0.3,0.3-0.5c-0.1-0.1-0.1-0.1-0.2-0.2c0.5,0,1-0.1,1.6-0.1
			c0.3,0,0.4-0.3,0.3-0.5c0,0,0-0.1,0-0.1c0.4,0,0.9-0.1,1.3-0.2c0.3-0.1,0.3-0.6,0-0.6c-1.9-0.2-3.9-0.6-5.8-1.4c0,0-0.1,0-0.1-0.1
			c0.1-0.1,0.2-0.2,0.3-0.4c0,0,0-0.1,0-0.1c0-0.1,0-0.1,0,0c0.1,0,0.4,0.1,0.4,0.1c0.3,0,0.6,0.1,1,0.1c0.6,0,1.2-0.1,1.8-0.2
			c0.2,0,0.2-0.2,0.2-0.3c0.7,0.4,1.4,0.7,2.1,0.8c0.3,0.1,0.6,0.1,0.9,0.1c0.2,0,0.6,0,0.7,0.1c0.2,0.1,0.2,0.4,0.5,0.4
			c0.2,0.1,0.4,0,0.6,0c0.4,0.1,0.6,0.5,0.9,0.7c0.4,0.2,0.8,0,1.1-0.3c0,0,0.1,0.1,0.1,0.1c0,0,0.1,0.1,0.2,0.1
			c-0.3,0.2-0.6,0.4-0.9,0.5c-0.3,0.2-0.6,0.3-1,0.5c-2.3,1.1-4.7,1.8-7.1,2.5c-0.1,0-0.2,0.1-0.2,0.1
			C156.7,183.9,156.6,183.9,156.5,183.8C156.5,183.8,156.5,183.8,156.5,183.8z M144.3,175.1c0.1,0,0.2,0,0.2,0
			c0.1,0.1,0.3,0.1,0.5,0.2c0,0,0,0,0,0.1c0,0,0,0,0,0c-0.1,0.1-0.1,0.1-0.2,0.2C144.6,175.4,144.5,175.2,144.3,175.1z M143.3,169.2
			c0.1,0,0.2,0,0.3,0c0.8,0.6,1.8,0.7,2.8,0.5c0,0.1,0,0.1,0,0.2c0,0.1,0.1,0.2,0.3,0.2c-0.1,0.1-0.1,0.1-0.1,0.2
			c-0.5,0.5-0.9,1-1.4,1.4c-0.3-0.3-0.6-0.6-0.9-0.9c0,0-0.1-0.1-0.1-0.1c-0.1-0.2-0.2-0.5-0.4-0.7
			C143.6,169.8,143.4,169.5,143.3,169.2z M111.9,184.2c0,0,0.1,0,0.1,0c0.2,0,0.4-0.1,0.6-0.2c0.1,0,0.2-0.1,0.2-0.1
			c0,0,0,0,0.1,0.1c0,0,0.1,0.1,0.2,0.1c-0.3,0.2-0.6,0.3-0.9,0.5C112.2,184.4,112.1,184.3,111.9,184.2
			C111.9,184.2,111.9,184.2,111.9,184.2z M109.7,185.4c0.4,0,0.7-0.1,1.1-0.1c-0.3,0.2-0.7,0.3-1,0.4
			C109.7,185.6,109.7,185.5,109.7,185.4z M106.9,180.1c-0.7-0.4-1.5-0.7-2.3-1.1c0.5,0,0.9,0.1,1.4,0.1c0.4,0,0.5-0.4,0.4-0.7
			c0.7,0.1,1.5,0.2,2.2,0.2c0.1,0,0.2-0.1,0.3-0.1c0.1,0,0.1,0,0.2,0c-0.2,0.3,0,0.6,0.3,0.6c0.7,0,1.3-0.1,1.9-0.3
			c0,0.1,0,0.1,0,0.2c-0.7,0.2-1.3,0.5-2,0.6c-0.1,0-0.1,0-0.1,0.1c0,0,0,0,0,0c0,0,0,0,0,0c0,0,0,0,0,0c-0.1,0.1-0.1,0.3,0,0.5
			c-0.5,0.1-1,0.2-1.5,0.3C107.4,180.4,107.1,180.2,106.9,180.1C106.9,180.1,106.9,180.1,106.9,180.1z M90.3,168
			C90.3,168,90.3,168,90.3,168C90.3,168,90.3,168,90.3,168z M74.1,154.5c0.8,0.2,1.6,0.2,2.4,0c0,0.1,0,0.2,0.1,0.3
			c0.1,0.2,0.2,0.3,0.4,0.4c-0.1,0.1-0.2,0.2-0.3,0.3c-0.5,0.5-1,1-1.5,1.5C74.5,156.3,74.3,155.4,74.1,154.5z M60.3,183.8
			c0.2-0.1,0.3-0.3,0.3-0.5c0-0.1,0-0.2,0-0.4c0.7-0.1,1.5-0.2,2.2-0.3c0.5-0.1,0.7-0.7,0.2-1c0,0,0,0,0,0c0.2,0,0.4-0.1,0.6-0.2
			c0.1,0.1,0.2,0.1,0.3,0.1c0.2,0,0.4-0.1,0.6-0.1c-0.2,0.3,0,0.6,0.3,0.6c0.7,0,1.3-0.1,1.9-0.3c0,0.1,0,0.1,0,0.2
			c-0.7,0.2-1.3,0.5-2,0.6c-0.1,0-0.1,0-0.1,0.1c0,0,0,0,0,0c0,0,0,0,0,0c0,0,0,0,0,0c-0.1,0.1-0.1,0.3,0,0.5
			c-1.2,0.3-2.4,0.5-3.7,0.5c-0.1,0-0.2,0.1-0.3,0.1C60.5,183.8,60.4,183.8,60.3,183.8C60.3,183.8,60.3,183.8,60.3,183.8z M39,177
			c-2.2,1.1-4.5,1.8-6.8,2.5c-0.5-0.2-1-0.4-1.5-0.6c0,0-0.1,0-0.1-0.1c0.2-0.1,0.3-0.2,0.3-0.4c0,0,0-0.1,0-0.1c0-0.1,0-0.1,0,0
			c0.1,0,0.4,0.1,0.6,0.1c0.4,0.1,0.8,0.1,1.2,0.1c0.7,0,1.5-0.1,2.2-0.2c0.4-0.1,0.4-0.6,0.1-0.8c-1.2-0.5-2.3-1.2-3.4-2
			c-0.3-0.3-0.6-0.5-1-0.8c0.3,0.1,0.6,0.1,0.9,0.1c0.3,0,0.7-0.3,0.4-0.6c-0.1-0.1,0.4-0.1,0.5,0c0.2,0,0.4,0.1,0.5,0.1
			c0.4,0,0.9,0,1.3-0.1c0,0,0,0,0.1,0c0.2,0.1,0.4,0.1,0.7,0.2c0.4,0.1,0.7,0.1,1.1,0.2c0.3,0,0.7-0.1,0.9,0.1
			c0.3,0.1,0.3,0.5,0.6,0.6c0.3,0.1,0.5,0,0.8,0c0.4,0.1,0.7,0.7,1.2,0.8c0.5,0.2,1-0.1,1.4-0.4c0,0,0.1,0.1,0.1,0.1
			c0.1,0.1,0.1,0.1,0.2,0.2c-0.4,0.2-0.8,0.5-1.1,0.7C39.9,176.6,39.5,176.8,39,177z M31.9,183.7c0.1-0.1,0.1-0.3,0.1-0.5
			c0.5,0.1,1,0.1,1.5,0.2C32.9,183.6,32.4,183.6,31.9,183.7z M30.4,183.8c0.3,0,0.6,0.1,0.8,0.1c-0.1,0-0.2,0-0.3,0.1
			c0,0-0.1,0-0.1,0C30.7,183.9,30.6,183.8,30.4,183.8z M11.4,188c0.2,0,0.4,0.1,0.6,0.1c-0.1,0-0.2,0.1-0.2,0.1
			c-0.1,0-0.1,0.1-0.1,0.1c0,0,0,0,0,0C11.6,188.2,11.5,188.1,11.4,188z M10.2,187.1c-0.5-0.3-1-0.5-1.6-0.7c0.3,0,0.6,0.1,1,0.1
			c0.3,0,0.4-0.3,0.3-0.5c0.5,0.1,1,0.1,1.6,0.2c0.2,0,0.4-0.3,0.3-0.5c-0.1-0.1-0.1-0.1-0.2-0.2c0.5,0,1-0.1,1.6-0.1
			c0.3,0,0.4-0.3,0.3-0.5c0,0,0-0.1,0-0.1c0.4,0,0.9-0.1,1.3-0.2c0.3-0.1,0.3-0.6,0-0.6c-1.9-0.2-3.9-0.6-5.8-1.4c0,0-0.1,0-0.1-0.1
			c0.1-0.1,0.2-0.2,0.3-0.4c0,0,0-0.1,0-0.1c0-0.1,0-0.1,0,0c0.1,0,0.4,0.1,0.4,0.1c0.3,0,0.6,0.1,1,0.1c0.6,0,1.2-0.1,1.8-0.2
			c0.2,0,0.2-0.2,0.2-0.3c0.7,0.4,1.4,0.7,2.1,0.8c0.3,0.1,0.6,0.1,0.9,0.1c0.2,0,0.6,0,0.7,0.1c0.2,0.1,0.2,0.4,0.5,0.4
			c0.2,0.1,0.4,0,0.6,0c0.4,0.1,0.6,0.5,0.9,0.7c0.4,0.2,0.8,0,1.1-0.3c0,0,0.1,0.1,0.1,0.1c0,0,0.1,0.1,0.2,0.1
			c-0.3,0.2-0.6,0.4-0.9,0.5c-0.3,0.2-0.6,0.3-1,0.5c-2.3,1.1-4.7,1.8-7.1,2.5c-0.1,0-0.2,0.1-0.2,0.1
			C10.4,187.2,10.3,187.1,10.2,187.1C10.2,187.1,10.2,187.1,10.2,187.1z"/>
	</g>
	<g clip-path="url(#SVGID_4_)">
		<g>
			<path fill="#4F7A59" d="M254.5,148c-2.1-0.7-4.1-1.7-5.7-3.2c-1.6-1.4-2.9-3.1-4.1-4.8c-2.5-3.5-4.3-7.5-5.6-11.6
				c-0.2-0.5-0.9-0.8-1.3-0.4c-1.8,1.9-2.7,4.3-3.6,6.6c-0.9,2.4-2.1,4.7-3.3,7c-0.1,0.1-0.1,0.1-0.2,0.2c-1.1,1.2-2.3,2.3-3.5,3.3
				c-0.7,0.6-1.4,1-2.2,1.4c-0.8,0.3-1.5,0.6-2.2,1.1c-0.6,0.4-0.6,1.3,0.1,1.5c1.1,0.3,2.2,0.4,3.4,0.4c-0.3,0.7-0.7,1.5-1,2.2
				c-0.2,0.5,0,1.3,0.6,1.2c0.8-0.1,1.6-0.2,2.4-0.5c0.6-0.2,2-0.5,2.2-1.2c-0.2,0.6,0.5,1.3,1.1,0.9c0.3-0.2,0.7-0.5,1-0.7
				c0.1-0.1,0.3-0.2,0.5-0.4c0.1,0.2,0.2,0.4,0.3,0.5c0.2,0.3,0.4,0.6,0.6,0.9c0.3,0.5,0.8,0.5,1.3,0.2c0.4-0.3,0.7-0.6,1.1-0.8
				c0.2-0.1,0.3-0.2,0.5-0.4c0.2-0.1,0.3-0.2,0.3-0.3c0.2,0.2,0.5,0.6,0.7,0.8c0.3,0.3,0.5,0.6,0.8,0.8c1,0.9,1.9,0,2.4-0.9
				c0.5,0.5,1.1,0.9,1.8,1.3c0.5,0.3,1.2-0.1,1.2-0.7c0.1-0.5,0.1-0.9,0.2-1.4l2.6,0.8c0.4,0.1,0.9-0.2,1-0.6c0-0.2,0.1-0.3,0.1-0.4
				c2.3,0.6,4.7,0.1,6.7-1.3C255.3,149,255.2,148.2,254.5,148z"/>
			<path fill="#416D4B" d="M244.4,139.5C244.4,139.5,244.4,139.5,244.4,139.5c-2.3-3.4-4.1-7.2-5.2-11.2c-0.2-0.5-0.9-0.8-1.3-0.4
				c-1.5,1.5-2.3,3.4-3.1,5.3c0.1,0,0.2,0,0.3,0c-0.1,0.1-0.3,0.2-0.4,0.3c-0.1,0.4-0.3,0.7-0.4,1.1c-0.7,1.8-1.5,3.5-2.4,5.3
				c0.5,0,1-0.1,1.5-0.1c0,0.2,0,0.3,0,0.5c0,0.5,0.4,0.7,0.8,0.7c0.6,0,1.1-0.2,1.6-0.4c0.1,0.2,0.2,0.5,0.4,0.7
				c0.2,0.4,0.7,0.5,1,0.2c0.8-0.6,1.5-1.3,2.3-1.9c0.4,0.5,0.9,1,1.5,1.5c0.3,0.3,0.8,0,1-0.4c0.1-0.4,0.3-0.8,0.4-1.2
				c0.4,0.2,0.8,0.4,1.2,0.7C243.8,140.2,244.4,140,244.4,139.5z"/>
			<path fill="#4F7A59" d="M249.6,134.1c-2.9-0.2-5.9-0.5-8.3-2c0.3-0.2,0.5-0.4,0.6-0.6c0.3,0,0.7-0.1,0.9-0.3
				c0.1-0.1,0.1-0.1,0.1-0.2c0.9,0.2,1.7,0.1,2.6-0.1c0.5-0.1,0.6-0.9,0.1-1.1c-2.3-0.7-4.2-2.4-5.1-4.6c0.2,0,0.4,0.1,0.6,0.1
				c0.4,0,0.7-0.4,0.6-0.7c0.5,0.1,0.9,0.2,1.4,0.2c0.5,0,0.8-0.7,0.3-1c-1.4-0.8-2.4-2-2.7-3.6c0.1,0,0.2,0,0.2,0.1
				c0.6,0.2,0.9-0.5,0.6-0.9c-1.4-1.9-2.4-4-2.9-6.2c-0.2-0.7-0.9-1.3-1.4,0.6c-0.5,2.4-0.8,5-2.7,6.6c-0.4,0.3-0.1,0.9,0.3,1
				c0.1,0,0.3,0,0.4,0.1c-0.4,0.4-0.8,0.7-1.2,1c-0.3,0.2-0.2,0.7,0,0.9c-0.4,0.3-0.9,0.6-1.4,0.8c-0.4,0.2-0.4,0.9,0.1,1
				c0.8,0.2,1.6,0.3,2.4,0.3c-1.3,2.2-3.3,3.9-5.8,4.8c-0.5,0.2-0.4,0.9,0.1,1c0.6,0.2,1.2,0.3,1.8,0.3c0,0.3,0.2,0.6,0.5,0.6
				c0.8,0,1.5-0.1,2.3-0.2c0.1,0.2,0.3,0.4,0.5,0.4c0.2,0,0.4,0,0.6-0.1c-0.8,0.7-1.9,1.3-2.8,1.7c-1.4,0.7-2.9,1.2-4.5,1.5
				c-0.6,0.1-0.6,1.1,0.1,1.1c0.8,0,1.6,0.1,2.4,0.1c-0.1,0.1-0.2,0.2-0.3,0.3c-0.3,0.3-0.2,1,0.3,1c1.1,0,2.3,0,3.4-0.2
				c0,0.1,0,0.3,0,0.4c0,0.4,0.3,0.6,0.7,0.6c0.5,0,1-0.2,1.4-0.4c0.1,0.2,0.2,0.4,0.3,0.6c0.2,0.3,0.6,0.4,0.9,0.2
				c0.6-0.6,1.3-1.1,1.9-1.7c0.4,0.5,0.8,0.9,1.3,1.3c0.3,0.2,0.7,0,0.8-0.3c0.1-0.3,0.2-0.7,0.4-1c0.3,0.2,0.7,0.4,1,0.6
				c0.4,0.2,0.9,0,0.9-0.4c0-0.2,0-0.4,0-0.6c0.8,0.3,1.7,0.5,2.7,0.5c0.5,0,0.8-0.6,0.4-0.9l-0.1-0.2c1.3-0.2,2.5-0.6,3.7-1.3
				C250.3,134.9,250.2,134.2,249.6,134.1z"/>
		</g>
	</g>
</g>
</svg>
