<?xml version="1.0" encoding="utf-8"?>
<!-- Generator: Adobe Illustrator 22.1.0, SVG Export Plug-In . SVG Version: 6.00 Build 0)  -->
<svg version="1.1" id="Слой_1" xmlns="http://www.w3.org/2000/svg" xmlns:xlink="http://www.w3.org/1999/xlink" x="0px" y="0px"
	 viewBox="0 0 100 100" enable-background="new 0 0 100 100" xml:space="preserve">
<g>
	<circle fill="#FFFFFF" cx="50" cy="50" r="47.5"/>
	<path fill="#C8C8C8" d="M66.4,23.8c0.1,0,0.1,0,0.2,0c0.2,0,0.4,0,0.6-0.1c0.1,0,0.2,0,0.3,0c0.2,0,0.4-0.1,0.6-0.1
		c0.1,0,0.2,0,0.3-0.1c0.2-0.1,0.5-0.1,0.7-0.2c0.1,0,0.1,0,0.2-0.1c0.6-0.2,1.2-0.5,1.8-0.8c0,0,0.1-0.1,0.1-0.1
		c0.2-0.1,0.5-0.3,0.7-0.5c0.1-0.1,0.1-0.1,0.2-0.2c0.2-0.2,0.4-0.3,0.6-0.5c0.1-0.1,0.2-0.1,0.2-0.2c0.2-0.2,0.4-0.4,0.6-0.6
		c0.1-0.1,0.1-0.2,0.2-0.2c0.2-0.2,0.4-0.5,0.6-0.7c0.1-0.1,0.1-0.1,0.2-0.2c0.2-0.3,0.5-0.6,0.7-1c0,0,0,0,0,0
		c0.5-0.7,0.9-1.6,1.3-2.5c0,0,0-0.1,0-0.1c0,0,0,0,0,0c0.1-0.3,0.3-0.7,0.4-1c0,0-5.1,4.8-11.1,6.9c0,0,0,0,0.1-0.1
		c0.2-0.2,0.4-0.4,0.6-0.6c0,0,0-0.1,0.1-0.1c0.2-0.2,0.3-0.4,0.5-0.6c0,0,0.1-0.1,0.1-0.1c0.4-0.5,0.7-1.1,1-1.8
		c0-0.1,0.1-0.1,0.1-0.2c0.1-0.3,0.2-0.6,0.3-1c0-0.1,0-0.1,0-0.2c0.1-0.4,0.2-0.8,0.3-1.3c0,0,0,0,0,0c0,0,0,0,0,0
		c0.2-1,0.2-2.1,0.2-3.4c0,0-2.1,8.9-10.3,10.1c0,0-0.1,0-0.1,0c-0.1,0-0.2-0.1-0.3-0.1c0,0,0.1,0,0.1,0c0.2-0.1,0.4-0.1,0.6-0.2
		c0,0,0.1,0,0.1,0c0.2-0.1,0.3-0.2,0.4-0.2c0,0,0,0,0,0c0.1-0.1,0.2-0.2,0.3-0.3c0,0,0,0,0,0c0.1-0.1,0.1-0.2,0.2-0.3c0,0,0,0,0,0
		c0-0.1,0.1-0.2,0.1-0.3c0,0,0,0,0,0c0-0.1,0-0.2,0-0.3c0,0,0,0,0,0c0-0.1,0-0.2-0.1-0.3c0,0,0,0,0,0c0,0,0,0,0,0
		c-0.4-1.2-2.4-2.3-2.4-2.3c2.5,2.5,1.2,3.8,0.3,4.3c-0.9-0.3-1.8-0.5-2.7-0.6c-6.1-0.9-12,1-16.3,4.8c-0.1-0.1-0.3-0.2-0.4-0.3
		c-1-0.5-2.2-0.6-3.2-0.1c-1.2,0.6-2.5,1.8-2.3,4.7c0,0,1.6-2.7,4.2-2.6c-1.4,1.5-2.5,3.2-3.3,5.1c-1.4,0.9-2.4,2.3-2.6,4
		c-0.2,1.4,0.1,2.7,0.8,3.8c0,0.8,0,1.7,0.1,2.5c-4.8,1.7-14.8,6.6-16.5,18.8c0,0,0,0,0,0c0,0,0,0,0,0.1c0,0,0,0,0,0
		c0,0,0.2,0,0.5,0c0,0,0.1,0,0.1,0c0.1,0,0.2,0,0.3,0c0,0,0.1,0,0.1,0c0.1,0,0.2,0,0.4,0c0,0,0.1,0,0.1,0c0.2,0,0.3,0,0.5,0
		c0.1,0,0.1,0,0.2,0c0.2,0,0.3,0,0.5,0c0.1,0,0.2,0,0.3,0c0.2,0,0.3,0,0.5,0.1c0.1,0,0.2,0,0.4,0c0.2,0,0.3,0,0.5,0.1
		c0.1,0,0.3,0,0.4,0.1c0.2,0,0.4,0,0.5,0.1c0.1,0,0.3,0,0.5,0.1c0.2,0,0.4,0.1,0.6,0.1c0.2,0,0.4,0.1,0.5,0.1c0.2,0,0.4,0.1,0.6,0.1
		c0.2,0,0.4,0.1,0.6,0.1c0.2,0,0.4,0.1,0.6,0.1c0.2,0,0.4,0.1,0.6,0.1c0.2,0,0.4,0.1,0.6,0.1c0.2,0,0.4,0.1,0.6,0.2
		c0.2,0.1,0.4,0.1,0.6,0.2c0.2,0.1,0.4,0.1,0.7,0.2c0.2,0.1,0.5,0.1,0.7,0.2c1.6,0.4,3.2,0.7,4.8,0.8c0,0,0,0,0,0c0,0,0,0,0,0
		c0.2,0,0.3,0,0.5,0c0.2,0,0.4,0,0.6,0c0.2,0,0.4,0,0.6,0c0.2,0,0.4,0,0.7,0c0.2,0,0.5,0,0.7,0c0.2,0,0.5,0,0.7,0c0.2,0,0.5,0,0.7,0
		c0.2,0,0.5,0,0.7,0c0.3,0,0.5,0,0.8-0.1c0.3,0,0.5,0,0.8-0.1c0.3,0,0.5-0.1,0.8-0.1c0.3,0,0.5-0.1,0.8-0.1c0.3,0,0.6-0.1,0.8-0.1
		c0.3,0,0.5-0.1,0.8-0.1c0,0.1,0,0.1-0.1,0.2C43.1,65,43,65.1,43,65.2c-0.1,0.2-0.2,0.3-0.3,0.5c-0.1,0.1-0.2,0.2-0.2,0.3
		c-0.1,0.2-0.3,0.3-0.4,0.5c-0.1,0.1-0.2,0.2-0.2,0.2c-0.3,0.2-0.5,0.4-0.9,0.6c-0.5,0.1-0.9,0.2-1.4,0.3c0,0,0,0,0,0
		c-3.8,0.7-6.8,0.5-6.8,0.5s-0.6-0.1-1.1,0.3c0,0,0,0.1,0,0.2c-1.4,1.4-8.5,8.6-11.5,18.2c8.2,6.6,18.6,10.6,29.9,10.6
		c11.5,0,22.1-4.1,30.3-10.9c-2.2-9.1-8.1-16.1-9.6-17.7c0-0.1,0-0.2,0.1-0.4c0,0-0.3-0.4-1.2-0.2c-2.1-0.2-4.7-0.8-6-1.2
		c0,0-0.1,0-0.1,0c-0.2-0.1-0.3-0.1-0.5-0.2c0,0,0,0-0.1,0c0,0,0,0,0,0c0,0-2.7-1.5-2.5-4.9c0,0,0,0,0-0.1c0-0.3,0.1-0.5,0.1-0.8
		c0-0.1,0-0.1,0-0.2c0.1-0.3,0.1-0.5,0.2-0.8c6.1-2.8,10.7-8.5,11.8-15.6c0.1-0.6,0.1-1.3,0.2-1.9c0-0.2,0-0.4,0-0.6
		c0-0.4,0-0.9,0-1.3c0-0.2,0-0.4,0-0.6c0-0.5-0.1-0.9-0.2-1.4c0-0.1,0-0.3-0.1-0.4c-0.1-0.6-0.2-1.2-0.4-1.8c0-0.1-0.1-0.3-0.1-0.4
		c-0.1-0.4-0.3-0.9-0.4-1.3c-0.1-0.2-0.1-0.4-0.2-0.6c-0.2-0.4-0.3-0.8-0.5-1.2c-0.1-0.2-0.2-0.3-0.2-0.5c-0.3-0.5-0.5-1-0.8-1.5
		c0-0.1-0.1-0.1-0.1-0.1c-0.3-0.5-0.6-0.9-0.9-1.3c-0.1-0.2-0.2-0.3-0.4-0.5c-0.2-0.3-0.5-0.6-0.8-0.9c-0.1-0.2-0.3-0.3-0.4-0.5
		c-0.3-0.3-0.6-0.6-0.9-0.9c-0.1-0.1-0.2-0.2-0.3-0.3c-0.4-0.4-0.9-0.7-1.3-1.1c0.1,0,0.1,0,0.2,0.1c0.1,0,0.3,0.1,0.4,0.1
		c0.1,0,0.2,0.1,0.3,0.1c0.1,0,0.3,0.1,0.4,0.1c0.1,0,0.2,0.1,0.3,0.1c0.2,0,0.4,0.1,0.6,0.1c0.1,0,0.2,0,0.4,0.1
		c0.2,0,0.4,0.1,0.6,0.1c0.1,0,0.2,0,0.3,0c0.2,0,0.3,0,0.5,0c0.1,0,0.2,0,0.4,0c0.1,0,0.3,0,0.4,0c0.1,0,0.2,0,0.4,0
		c0.1,0,0.3,0,0.4,0c0.1,0,0.2,0,0.4,0c0.2,0,0.3,0,0.5,0c0.1,0,0.2,0,0.3,0c0.2,0,0.4-0.1,0.6-0.1c0.1,0,0.2,0,0.3-0.1
		c0.2-0.1,0.4-0.1,0.7-0.2c0.1,0,0.2-0.1,0.3-0.1c0.1-0.1,0.3-0.1,0.4-0.2c0.1,0,0.2-0.1,0.3-0.1c0.1-0.1,0.3-0.1,0.4-0.2
		c0.1-0.1,0.2-0.1,0.3-0.2c0.1-0.1,0.3-0.2,0.4-0.2c0.1-0.1,0.2-0.1,0.3-0.2c0.1-0.1,0.3-0.2,0.4-0.3c0.1-0.1,0.2-0.1,0.3-0.2
		c0.1-0.1,0.3-0.3,0.4-0.4c0.1-0.1,0.1-0.1,0.2-0.2c0,0,0,0,0,0c0,0,0,0,0,0c0.4-0.5,0.8-1,1.2-1.6C78,22,73.9,24.3,66.4,23.8z"/>
</g>
</svg>
